<?xml version="1.0" encoding="UTF-8" standalone="no"?>
<!-- Created with Inkscape (http://www.inkscape.org/) -->

<svg
   width="540.70111"
   height="589.13391"
   viewBox="0 0 143.0605 155.87502"
   version="1.1"
   id="svg5"
   xmlns="http://www.w3.org/2000/svg"
   xmlns:svg="http://www.w3.org/2000/svg">
  <defs
     id="defs2" />
  <g
     id="layer1"
     transform="translate(297.92951,-60.842349)">
    <g
       transform="matrix(0.08268296,0,0,-0.08268296,-22.714218,224.36704)"
       id="g830">
      <g
         id="g1078"
         transform="matrix(3.1999742,0,0,-3.1999742,-996.2096,1713.9318)">
        <g
           id="g1749"
           transform="translate(-437.24459,-361.01415)">
          <g
             id="g2754"
             transform="translate(-375.83059,147.55694)">
            <g
               id="g3806">
              <path
                 fill="#ffffff"
                 d="m 122.03,253.72 c -0.35,-6.4 -0.18,-12.84 -0.62,-19.46 q -1.4,-21.13 -0.31,-38.55 c 0.43,-6.9 1.19,-14.04 3.08,-20.76 q 6.11,-21.79 25.31,-34.59 6.21,-4.13 14.92,-9.26 a 0.56,0.56 0 0 1 0.75,0.16 q 0.61,0.88 -0.13,1.69 c -8.01,8.72 -12.04,18.6 -14.26,30.6 q -5.04,27.23 -4.24,53.88 0.55,18.45 2.33,37.32 0.09,0.96 -0.87,0.94 -11.51,-0.13 -21.84,-0.07 -1.49,0.01 -2.94,-0.42 a 1.65,1.64 -83.7 0 1 -1.18,-1.48 z"
                 id="path2473" />
              <path
                 fill="#ffffff"
                 d="m 88.53,251.74 q -6.01,-29.7 -3.66,-61.13 1.23,-16.6 11.18,-26.54 c 7.86,-7.87 18.12,-14.54 28.92,-17.96 q 0.72,-0.23 1.27,0.4 a 0.84,0.83 -46.8 0 1 0.03,1.05 q -8.78,11.47 -11.5,25.94 c -3.48,18.5 -3.18,35.96 -2.55,55.44 0.27,8.42 2.92,16.49 2.86,25.03 a 0.37,0.37 0 0 1 -0.39,0.36 L 89.99,253 a 1.57,1.57 0 0 1 -1.46,-1.26 z"
                 id="path2475" />
              <path
                 fill="#ffffff"
                 d="m 549.96,225.45 c 11.82,-15.6 12.44,-33.27 6.55,-51.35 q -4.3,-13.18 -10.26,-25.41 a 0.43,0.43 0 0 1 0.39,-0.62 c 21.74,-0.12 42.87,12.25 44.14,35.39 1.38,25.09 -11.39,49.88 -29.11,67.35 q -8.6,8.47 -18.11,11.67 -0.74,0.25 -0.66,-0.53 c 0.14,-1.32 0.4,-2.66 0.4,-3.99 q -0.05,-11.59 -0.07,-22.67 a 4.85,4.84 -23.8 0 1 1.27,-3.27 q 2.75,-2.99 5.46,-6.57 z"
                 id="path2477" />
              <path
                 fill="#ffffff"
                 d="m 189.54,176.29 q 0.87,-0.3 1.7,-0.77 3.33,-1.89 1.35,1.39 -7.85,13.02 -8.87,28.46 -1.64,24.75 -1.14,50.2 0.05,2.4 -1.23,4.29 -0.3,0.43 -0.82,0.48 -2.36,0.25 -4.69,-0.05 -7.58,-0.99 -15.21,-2.15 -3.46,-0.52 -3.84,-3.92 -1.37,-12.09 -1.4,-27.11 -0.02,-12.59 4.6,-24.2 c 5.25,-13.23 16.38,-21.97 29.55,-26.62 z"
                 id="path2479" />
              <path
                 fill="#ffffff"
                 d="m 560.31,261.78 c 16.18,-10.38 27.13,-24.19 35.85,-41.53 q 8.48,-16.87 13.7,-37.91 0.51,-2.06 1.49,-3.89 a 0.49,0.48 48.1 0 1 0.88,0.05 q 4.71,11.89 5.79,21.15 c 1.11,9.47 1.36,21.28 0.33,30.97 q -2.44,23.04 -19.64,40.9 c -14.33,14.87 -35.96,23.36 -55.36,29.15 a 0.3,0.29 84 0 1 -0.37,-0.31 q 0.73,-10.22 -0.09,-20.25 c -0.45,-5.44 0.51,-9.12 5.34,-11.82 4.04,-2.26 8.21,-4.02 12.08,-6.51 z"
                 id="path2481" />
              <path
                 fill="#ffffff"
                 d="m 212.83,208.45 c -4.33,7.49 -6.49,15.15 -6.8,24.05 q -0.38,10.76 -0.09,22.48 0.06,2.28 -0.41,4.58 a 1.92,1.91 85.6 0 1 -1.21,1.42 q -6.07,2.25 -13.07,0.58 a 1.3,1.27 79.8 0 1 -0.77,-0.55 q -1.15,-1.83 -1.44,-3.97 c -0.92,-6.85 -1.12,-14.85 -0.51,-22.05 1.16,-13.75 9.59,-23.84 22.96,-28.19 q 2.82,-0.91 1.34,1.65 z"
                 id="path2483" />
              <path
                 fill="#ffffff"
                 d="m 229.79,227.83 c -3.56,6.67 -5.54,14.34 -5.99,21.79 q -0.39,6.47 -1,12.86 -0.07,0.77 -0.85,0.86 -2.37,0.26 -4.81,0.54 c -5.25,0.6 -5.47,-4.68 -5.88,-8.33 q -1.06,-9.47 2.69,-17 c 2.66,-5.35 8.56,-10.39 14.86,-11.98 a 0.87,0.87 0 0 1 0.98,1.26 z"
                 id="path2485" />
              <path
                 fill="#c59844"
                 d="m 500.87,450.31 q 2.27,-10.65 2.14,-17.94 -0.42,-23.28 -0.63,-44.69 -0.15,-16.36 1.4,-46.55 c 0.88,-17.25 0.53,-34.83 0.34,-51.77 q -0.21,-19.77 10.86,-38.43 c 2.84,-2.69 8.33,-7.97 12.63,-6.83 q 4.61,1.21 4.55,7.16 -0.14,14.7 -3.05,29.32 -1.48,7.45 -1.76,20.81 c -0.1,4.55 -0.58,8.86 -1.11,13.36 q -2.67,22.38 -5,44.79 -0.96,9.2 -1.54,19.94 -1.21,22.57 -2.79,44.75 -0.48,6.8 -1.56,9.92 c -2.62,7.58 -7.5,11.8 -14.48,16.16 z"
                 id="path2487" />
              <path
                 fill="#d6b35a"
                 d="m 514.98,250.93 q -11.07,18.66 -10.86,38.43 c 0.19,16.94 0.54,34.52 -0.34,51.77 q -1.55,30.19 -1.4,46.55 0.21,21.41 0.63,44.69 0.13,7.29 -2.14,17.94 l -13.84,9.08 q -3.61,-19.02 -1.31,-38.37 1.57,-13.17 2.59,-23.92 c 1.4,-14.72 -0.96,-28.9 -1.65,-43.47 q -1.85,-39.24 -1.49,-78.69 z"
                 id="path2489"
                 style="fill:#c59844;fill-opacity:1" />
              <path
                 fill="#ffffff"
                 d="m 539.41,326.6 q 0.59,-6.76 3.1,-16.11 c 0.32,-1.2 1.63,-1.77 2.71,-2.06 4.95,-1.34 10.21,-1.91 15,-3.27 24.08,-6.82 42.73,-22.63 57.79,-42.63 1.35,-1.79 2.07,-3.9 3.34,-5.72 q 2.52,-3.59 3.1,0.76 c 3.11,23.49 -9.82,44.85 -30.09,56.53 -16.59,9.55 -35.69,14.89 -54.37,13.19 a 0.63,0.63 0 0 1 -0.58,-0.69 z"
                 id="path2491" />
              <path
                 fill="#c59844"
                 d="m 171.04,264.12 c 0.35,18.92 -0.18,32.61 -1.33,54.39 q -0.71,13.63 1.03,46.5 -12.54,-19.26 -25.34,-38.23 -2.05,-3.03 -3.86,-5.39 -7.8,-10.13 -16.12,-20.79 -5.6,-7.17 -12.67,-15.45 -8.93,-10.47 -17.17,-21.24 -1.76,-2.31 -2.79,-4.97 a 0.85,0.85 0 0 1 0.83,-1.16 q 15.88,0.74 29.06,1.9 13.01,1.15 26.26,2.23 5.24,0.43 11.06,1.12 5.51,0.66 11.04,1.09 z"
                 id="path2493" />
              <path
                 fill="#ead278"
                 d="m 185.56,265.75 q 1.91,20.35 0.65,40.94 c -5.23,-0.5 -10.72,1.32 -12.71,6.57 a 1.44,1.42 40.7 0 0 0.1,1.22 q 6.19,10.81 13.5,21.34 0.07,0.1 1.22,1.97 2.32,3.78 6.86,4.18 c -0.31,19.33 -2.66,37.65 -7.48,56.02 q -7.23,-17.2 -16.96,-32.98 -1.74,-32.87 -1.03,-46.5 c 1.15,-21.78 1.68,-35.47 1.33,-54.39 z"
                 id="path2495"
                 style="fill:#c59844;fill-opacity:1" />
              <path
                 fill="#fef5a2"
                 d="m 251.23,304.06 q -1.55,23.68 -1.82,47.03 -0.13,11.4 0.69,15.73 2.27,11.99 3.37,24.25 c -1.7,-5.11 -2.93,-10.96 -5.95,-15.45 q -2.32,-3.45 -6.71,-3.34 -10.77,0.26 -25.15,0.03 -1.04,-0.02 -1.9,0.38 a 0.75,0.75 0 0 0 -0.36,1.01 q 8.7,17.43 18.84,38.54 5.06,10.53 9.14,21.75 1.23,3.4 1.9,6.38 0.2,0.92 -0.71,1.14 -2.6,0.63 -5.34,0.73 -13.52,0.5 -27.96,0.3 c -4.51,-0.06 -5.75,-4.71 -7.2,-8.41 q -7.1,-18.1 -14.37,-36.14 c 4.82,-18.37 7.17,-36.69 7.48,-56.02 q 17.04,0.29 33.84,-0.12 2.27,-0.05 4.26,-0.53 a 1.11,1.1 80.3 0 0 0.83,-1.18 q -0.23,-2.29 -1.45,-4.39 -5.52,-9.5 -11.25,-19.69 -4.37,-7.79 -11.44,-8.95 c -6.15,-1 -16.04,-0.43 -23.76,-0.42 q 1.26,-20.59 -0.65,-40.94 c 9.32,0.93 20.29,2.76 28.15,5.25 q 12.44,3.93 21.21,13.32 6.73,7.22 16.31,19.74 z"
                 id="path2497"
                 style="fill:#c59844;fill-opacity:1" />
              <path
                 fill="#ead278"
                 d="m 485.17,274.94 q -0.36,39.45 1.49,78.69 c 0.69,14.57 3.05,28.75 1.65,43.47 q -1.02,10.75 -2.59,23.92 -2.3,19.35 1.31,38.37 l -14.37,8.9 q -2.88,-11.53 -3.9,-23.31 -0.31,-3.59 -0.3,-6.31 c 0.01,-4.88 2.76,-8.25 5.28,-12.02 q 1.02,-1.52 -0.53,-3.16 c 5.79,-4.44 8.71,-9.79 9.91,-17 q 0.7,-4.24 1.41,-8.16 c 1.65,-9.09 1.5,-18.08 0.1,-28.03 q -0.86,-6.12 -1.53,-11.92 -1.13,-9.65 -7.42,-21.83 c -2.26,-19.2 -3.01,-37.4 2.08,-56.33 z"
                 id="path2499"
                 style="fill:#c59844;fill-opacity:1" />
              <path
                 fill="#fef5a2"
                 d="m 477.76,280.22 c -5.09,18.93 -4.34,37.13 -2.08,56.33 -4.97,-7.38 -14.82,-7.72 -21.46,-2.58 q -11.51,8.93 -22.4,18.62 -12.34,10.98 -24.85,21.88 c 2.63,-16.23 3.21,-32.06 -4.31,-47.18 q 12.3,-13.24 26.57,-21.82 c 8.36,-5.03 15.84,-8.5 27.25,-13.7 q 10.97,-5 21.28,-11.55 z"
                 id="path2501"
                 style="fill:#c59844;fill-opacity:1" />
              <path
                 fill="#d6b35a"
                 d="m 253.47,391.07 q -1.1,-12.26 -3.37,-24.25 -0.82,-4.33 -0.69,-15.73 0.27,-23.35 1.82,-47.03 c 6.29,8.07 9.77,14.97 15.43,25.95 q 6.34,12.32 11.34,25.89 2.66,7.2 5.1,14.5 c 5.97,17.82 10.37,36.28 13.61,54.58 q 0.91,5.13 1.42,10.78 0.2,2.2 -0.04,4.44 a 1.73,1.73 0 0 1 -1.76,1.55 q -10.48,-0.25 -20.22,-0.12 c -2.33,0.02 -4.9,-1.25 -5.92,-3.51 q -1.45,-3.26 -2.53,-6.33 -7.14,-20.42 -14.19,-40.72 z"
                 id="path2503"
                 style="fill:#c59844;fill-opacity:1" />
              <path
                 fill="#ffffff"
                 d="m 606.22,315.64 q 3.58,-3.25 7.01,-7.13 a 0.63,0.63 0 0 1 1.04,0.16 q 0.8,1.74 0.4,3.77 c -4.38,22.72 -18.62,37.69 -41.78,41.51 q -18.43,3.05 -38.64,0.06 a 0.96,0.96 0 0 1 -0.8,-1.13 q 1.35,-6.77 2.49,-12.71 c 0.95,-5 4.36,-4.89 8.85,-5.06 7.89,-0.32 16.23,-0.41 23.82,-1.45 q 20.85,-2.84 37.61,-18.02 z"
                 id="path2507" />
              <path
                 fill="#ead278"
                 d="m 402.66,327.29 c 7.52,15.12 6.94,30.95 4.31,47.18 l -18.76,18.18 c -0.75,-14.63 -1.54,-29.24 -3.53,-43.65 q 8.26,-11.54 17.98,-21.71 z"
                 id="path2509"
                 style="fill:#c59844;fill-opacity:1" />
              <path
                 fill="#c59844"
                 d="m 384.68,349 c 1.99,14.41 2.78,29.02 3.53,43.65 q -3.45,3.8 -7.12,7.6 c -8.21,8.5 -15.45,17.23 -23.58,27.33 q -3.97,4.93 -7.24,10.22 a 0.83,0.83 0 0 0 0.41,1.22 q 4.71,1.82 8.84,5.17 -3.33,22.26 -6.89,44.42 -1.18,7.32 -1.89,19.96 -26.88,-27.36 -61.42,-43.69 -2.4,-1.14 -3.75,-3.08 a 1.18,1.18 0 0 1 0,-1.36 q 1.77,-2.51 3.84,-4.07 17.73,-13.31 32.41,-28.36 5.73,-5.87 13.23,-15.04 14.49,-17.7 27.36,-33.96 c 7.54,-9.52 14.89,-19.96 22.27,-30.01 z"
                 id="path2513" />
              <path
                 fill="#ffffff"
                 d="m 575.83,382.5 c -3.57,3.05 -5.28,6.43 -10.74,6.2 q -14.3,-0.62 -29.84,-0.88 -1.85,-0.03 -3.4,-0.75 -0.46,-0.21 -0.65,-0.67 -0.75,-1.75 -0.4,-3.85 1.64,-10.07 2.49,-16.47 0.49,-3.72 4.47,-3.62 13.5,0.34 27.24,0.92 c 9.42,0.4 17.04,-0.79 26.1,-2.59 a 1.37,1.36 -7.7 0 1 1.62,1.23 c 0.66,8.88 -2.82,12.95 -10.14,16.28 q -3.93,1.8 -6.75,4.2 z"
                 id="path2515" />
              <path
                 fill="#ffffff"
                 d="m 527.75,410.95 c -0.13,-3.84 0.77,-7.76 1.06,-11.75 a 1.29,1.29 0 0 1 1.29,-1.2 l 32.85,0.12 a 0.93,0.92 -84.9 0 1 0.9,1.08 c -1.51,8.81 -11.94,13.96 -19.94,14.73 q -7.65,0.75 -14.29,-0.73 a 2.39,2.38 5.3 0 1 -1.87,-2.25 z"
                 id="path2517" />
              <path
                 fill="#fef5a2"
                 d="m 472.66,468.29 q -28.68,16.85 -42.05,23.81 -7.69,4 -24.02,10.37 0.28,-18.52 -1.12,-37.37 20.16,-9.68 38.91,-21.98 14.63,-9.59 28.83,-19.63 1.55,1.64 0.53,3.16 c -2.52,3.77 -5.27,7.14 -5.28,12.02 q -0.01,2.72 0.3,6.31 1.02,11.78 3.9,23.31 z"
                 id="path2519"
                 style="fill:#c59844;fill-opacity:1" />
              <path
                 fill="#d6b35a"
                 d="m 359.52,444.19 c 8.39,6.12 13.67,16.79 17.83,25.59 0.96,2.04 2.39,4.31 4.39,5.35 3.07,1.6 9.98,-2.23 12.77,-3.89 l 2.43,36.39 q -11.37,5.5 -22.58,11.71 c -4.39,2.43 -9.28,2.94 -13.26,-0.43 q -4,-3.38 -10.36,-10.34 0.71,-12.64 1.89,-19.96 3.56,-22.16 6.89,-44.42 z"
                 id="path2521"
                 style="fill:#c59844;fill-opacity:1" />
              <path
                 fill="#ffffff"
                 d="m 272.93,487.21 c -6.96,1.76 -13.38,8.11 -17.9,13.15 q -7.37,8.24 -15.49,18.48 -5.05,6.37 -12.18,5.69 c -7.85,-0.74 -7.99,-7.09 -11.89,-12.03 q -5.14,-6.52 -14.85,-7.03 -23.05,-1.22 -38.7,5.31 c -6.06,2.53 -9.93,7.1 -7.98,14.07 q 1.28,4.55 2.02,9.43 a 0.88,0.88 0 0 1 -1.21,0.94 c -14.01,-6.01 -24.21,-18.76 -25.46,-34.24 -0.45,-5.6 1.67,-9.53 5.93,-13.05 q 12.83,-10.62 24.58,-17.15 c 22.87,-12.69 48.1,-17.67 73.81,-14.23 47.61,6.38 86.79,33.98 120.67,66.06 q 1.86,1.76 3.49,3.69 a 0.49,0.49 0 0 1 -0.12,0.73 q -3.11,1.92 -6.23,2.97 -16.65,5.62 -36.5,10.73 c -4.9,1.26 -6.99,-1.97 -8.71,-6.35 -5.25,-13.32 -10.8,-28.13 -18.31,-39.87 -3.08,-4.79 -9.1,-8.79 -14.97,-7.3 z m -115.37,5.28 a 0.84,0.84 0 0 1 1.45,-0.01 c 1.02,1.71 2.86,3.93 4.95,4.15 a 2.66,2.66 0 0 0 2.86,-2 c 1.32,-5.2 3.2,-9.51 6.99,-13.26 q 2.6,-2.57 5.23,-4.84 4.11,-3.52 -1.23,-2.66 -8.31,1.33 -15.91,5.03 c -5.97,2.91 -13.97,8.94 -15.4,15.86 a 1.97,1.97 0 0 0 1.49,2.31 c 3.64,0.83 7.56,-1.12 9.57,-4.58 z"
                 id="path2523" />
              <path
                 fill="#ead278"
                 d="m 405.47,465.1 q 1.4,18.85 1.12,37.37 l -9.65,5.16 -2.43,-36.39 z"
                 id="path2525"
                 style="fill:#c59844;fill-opacity:1" />
              <path
                 fill="#ffffff"
                 d="m 301.26,538.35 a 0.74,0.74 0 0 1 -0.45,0.85 c -3.97,1.57 -7.53,-0.45 -10.15,-3.3 -8.64,-9.4 -20.33,-11.85 -32.56,-9.85 q -4.97,0.82 -10.45,1.48 a 0.92,0.91 8.2 0 1 -0.95,-1.27 c 4.78,-11.01 12.62,-24.02 23.47,-28.74 18.06,-7.85 28.63,29.43 31.09,40.83 z"
                 id="path2529" />
              <path
                 fill="#fef5a2"
                 d="m 437.77,525.07 q -3.58,14.13 0.11,28.33 c -7.35,-3.6 -15.2,-8.24 -23.4,-8.79 q -3.83,-0.26 -11.34,1.23 -17.57,3.48 -35.23,7.6 3.11,-9.34 -0.88,-17.97 c 5.86,-1.9 11.41,-3.82 17.24,-6.55 q 10.98,-5.12 22.16,-9.75 7.88,-3.27 15.81,-0.21 7.75,3 15.53,6.11 z"
                 id="path2531"
                 style="fill:#c59844;fill-opacity:1" />
              <path
                 fill="#ead278"
                 d="m 463.99,534.71 q -4.92,9.06 -3.97,19.31 c 0.48,5.15 3.09,8.13 5,12.4 L 437.88,553.4 q -3.69,-14.2 -0.11,-28.33 z"
                 id="path2533"
                 style="fill:#c59844;fill-opacity:1" />
              <path
                 fill="#ffffff"
                 d="m 222.62,565.61 q 0.07,5.93 3.03,10.23 c 3.32,4.82 8.03,9.56 12.26,13.91 a 1.02,1.02 0 0 1 -0.1,1.51 q -6.44,5.05 -12.34,9.7 c -2.05,1.61 -5.87,5.43 -8.44,2.82 -4.15,-4.21 -8.15,-8.7 -12.97,-12.18 q -6.16,-4.44 -14.66,-7.29 a 1,1 0 0 1 -0.52,-1.49 q 16.15,-24.62 28.19,-44.74 c 2.59,-4.34 5.19,-7.69 10.66,-6.82 q 4.35,0.69 9.44,0.15 a 0.8,0.8 0 0 1 0.85,1.02 q -2.21,7.35 -4.4,13.57 -1,2.82 -2.84,5.7 c -2.94,4.57 -8.22,7.82 -8.16,13.91 z"
                 id="path2535" />
              <path
                 fill="#ffffff"
                 d="m 274.12,586.56 c 4.67,-5.54 11.82,-14.11 3.94,-20.75 q -7.43,-6.27 -18.06,-6.16 -7.13,0.07 -11.26,3.39 c -6.53,5.24 -3.06,13.7 -1.07,20.58 a 0.46,0.45 86.7 0 1 -0.51,0.58 c -10.67,-1.94 -16.38,-11.25 -12.84,-21.71 2.07,-6.12 4.77,-12.63 5.1,-19.05 0.38,-7.38 5.98,-8.91 12.22,-8.76 q 9.61,0.22 18.03,1.19 10.94,1.26 13.89,10.6 0.79,2.53 1.73,5.15 c 2.66,7.45 12.46,10.3 13.95,18.4 q 0.92,5.01 -2.51,9.25 -7,8.67 -17.43,9.17 -2.63,0.13 -4.86,-0.7 a 0.75,0.75 0 0 1 -0.32,-1.18 z"
                 id="path2537" />
              <path
                 fill="#c59844"
                 d="m 457.44,606.12 c 3.55,-8.95 3.28,-18.58 1.93,-28.22 2.11,-0.19 4.2,0.17 6.16,-0.24 q 5.4,-1.12 9.91,-2.96 a 1.86,1.86 0 0 0 0.08,-3.41 l -10.5,-4.87 c -1.91,-4.27 -4.52,-7.25 -5,-12.4 q -0.95,-10.25 3.97,-19.31 22.82,6.99 32.52,8.29 9.38,1.26 18.55,3.13 c 2.5,0.51 9.37,2.44 8.72,5.92 -2.37,12.54 -14.02,23.05 -24.99,28.6 -6.71,3.4 -14.97,5 -22.57,6.66 q -2.54,0.55 -4.6,1.82 a 0.9,0.9 0 0 0 -0.11,1.45 c 7.85,6.61 17.31,8.6 27.22,10.74 q 2.18,0.47 4.03,1.89 a 0.53,0.52 -36.3 0 1 -0.14,0.91 q -7.01,2.62 -13.9,3.68 c -10.9,1.67 -20.96,1.68 -31.28,-1.68 z"
                 id="path2539" />
              <path
                 fill="#c59844"
                 d="m 367.03,535.47 q 3.99,8.63 0.88,17.97 l -9.18,3.22 q -2.22,0.78 -0.78,2.64 c 1.92,2.48 6.56,4.42 9.49,5.54 q 2.89,18.05 3.32,29.5 c 0.37,9.94 -0.36,26.77 0.21,40.67 -4.28,0.69 -7.63,-2.31 -9.42,-5.85 q -5.18,-10.3 -11.06,-21.22 c -5.72,-10.63 -11.85,-19.88 -19.92,-29.03 q -6.9,-7.83 -12.84,-15.79 c -1.98,-2.66 -4.58,-7.36 -2.78,-10.72 q 2.15,-4.02 7.27,-5.08 22.71,-4.68 44.81,-11.85 z"
                 id="path2541" />
              <path
                 fill="#ead278"
                 d="m 367.44,564.84 14.4,6.83 q 3.2,25.16 2.47,49.96 -0.07,2.39 0.27,7.73 -5.7,4.92 -13.61,5.65 c -0.57,-13.9 0.16,-30.73 -0.21,-40.67 q -0.43,-11.45 -3.32,-29.5 z"
                 id="path2545"
                 style="fill:#c59844;fill-opacity:1" />
              <path
                 fill="#fef5a2"
                 d="m 433.06,575.22 4.65,22.34 q -10.02,-1.94 -19.13,3.59 -5.23,3.18 -9.89,7.28 -11.93,10.49 -24.11,20.93 -0.34,-5.34 -0.27,-7.73 0.73,-24.8 -2.47,-49.96 14.25,7.24 28.5,13.17 7.4,3.09 14.12,0.61 a 1.34,1.34 0 0 0 0.48,-2.21 q -2.18,-2.16 -2.83,-4.83 -0.14,-0.58 0.45,-0.72 z"
                 id="path2547"
                 style="fill:#c59844;fill-opacity:1" />
              <path
                 fill="#ead278"
                 d="m 459.37,577.9 c 1.35,9.64 1.62,19.27 -1.93,28.22 l -19.73,-8.56 -4.65,-22.34 q 5.15,-1.84 10.36,-1.7 2.94,0.08 8.01,1.89 3.98,1.42 7.94,2.49 z"
                 id="path2549"
                 style="fill:#c59844;fill-opacity:1" />
              <path
                 fill="#ffffff"
                 d="m 197.63,617.13 c -5.66,-7.32 -15.13,-11.33 -24.65,-12.22 -11.42,-1.07 -23.73,4.44 -26.84,16.02 q -1.46,5.42 -1.34,10.66 a 1.03,1.03 0 0 1 -1.28,1.02 c -7.94,-1.97 -13.02,-9.6 -12.07,-17.84 q 1.56,-13.44 11.24,-20.38 11.93,-8.56 26.34,-7.91 8.24,0.37 18.65,5.31 13.31,6.3 24.06,16.89 7.85,7.73 3.76,18.24 -3.93,10.09 -14.44,10.58 a 0.95,0.95 0 0 1 -1,-0.97 q 0.06,-2.8 0.64,-5.48 c 1.02,-4.69 -0.27,-10.3 -3.07,-13.92 z"
                 id="path2551" />
              <path
                 fill="#ffffff"
                 d="m 166.77,664.62 c -1.69,0.95 -3.22,2.97 -4.23,4.65 q -3.6,6.04 -7.34,11.34 -1.97,2.79 -2.78,-0.49 -0.39,-1.56 -0.67,-3.29 a 8.15,8.14 -31.8 0 1 1.44,-6.12 q 7.98,-11.02 20.14,-16.1 5.33,-2.23 12.11,-4.71 c 9.5,-3.47 21.18,-4.78 30.69,-4 q 2.24,0.19 3.06,2.31 1.77,4.65 3.61,8.81 a 0.7,0.7 0 0 1 -0.68,0.98 q -8.59,-0.52 -14.82,-3.39 c -4.89,-2.25 -9.48,-2.49 -14.62,-1.33 -8.94,2.03 -17.74,6.73 -25.91,11.34 z"
                 id="path2555" />
              <path
                 fill="#ffffff"
                 d="m 229.93,647.49 16.12,6.36 a 0.67,0.67 0 0 1 0.38,0.39 l 0.28,0.78 a 0.67,0.67 0 0 1 -0.7,0.89 l -11.3,-1.23 a 0.67,0.67 0 0 1 -0.43,-0.23 l -5.11,-5.9 a 0.67,0.67 0 0 1 0.76,-1.06 z"
                 id="path2557" />
              <path
                 fill="#ffffff"
                 d="m 207.77,667.16 q 0.57,0.96 -0.54,1.09 l -0.87,0.1 a 1.35,1.34 68.3 0 1 -1.26,-0.55 q -3.32,-4.56 -2.15,-10.32 0.1,-0.49 0.61,-0.44 c 0.87,0.09 1.41,0.96 1.48,1.76 q 0.43,4.44 2.73,8.36 z"
                 id="path2559" />
              <path
                 fill="#ffffff"
                 d="m 237.48,657.13 13.35,3.74 a 2.48,2.48 0 0 1 1.58,3.44 l -6.39,13.78 a 0.85,0.84 -45.3 0 1 -1.53,0.01 q -4.73,-10.09 -8.11,-19.81 -0.56,-1.62 1.1,-1.16 z"
                 id="path2561" />
              <path
                 fill="#ffffff"
                 d="m 200.04,659.02 c -0.08,3.13 0.66,5.68 2.59,8.29 a 1.35,1.35 0 0 1 0.18,1.3 q -0.41,1.07 -1.66,1.18 a 1.1,1.09 62.2 0 1 -0.83,-0.26 c -2.76,-2.33 -3.89,-7.11 -3.72,-10.54 a 1.69,1.67 73.5 0 1 0.68,-1.27 c 1.29,-0.94 2.8,-0.28 2.76,1.3 z"
                 id="path2563" />
              <path
                 fill="#ffffff"
                 d="m 196.51,670.07 a 0.16,0.16 0 0 1 -0.1,0.21 l -0.15,0.04 a 5.02,4.05 72 0 1 -5.4,-3.52 l -1.07,-3.29 a 5.02,4.05 72 0 1 2.3,-6.03 l 0.15,-0.04 a 0.16,0.16 0 0 1 0.2,0.1 z"
                 id="path2565" />
              <ellipse
                 fill="#ffffff"
                 cx="0"
                 cy="0"
                 transform="rotate(68.4,-382.29493,486.1736)"
                 rx="3.9300001"
                 ry="1.58"
                 id="ellipse2567" />
              <path
                 fill="#ffffff"
                 d="m 189.85,671.81 a 0.27,0.27 0 0 1 -0.18,0.34 l -0.31,0.09 a 5.11,3.79 73.6 0 1 -5.08,-3.84 l -0.88,-2.99 a 5.11,3.79 73.6 0 1 2.19,-5.97 l 0.31,-0.09 a 0.27,0.27 0 0 1 0.33,0.18 z"
                 id="path2569" />
              <path
                 fill="#ffffff"
                 d="m 208.98,671.52 c 3.66,-0.75 5.7,-2.93 6.69,-6.44 0.94,-3.34 3.73,-3.74 6.67,-4.13 q 3.42,-0.47 4.48,3.03 2.77,9.15 6.15,17.81 c 2.71,6.94 -1.46,10.43 -6.75,14.1 -15.48,10.75 -33.71,17.03 -52.44,18.98 -3.37,0.35 -7.84,-0.45 -9.56,-3.83 q -4.9,-9.64 -9.78,-20.34 -0.9,-1.97 -0.93,-4.13 -0.01,-0.55 0.37,-0.96 c 6.3,-6.85 8.27,-0.46 14.68,-0.99 q 4.08,-0.33 6.83,-1.48 c 11.23,-4.68 21.8,-9.23 33.59,-11.62 z"
                 id="path2571" />
              <path
                 fill="#ffffff"
                 d="m 183.18,673.91 a 0.31,0.31 0 0 1 -0.21,0.38 l -0.69,0.2 a 5.04,3.23 73.8 0 1 -4.51,-3.93 l -0.83,-2.87 a 5.04,3.23 73.8 0 1 1.69,-5.74 l 0.7,-0.2 a 0.31,0.31 0 0 1 0.38,0.21 z"
                 id="path2573" />
              <path
                 fill="#ffffff"
                 d="m 177.92,675.94 a 1.14,1.14 0 0 1 -0.6,1.49 l -0.75,0.33 a 5.54,3.56 66.8 0 1 -5.45,-3.69 l -0.51,-1.18 a 5.54,3.56 66.8 0 1 1.09,-6.5 l 0.75,-0.32 a 1.14,1.14 0 0 1 1.5,0.6 z"
                 id="path2575" />
              <path
                 fill="#ffffff"
                 d="m 171.7,680.12 a 0.22,0.22 0 0 1 -0.11,0.29 l -0.15,0.06 a 4.11,3.7 65.9 0 1 -5.05,-2.24 l -1.32,-2.94 a 4.11,3.7 65.9 0 1 1.7,-5.26 l 0.15,-0.06 a 0.22,0.22 0 0 1 0.29,0.11 z"
                 id="path2577" />
              <path
                 fill="#ffffff"
                 d="m 245.8,686.37 a 0.17,0.17 0 0 1 -0.24,0.04 l -0.08,-0.06 a 3.38,2.25 -54.7 0 1 0.12,-4.05 l 0.29,-0.41 a 3.38,2.25 -54.7 0 1 3.79,-1.46 l 0.08,0.06 a 0.17,0.17 0 0 1 0.04,0.23 z"
                 id="path2579" />
              <path
                 fill="#ffffff"
                 d="m 133.67,701.01 c 1.73,-6.05 4.63,-11.91 7.89,-17.29 a 1.35,1.34 -64 0 1 1.62,-0.56 q 0.95,0.35 0.94,1.43 c -0.01,2.74 -0.61,5.54 -2.11,7.9 -2.11,3.31 -3.85,7.31 -7.43,9.25 a 0.63,0.63 0 0 1 -0.91,-0.73 z"
                 id="path2581" />
              <path
                 fill="#ffffff"
                 d="m 152.84,713.39 a 0.57,0.57 0 0 1 -0.2,0.69 q -1,0.7 -2.28,0.57 -7.23,-0.73 -14.5,-5.49 -0.96,-0.64 -0.34,-1.61 l 8.16,-12.74 a 0.82,0.82 0 0 1 1.45,0.13 z"
                 id="path2583" />
              <path
                 fill="#ffffff"
                 d="m 233.04,698.84 q 0.48,1.88 -0.94,3.19 c -8.79,8.17 -19.13,14.79 -30.97,17.31 q -4.44,0.95 -13.39,0.79 -6.73,-0.13 -13.49,-0.1 a 1.71,1.7 71.1 0 1 -1.38,-0.68 l -0.23,-0.3 a 0.45,0.45 0 0 1 0.31,-0.72 q 10.66,-1.28 17.57,-2.76 22.9,-4.92 40.1,-19.12 1.49,-1.24 1.97,0.64 z"
                 id="path2585" />
            </g>
          </g>
        </g>
      </g>
    </g>
  </g>
</svg>
