<?xml version="1.0" encoding="UTF-8" standalone="no"?>
<!-- Created with Inkscape (http://www.inkscape.org/) -->

<svg
   width="494.49673"
   height="493.10098"
   viewBox="0 0 130.83559 130.46631"
   version="1.1"
   id="svg5"
   xmlns="http://www.w3.org/2000/svg"
   xmlns:svg="http://www.w3.org/2000/svg">
  <defs
     id="defs2" />
  <g
     id="layer1"
     transform="translate(186.96385,-50.013357)">
    <g
       transform="matrix(0.08268296,0,0,-0.08268296,-22.714218,224.36704)"
       id="g830">
      <g
         id="g1078"
         transform="matrix(3.1999742,0,0,-3.1999742,-996.2096,1713.9318)">
        <g
           id="g1749"
           transform="translate(-437.24459,-361.01415)">
          <g
             id="g1838">
            <path
               fill="#ffffff"
               d="m 478.85,708.34 c -55.87,25.83 -121.17,29.32 -179,10.52 C 201.3,686.81 133.84,599.45 128.09,495.92 q -0.66,-11.97 0.07,-24.49 c 5.94,-101.53 71.9,-188.12 167.82,-220.72 57.33,-19.49 119.15,-17.01 175.28,6.37 86.39,35.97 144.87,119.87 150.54,212.65 2.58,42.14 -5.4,83.04 -23.61,121.65 q -5.68,12.06 -11.96,22.07 -39.95,63.72 -107.38,94.89 z M 575.56,356.16 C 530.32,285.68 450.48,243.72 366.31,247.18 254.83,251.76 160.77,333.7 141.9,444.38 c -14.33,84.09 18.84,169.61 85.12,222.81 q 53.96,43.32 123.75,51.28 10.14,1.15 20.51,1.3 65.91,0.93 123.32,-31.92 c 61.05,-34.93 103.29,-96.46 115.08,-165.03 9.94,-57.8 -2.38,-117.21 -34.12,-166.66 z"
               id="path1405" />
            <path
               fill="#006a2a"
               d="m 575.56,356.16 c 31.74,49.45 44.06,108.86 34.12,166.66 -11.79,68.57 -54.03,130.1 -115.08,165.03 q -57.41,32.85 -123.32,31.92 -10.37,-0.15 -20.51,-1.3 -69.79,-7.96 -123.75,-51.28 C 160.74,613.99 127.57,528.47 141.9,444.38 160.77,333.7 254.83,251.76 366.31,247.18 c 84.17,-3.46 164.01,38.5 209.25,108.98 z m -74.69,70.27 c 13.19,-7.63 22.64,-17.28 24.99,-33.02 a 2.06,2.01 36.6 0 0 -0.19,-1.19 q -13.39,-27.71 -26.18,-55.39 c -4.49,-9.72 -9.06,-17.19 -16.44,-24.16 -8.32,-7.87 -33.69,-24.45 -45.93,-16.93 -7.05,4.33 -11.6,12.06 -14.98,19.73 q -2.45,5.55 -4.15,14.9 -3.38,18.55 -4.29,35.8 c -0.8,14.99 0.93,30.26 8.24,43.7 3.36,6.17 9.21,13.01 16.3,13.4 q 29.71,1.66 59.77,3.82 1.53,0.11 2.86,-0.66 z M 304.4,401.65 c 8.14,13.2 18.79,28.09 30.64,36.25 q 13.22,9.1 31.49,8.42 10.63,-0.4 23.17,-5.99 2.26,-1 3.57,-3.07 c 5.8,-9.15 11.48,-22.7 10.5,-33.84 q -1.5,-17.01 -6.8,-34.41 -0.85,-2.78 -2.87,-5.37 -12.93,-16.59 -28.3,-31.76 c -6.64,-6.55 -9.92,-10.01 -15.79,-14.02 q -5.01,-3.43 -8.9,-4.17 c -13.02,-2.49 -27.94,6.01 -36.96,15.93 q -2.55,2.79 -2.81,3.79 -4.68,17.55 -3.16,35.09 0.84,9.68 2.57,23.04 c 0.54,4.17 1.59,6.77 3.65,10.11 z m -76.06,74.41 c 10.12,7.78 24.16,15.41 36.32,18.79 q 19.65,5.46 39.8,0.88 a 3.02,2.87 19.8 0 0 1.09,-0.48 q 10.16,-7.14 17.44,-17.45 7.61,-10.79 4.42,-22.62 -1.98,-7.33 -6.63,-14.61 -3.37,-5.28 -10.58,-11.94 -22.08,-20.37 -44.09,-36.42 -12.12,-8.84 -24.7,-17.44 a 2.95,2.94 -33.4 0 0 -2.26,-0.46 c -14.42,2.95 -26.39,7.78 -35.18,20.14 q -2.08,2.93 -2.31,7.76 -0.95,19.35 2.13,35.13 c 3.11,15.86 12.13,29.16 24.55,38.72 z m 257.18,-3.2 a 0.89,0.89 0 0 1 0.65,1.37 l -6.43,9.84 a 0.64,0.63 -57.1 0 0 0.18,0.87 l 21.56,14.38 a 0.67,0.67 0 0 0 0.91,-0.16 l 41.08,-55.94 a 0.39,0.39 0 0 0 -0.09,-0.55 l -25.77,-18.36 a 0.57,0.56 36.1 0 0 -0.78,0.12 q -4.79,6.37 -9.58,12.86 -0.73,0.99 -1.8,1.53 a 1.55,1.51 37.4 0 1 -0.99,0.12 q -26.7,-5.69 -54.99,-6.19 -10.59,-0.19 -21.01,1.03 c -22.96,2.7 -44.87,13.59 -64.1,27.02 -10.32,7.2 -21.13,15.16 -29.57,24.48 -19.04,21.01 -35.55,45.72 -40.57,72.26 -2.53,13.38 -0.33,28.14 3.66,40.76 11.44,36.12 40.73,56.86 77.79,58.39 28.71,1.19 57.29,-7.55 82,-22.4 q 35.22,-21.15 66.52,-54.24 a 0.84,0.84 0 0 0 -0.02,-1.18 L 494.7,549.46 a 0.3,0.29 43 0 0 -0.42,0.01 q -9.82,10.85 -21.85,21.12 c -12.97,11.07 -26.72,21.19 -42.12,27.63 -18.08,7.56 -37.77,8.51 -57.98,5.51 q -6.76,-1.01 -11.19,-4.03 c -17.17,-11.74 -26.94,-29.15 -19.94,-50.28 6.59,-19.88 21.58,-37.96 37.65,-51.55 16.83,-14.22 36.04,-23.39 57.65,-25.38 q 23.5,-2.17 49.02,0.37 z m -201.71,51.53 c -8.98,-10.96 -20.27,-21.57 -32.17,-29.53 -19.37,-12.97 -44.59,-16.01 -67.6,-14.09 a 1.37,1.37 0 0 0 -1.22,1.05 q -4.5,18.67 -5.33,38.14 -0.7,16.48 2.6,31.07 c 4.51,19.89 18.54,31.28 35.9,39.94 q 7.31,3.65 13.92,4.71 c 17.36,2.79 50.02,5.63 55.96,-17.36 3.93,-15.21 2.12,-32.15 0.15,-48.67 q -0.35,-2.99 -2.21,-5.26 z"
               id="path1407" />
            <path
               fill="#ffffff"
               d="m 525.86,393.41 c -2.35,15.74 -11.8,25.39 -24.99,33.02 q -1.33,0.77 -2.86,0.66 -30.06,-2.16 -59.77,-3.82 c -7.09,-0.39 -12.94,-7.23 -16.3,-13.4 -7.31,-13.44 -9.04,-28.71 -8.24,-43.7 q 0.91,-17.25 4.29,-35.8 1.7,-9.35 4.15,-14.9 c 3.38,-7.67 7.93,-15.4 14.98,-19.73 12.24,-7.52 37.61,9.06 45.93,16.93 7.38,6.97 11.95,14.44 16.44,24.16 q 12.79,27.68 26.18,55.39 a 2.06,2.01 36.6 0 1 0.19,1.19 z"
               id="path1409" />
            <path
               fill="#ffffff"
               d="m 335.04,437.9 c -11.85,-8.16 -22.5,-23.05 -30.64,-36.25 -2.06,-3.34 -3.11,-5.94 -3.65,-10.11 q -1.73,-13.36 -2.57,-23.04 -1.52,-17.54 3.16,-35.09 0.26,-1 2.81,-3.79 c 9.02,-9.92 23.94,-18.42 36.96,-15.93 q 3.89,0.74 8.9,4.17 c 5.87,4.01 9.15,7.47 15.79,14.02 q 15.37,15.17 28.3,31.76 2.02,2.59 2.87,5.37 5.3,17.4 6.8,34.41 c 0.98,11.14 -4.7,24.69 -10.5,33.84 q -1.31,2.07 -3.57,3.07 -12.54,5.59 -23.17,5.99 -18.27,0.68 -31.49,-8.42 z"
               id="path1411" />
            <path
               fill="#ffffff"
               d="M 228.34,476.06 C 215.92,466.5 206.9,453.2 203.79,437.34 q -3.08,-15.78 -2.13,-35.13 0.23,-4.83 2.31,-7.76 c 8.79,-12.36 20.76,-17.19 35.18,-20.14 a 2.95,2.94 -33.4 0 1 2.26,0.46 q 12.58,8.6 24.7,17.44 22.01,16.05 44.09,36.42 7.21,6.66 10.58,11.94 4.65,7.28 6.63,14.61 3.19,11.83 -4.42,22.62 -7.28,10.31 -17.44,17.45 a 3.02,2.87 19.8 0 1 -1.09,0.48 q -20.15,4.58 -39.8,-0.88 c -12.16,-3.38 -26.2,-11.01 -36.32,-18.79 z"
               id="path1413" />
            <path
               fill="#ffffff"
               d="M 485.52,472.86 Q 460,470.32 436.5,472.49 c -21.61,1.99 -40.82,11.16 -57.65,25.38 -16.07,13.59 -31.06,31.67 -37.65,51.55 -7,21.13 2.77,38.54 19.94,50.28 q 4.43,3.02 11.19,4.03 c 20.21,3 39.9,2.05 57.98,-5.51 15.4,-6.44 29.15,-16.56 42.12,-27.63 q 12.03,-10.27 21.85,-21.12 a 0.3,0.29 43 0 1 0.42,-0.01 l 29.47,29.41 a 0.84,0.84 0 0 1 0.02,1.18 q -31.3,33.09 -66.52,54.24 c -24.71,14.85 -53.29,23.59 -82,22.4 -37.06,-1.53 -66.35,-22.27 -77.79,-58.39 -3.99,-12.62 -6.19,-27.38 -3.66,-40.76 5.02,-26.54 21.53,-51.25 40.57,-72.26 8.44,-9.32 19.25,-17.28 29.57,-24.48 19.23,-13.43 41.14,-24.32 64.1,-27.02 q 10.42,-1.22 21.01,-1.03 28.29,0.5 54.99,6.19 a 1.55,1.51 37.4 0 0 0.99,-0.12 q 1.07,-0.54 1.8,-1.53 4.79,-6.49 9.58,-12.86 a 0.57,0.56 36.1 0 1 0.78,-0.12 l 25.77,18.36 a 0.39,0.39 0 0 1 0.09,0.55 l -41.08,55.94 a 0.67,0.67 0 0 1 -0.91,0.16 l -21.56,-14.38 a 0.64,0.63 -57.1 0 1 -0.18,-0.87 l 6.43,-9.84 a 0.89,0.89 0 0 0 -0.65,-1.37 z"
               id="path1415" />
            <path
               fill="#ffffff"
               d="m 251.64,494.86 c 11.9,7.96 23.19,18.57 32.17,29.53 q 1.86,2.27 2.21,5.26 c 1.97,16.52 3.78,33.46 -0.15,48.67 -5.94,22.99 -38.6,20.15 -55.96,17.36 q -6.61,-1.06 -13.92,-4.71 c -17.36,-8.66 -31.39,-20.05 -35.9,-39.94 q -3.3,-14.59 -2.6,-31.07 0.83,-19.47 5.33,-38.14 a 1.37,1.37 0 0 1 1.22,-1.05 c 23.01,-1.92 48.23,1.12 67.6,14.09 z"
               id="path1417" />
          </g>
        </g>
      </g>
    </g>
  </g>
</svg>
