<?xml version="1.0" encoding="UTF-8" standalone="no"?>
<!DOCTYPE svg PUBLIC "-//W3C//DTD SVG 1.1//EN" "http://www.w3.org/Graphics/SVG/1.1/DTD/svg11.dtd">
<svg xmlns="http://www.w3.org/2000/svg" version="1.1" viewBox="0.00 0.00 1246.00 1246.00">
<g stroke-width="2.00" fill="none" stroke-linecap="butt">
<path stroke="#d3671c" vector-effect="non-scaling-stroke" d="
  M 610.03 293.67
  C 607.31 295.27 606.28 297.95 603.82 299.67
  Q 601.39 301.37 599.80 303.90
  Q 598.74 305.60 598.76 308.07
  Q 599.02 347.27 599.42 381.24
  Q 599.75 408.61 599.69 465.75
  Q 599.62 527.05 597.41 584.25
  Q 596.31 612.66 593.70 640.94
  Q 593.53 642.85 592.48 644.16
  C 586.97 651.05 581.58 649.02 575.20 645.24
  C 574.30 644.71 573.29 644.74 572.34 644.30
  C 567.77 642.21 563.34 639.78 558.50 637.86
  C 554.70 636.35 551.24 634.26 547.43 632.83
  Q 541.02 630.43 538.68 623.82
  Q 536.81 618.52 535.86 612.30
  C 534.46 603.09 532.39 594.06 530.11 584.92
  C 529.66 583.10 529.77 581.08 529.43 579.50
  Q 527.01 568.34 523.94 556.68
  C 523.55 555.21 523.81 553.61 523.42 552.14
  Q 519.50 537.58 517.51 528.97
  Q 515.46 520.07 513.05 512.54
  C 512.20 509.87 511.97 506.53 511.19 504.33
  Q 507.92 495.14 505.38 485.71
  C 504.16 481.20 502.40 477.25 501.12 472.96
  Q 499.61 467.86 497.89 463.66
  Q 496.16 459.44 494.73 455.33
  Q 493.29 451.20 491.46 447.22
  C 489.12 442.13 487.20 437.02 484.58 432.07
  C 482.71 428.53 481.10 424.42 478.63 421.15
  Q 477.21 419.26 476.50 417.14
  Q 476.34 416.66 475.92 416.38
  Q 475.26 415.94 475.12 415.18
  A 0.55 0.54 8.9 0 1 475.91 414.61
  C 479.34 416.41 483.06 416.44 486.47 417.89
  Q 491.38 419.97 496.34 421.79
  C 501.93 423.85 506.99 426.62 512.35 428.86
  C 515.71 430.26 518.55 432.04 521.82 433.37
  Q 522.76 433.76 522.09 432.99
  C 513.14 422.73 505.28 411.53 496.89 400.93
  Q 480.55 380.27 462.05 363.49
  Q 443.09 346.28 417.66 331.41
  Q 410.35 327.13 403.26 323.50
  Q 398.91 321.27 394.72 318.97
  C 392.25 317.62 389.81 316.91 387.45 315.28
  Q 385.17 313.70 386.63 316.06
  Q 388.85 319.65 391.08 323.15
  Q 411.82 355.64 428.18 392.06
  Q 436.16 409.79 441.35 423.55
  Q 442.04 425.39 442.81 427.25
  Q 445.39 433.50 447.39 440.01
  C 448.77 444.51 451.86 451.43 453.36 457.51
  C 454.75 463.14 457.13 468.45 458.49 473.87
  C 460.69 482.63 463.47 490.19 465.27 498.40
  C 466.92 505.93 469.46 512.97 470.82 520.36
  C 472.68 530.47 475.48 540.23 477.24 550.38
  Q 478.79 559.27 481.29 570.43
  C 482.34 575.11 482.56 579.89 483.43 584.53
  Q 485.33 594.69 487.06 604.97
  C 487.80 609.38 488.16 613.98 488.83 618.35
  Q 491.66 636.58 493.91 654.22
  Q 494.30 657.27 494.71 661.22
  Q 496.34 676.68 498.59 690.62
  A 0.34 0.34 0.0 0 0 499.19 690.78
  Q 500.32 689.38 501.52 688.33
  Q 508.15 682.47 515.03 676.45
  A 0.84 0.83 -46.5 0 1 516.09 676.42
  C 518.22 678.06 520.70 678.92 523.08 680.15
  Q 544.57 691.16 566.95 702.47
  Q 579.37 708.75 590.90 714.60
  Q 592.52 715.42 592.52 717.24
  L 592.66 758.53
  A 0.39 0.38 90.0 0 0 593.04 758.92
  L 656.20 758.89
  A 0.60 0.60 0.0 0 0 656.80 758.30
  L 657.23 715.99
  A 1.31 1.30 81.8 0 1 658.15 714.75
  C 662.21 713.49 665.16 710.93 668.95 709.34
  Q 673.26 707.55 677.18 705.07
  C 680.06 703.25 683.29 702.28 686.24 700.62
  C 690.33 698.33 694.66 696.53 698.75 694.19
  C 703.03 691.74 707.41 689.97 711.55 687.59
  C 714.66 685.79 718.06 684.80 721.15 682.90
  C 725.12 680.47 729.32 678.67 733.34 676.51
  A 0.99 0.98 51.0 0 1 734.46 676.63
  L 750.48 690.55
  Q 751.10 691.09 751.23 690.27
  Q 751.92 685.89 752.14 682.02
  Q 752.41 677.57 752.94 673.53
  Q 754.95 658.35 757.06 643.92
  Q 757.45 641.22 757.64 638.35
  Q 757.92 633.96 758.12 632.69
  Q 760.84 615.68 763.57 599.07
  C 763.87 597.22 763.78 595.38 764.08 593.67
  Q 766.58 579.42 769.52 565.26
  C 769.94 563.22 769.76 561.02 770.22 558.84
  Q 772.65 547.36 775.02 536.67
  Q 775.42 534.87 775.85 532.87
  Q 778.35 521.37 781.24 509.65
  Q 781.46 508.74 781.65 507.79
  Q 783.13 500.53 785.76 492.77
  C 786.90 489.44 787.05 485.73 788.25 482.42
  Q 790.40 476.47 791.94 470.64
  Q 793.85 463.40 795.72 458.50
  Q 797.52 453.74 798.82 449.14
  C 800.19 444.26 802.25 439.62 803.82 434.88
  Q 805.67 429.31 807.66 424.43
  Q 809.73 419.33 811.84 414.03
  Q 819.38 395.06 829.52 374.53
  Q 831.61 370.30 834.03 365.53
  Q 845.16 343.48 860.55 319.76
  Q 861.70 317.99 862.96 316.31
  Q 864.08 314.81 862.34 315.50
  Q 859.62 316.58 857.22 317.77
  Q 843.99 324.31 831.18 331.73
  Q 792.73 354.01 763.34 387.95
  Q 750.84 402.38 742.15 414.43
  Q 736.98 421.60 732.38 427.00
  Q 730.05 429.73 727.68 432.57
  Q 726.99 433.39 727.98 432.99
  Q 731.45 431.56 734.90 429.66
  C 737.45 428.26 740.35 427.66 742.95 426.21
  Q 746.93 424.00 751.03 422.56
  C 755.23 421.08 758.76 419.35 762.70 417.87
  Q 764.93 417.02 767.74 416.46
  Q 770.21 415.97 772.82 414.93
  Q 775.50 413.87 773.73 416.14
  C 771.10 419.51 769.51 423.49 767.42 426.98
  Q 765.60 430.02 764.41 432.80
  C 762.24 437.82 759.61 442.60 757.69 447.73
  C 755.76 452.90 753.48 457.80 751.71 463.07
  Q 749.48 469.73 746.78 476.58
  C 746.11 478.28 746.01 480.23 745.41 481.95
  Q 743.07 488.59 740.97 495.10
  C 740.52 496.47 740.52 498.06 740.13 499.33
  Q 737.59 507.61 735.05 515.90
  C 734.41 518.00 734.35 520.28 733.77 522.29
  Q 730.99 531.94 729.10 539.20
  C 728.54 541.33 728.48 543.51 727.94 545.69
  C 726.11 553.06 723.84 560.51 722.71 568.09
  Q 722.24 571.22 721.42 574.45
  Q 718.92 584.41 716.93 593.92
  C 716.67 595.17 716.91 596.33 716.63 597.57
  Q 714.21 608.17 711.84 619.03
  C 711.33 621.35 711.55 623.82 710.16 625.84
  C 707.99 628.96 705.54 631.23 701.90 632.84
  Q 697.89 634.62 693.71 636.63
  C 689.17 638.81 684.51 640.52 679.90 642.95
  C 676.93 644.51 673.70 645.23 670.93 646.93
  C 667.50 649.03 663.06 649.55 659.88 647.02
  C 655.15 643.27 655.25 638.64 654.78 633.19
  Q 653.00 612.39 652.37 595.99
  C 652.16 590.50 652.31 584.82 652.10 579.33
  Q 651.29 558.29 650.86 536.50
  Q 649.52 467.17 650.10 407.00
  Q 650.55 360.13 650.78 305.75
  Q 650.78 305.24 650.46 304.86
  C 647.10 300.83 643.08 297.24 639.54 293.41
  Q 638.90 292.71 639.80 293.00
  Q 643.20 294.12 645.71 295.90
  C 649.85 298.83 654.56 300.53 658.48 303.65
  C 660.18 305.00 662.14 305.62 663.76 307.01
  Q 664.94 308.03 666.19 308.95
  Q 677.22 317.13 686.34 326.15
  Q 687.88 327.67 687.42 325.56
  Q 684.82 313.70 681.99 300.26
  C 681.56 298.21 681.60 296.22 681.19 294.22
  Q 679.52 286.11 677.22 276.43
  C 676.14 271.89 675.76 267.34 674.60 262.77
  Q 672.51 254.54 670.26 246.06
  C 669.76 244.16 669.83 242.25 669.20 240.35
  Q 666.41 231.88 664.19 223.26
  C 662.87 218.14 660.83 213.52 659.30 208.66
  Q 657.60 203.24 655.38 197.87
  Q 650.46 185.94 646.01 173.83
  C 644.61 170.01 642.70 166.46 641.33 162.70
  C 639.30 157.12 636.54 152.02 634.47 146.62
  C 632.96 142.68 630.48 139.35 628.91 135.38
  C 627.94 132.96 626.45 130.66 624.92 128.48
  A 0.45 0.45 0.0 0 0 624.14 128.55
  C 622.03 133.12 619.35 137.17 617.36 141.77
  Q 615.30 146.55 612.55 151.83
  C 611.52 153.82 611.04 155.97 610.10 158.07
  C 604.97 169.66 600.62 181.72 595.69 193.67
  Q 591.46 203.93 589.08 211.55
  Q 586.37 220.23 583.31 229.09
  C 582.13 232.52 581.84 236.13 580.72 239.61
  Q 578.40 246.84 576.84 254.77
  C 575.04 263.93 572.69 272.70 570.78 281.52
  C 570.44 283.09 570.66 284.58 570.31 286.15
  Q 567.79 297.25 565.59 307.49
  Q 564.66 311.86 564.11 316.46
  Q 563.55 321.07 562.19 325.71
  Q 562.06 326.13 562.31 326.48
  A 0.26 0.25 -39.8 0 0 562.70 326.51
  Q 568.51 320.73 574.89 315.62
  C 576.69 314.18 578.19 312.56 580.19 311.32
  C 582.10 310.13 583.59 308.46 585.53 307.19
  Q 590.44 303.98 595.35 300.62
  C 596.49 299.84 598.07 299.39 599.40 298.48
  Q 603.40 295.75 607.39 293.91
  Q 608.52 293.39 609.94 293.34
  Q 610.64 293.31 610.03 293.67"
/>
<path stroke="#d3671c" vector-effect="non-scaling-stroke" d="
  M 657.28 768.57
  A 0.84 0.84 0.0 0 0 656.44 767.73
  L 593.44 767.73
  A 0.84 0.84 0.0 0 0 592.60 768.57
  L 592.60 789.61
  A 0.84 0.84 0.0 0 0 593.44 790.45
  L 656.44 790.45
  A 0.84 0.84 0.0 0 0 657.28 789.61
  L 657.28 768.57"
/>
<path stroke="#d3671c" vector-effect="non-scaling-stroke" d="
  M 650.00 799.24
  A 0.52 0.52 0.0 0 0 649.48 798.72
  L 600.08 798.72
  A 0.52 0.52 0.0 0 0 599.56 799.24
  L 599.56 814.20
  A 0.52 0.52 0.0 0 0 600.08 814.72
  L 649.48 814.72
  A 0.52 0.52 0.0 0 0 650.00 814.20
  L 650.00 799.24"
/>
<path stroke="#d3671c" vector-effect="non-scaling-stroke" d="
  M 593.25 823.58
  A 0.44 0.44 0.0 0 0 592.81 824.05
  L 594.35 844.99
  A 0.44 0.44 0.0 0 0 594.79 845.40
  L 654.25 845.40
  A 0.44 0.44 0.0 0 0 654.68 845.01
  L 657.04 824.07
  A 0.44 0.44 0.0 0 0 656.60 823.58
  L 593.25 823.58"
/>
<path stroke="#d3671c" vector-effect="non-scaling-stroke" d="
  M 596.52 854.19
  Q 596.17 854.08 595.99 854.49
  A 0.65 0.54 -39.9 0 0 595.94 854.77
  Q 597.59 868.95 599.39 883.52
  C 599.74 886.34 599.62 889.52 599.98 892.52
  Q 602.71 915.34 605.64 939.85
  C 605.91 942.10 605.75 944.52 606.02 946.74
  Q 608.58 968.38 611.06 989.78
  Q 611.25 991.42 611.32 993.76
  Q 611.38 995.91 611.54 997.23
  Q 614.53 1021.87 617.39 1045.10
  Q 617.56 1046.55 617.55 1047.91
  Q 617.54 1049.74 617.70 1051.23
  Q 619.56 1068.72 621.83 1086.54
  C 622.85 1094.61 623.16 1102.66 624.19 1110.83
  Q 624.58 1113.90 624.94 1110.82
  Q 626.83 1094.24 628.75 1078.85
  C 629.09 1076.12 628.87 1073.26 629.21 1070.59
  Q 632.01 1048.73 634.82 1023.43
  Q 635.03 1021.53 635.14 1018.90
  Q 635.23 1016.66 635.50 1014.51
  Q 637.95 994.56 640.44 973.25
  C 640.74 970.70 640.60 968.00 640.90 965.59
  Q 643.67 942.74 646.46 919.89
  Q 646.67 918.12 646.72 916.09
  Q 646.78 913.79 646.97 912.09
  Q 649.37 890.38 651.84 870.61
  C 652.47 865.58 652.08 860.27 653.38 855.03
  A 0.60 0.59 6.8 0 0 652.80 854.30
  Q 624.48 854.25 596.94 854.25
  Q 596.73 854.25 596.52 854.19"
/>
</g>
<path fill="#a70438" d="
  M 560.03 775.30
  L 559.50 789.55
  Q 559.48 790.02 559.29 790.45
  Q 558.82 791.51 558.84 792.64
  Q 558.91 797.80 558.89 802.69
  Q 558.88 805.06 558.47 807.60
  Q 558.21 809.22 558.25 810.89
  Q 558.30 812.51 558.05 814.07
  Q 557.68 816.41 557.80 818.92
  C 557.92 821.40 557.21 823.67 557.27 826.21
  Q 557.33 828.52 556.96 830.76
  Q 556.64 832.69 556.72 834.52
  Q 556.79 836.01 556.57 837.47
  Q 556.07 840.90 556.33 844.46
  C 556.38 845.09 556.29 845.61 555.90 846.12
  Q 555.56 846.58 555.56 847.15
  C 555.59 849.66 555.69 852.10 555.25 854.60
  C 554.82 857.10 555.06 859.60 554.77 862.19
  C 554.43 865.23 554.72 868.07 554.11 871.17
  C 553.67 873.45 554.11 875.71 553.60 878.05
  Q 552.97 880.95 553.46 884.13
  Q 553.53 884.55 553.30 884.91
  Q 552.88 885.59 552.87 886.32
  C 552.79 891.30 553.25 897.26 552.44 902.52
  C 552.10 904.71 552.41 906.83 552.05 909.14
  Q 551.77 911.02 551.82 912.96
  Q 551.89 915.22 551.50 917.52
  Q 551.02 920.39 551.36 923.39
  Q 551.46 924.29 550.90 925.07
  Q 550.58 925.50 550.58 926.03
  Q 550.59 928.00 550.58 929.76
  C 550.58 932.89 549.89 935.81 550.10 938.93
  C 550.20 940.37 549.52 941.50 549.60 942.94
  Q 549.76 945.81 549.26 948.58
  C 548.72 951.55 549.28 954.43 548.57 957.42
  Q 548.14 959.23 548.59 961.24
  Q 548.88 962.56 547.53 962.57
  L 545.91 962.59
  A 1.32 1.32 0.0 0 1 544.59 961.43
  L 539.40 917.91
  A 0.76 0.60 38.0 0 0 539.36 917.75
  Q 538.74 916.52 539.12 915.01
  Q 539.25 914.51 539.02 914.05
  C 538.82 913.64 538.60 913.38 538.55 912.90
  Q 538.25 909.76 537.91 906.51
  Q 537.87 906.15 537.67 905.86
  Q 537.57 905.71 537.49 905.55
  Q 537.33 905.24 537.38 904.89
  Q 537.73 902.58 536.77 900.61
  Q 536.54 900.12 536.70 899.61
  L 536.89 899.06
  Q 537.05 898.57 536.79 898.13
  C 535.84 896.50 536.64 895.27 536.08 893.88
  Q 536.01 893.72 535.89 893.59
  A 0.76 0.74 27.4 0 1 535.67 892.92
  Q 535.92 891.66 535.55 890.43
  C 534.87 888.14 535.18 885.30 535.16 882.88
  Q 535.16 882.34 534.86 881.89
  C 534.75 881.73 534.66 881.47 534.68 881.28
  Q 534.86 879.50 534.23 877.98
  A 2.01 1.97 -53.9 0 1 534.09 877.02
  Q 534.25 875.45 533.90 873.95
  C 533.28 871.27 533.27 868.72 532.74 866.25
  C 532.31 864.24 532.64 862.34 531.74 860.46
  Q 531.52 859.99 531.72 859.51
  Q 532.16 858.48 531.52 857.59
  A 1.84 1.84 0.0 0 1 531.20 856.35
  Q 531.34 854.94 530.84 853.66
  A 2.58 2.52 39.4 0 1 530.70 852.37
  Q 530.91 850.93 530.32 849.63
  A 0.77 0.62 -65.3 0 1 530.26 849.39
  L 529.11 834.94
  Q 529.07 834.49 528.89 834.06
  C 528.42 832.98 528.57 832.04 528.40 830.93
  Q 527.50 825.27 526.80 819.39
  Q 526.70 818.53 526.43 817.67
  Q 526.20 816.91 526.38 816.10
  Q 526.50 815.58 526.30 815.09
  C 525.51 813.13 525.84 811.37 525.31 809.31
  Q 525.05 808.30 525.17 807.25
  Q 525.23 806.72 525.04 806.22
  Q 524.50 804.84 524.70 803.32
  Q 524.77 802.77 524.56 802.26
  C 523.93 800.75 524.62 798.83 523.83 797.70
  Q 523.55 797.29 523.55 796.79
  L 523.60 791.07
  Q 523.60 790.82 523.49 790.59
  Q 523.40 790.43 523.29 790.28
  Q 523.22 790.20 523.21 790.10
  Q 522.41 784.69 521.90 779.52
  Q 521.86 779.16 521.67 778.87
  Q 521.58 778.72 521.50 778.56
  Q 521.33 778.23 521.39 777.86
  Q 521.72 775.64 520.83 773.72
  Q 520.55 773.11 520.75 772.48
  L 520.89 772.03
  Q 521.05 771.50 520.76 771.03
  Q 519.92 769.64 520.18 767.95
  A 1.24 1.20 -56.0 0 0 520.04 767.15
  C 519.37 766.00 519.85 764.59 519.58 763.28
  Q 519.16 761.27 519.09 759.07
  C 519.08 758.59 518.95 758.21 518.64 757.84
  Q 518.34 757.49 518.50 757.06
  Q 519.04 755.55 518.23 754.02
  Q 517.98 753.54 518.06 753.02
  C 518.28 751.43 517.57 750.14 517.52 748.55
  Q 517.31 741.62 516.19 734.88
  C 516.01 733.82 515.33 733.14 515.86 732.01
  Q 516.09 731.52 515.79 731.07
  C 514.83 729.68 515.28 727.95 515.03 726.32
  Q 514.42 722.37 513.81 718.19
  C 513.63 716.92 513.96 715.70 513.27 714.55
  Q 513.00 714.10 513.04 713.59
  L 513.21 711.40
  A 0.54 0.54 0.0 0 0 512.75 710.82
  L 512.41 710.78
  Q 512.11 710.74 512.09 711.05
  Q 511.93 713.41 509.89 714.84
  A 2.12 2.10 -6.4 0 0 509.19 715.71
  C 508.32 717.76 506.80 719.14 505.86 721.11
  C 504.20 724.57 501.90 727.64 500.09 731.12
  Q 497.97 735.18 495.39 738.99
  C 494.35 740.53 494.23 742.49 493.09 743.86
  Q 491.57 745.67 490.80 747.93
  Q 490.57 748.59 490.04 749.03
  Q 488.55 750.27 488.30 751.89
  C 487.92 754.37 486.14 756.69 484.89 758.81
  Q 484.62 759.28 484.11 759.47
  C 481.77 760.37 480.27 758.03 481.47 755.94
  A 1.76 1.72 -30.4 0 0 481.71 755.06
  L 481.61 746.73
  Q 481.61 746.34 481.88 746.05
  Q 481.98 745.95 482.06 745.82
  Q 482.16 745.68 482.16 745.51
  Q 482.24 730.26 482.12 715.11
  C 482.11 714.32 481.73 713.69 481.72 712.98
  Q 481.62 707.50 481.64 701.88
  Q 481.64 701.37 481.41 700.91
  Q 480.96 700.04 481.04 699.10
  Q 481.38 695.11 480.75 691.54
  Q 480.44 689.77 480.45 687.90
  C 480.48 685.61 479.82 683.50 480.02 681.27
  Q 480.16 679.70 479.75 678.32
  C 479.04 675.90 479.90 673.49 479.01 671.14
  Q 478.41 669.58 478.87 667.88
  Q 479.05 667.23 478.74 666.63
  C 477.75 664.71 478.44 662.91 477.92 660.79
  Q 477.62 659.56 477.67 658.20
  Q 477.72 656.86 477.33 655.33
  C 476.99 654.00 477.32 652.67 477.04 651.28
  Q 476.40 648.14 476.75 644.46
  Q 476.80 643.96 476.60 643.50
  C 475.94 641.96 476.30 640.51 475.90 638.86
  Q 475.08 635.48 475.02 631.99
  Q 475.01 631.24 474.57 630.60
  Q 474.28 630.19 474.37 629.70
  Q 474.71 627.95 473.96 626.29
  Q 473.73 625.78 473.82 625.22
  Q 474.08 623.74 473.33 622.30
  Q 473.03 621.72 473.32 621.15
  Q 473.70 620.39 473.01 619.92
  Q 472.55 619.61 472.65 619.06
  Q 472.89 617.69 472.54 616.32
  Q 472.20 615.01 472.03 613.67
  Q 471.80 611.69 471.38 609.68
  C 470.96 607.70 471.21 605.79 471.18 603.81
  Q 471.17 603.21 470.68 602.86
  Q 470.21 602.54 470.53 602.01
  Q 470.82 601.54 470.63 601.03
  C 470.09 599.56 470.18 598.13 469.63 596.72
  Q 469.16 595.52 469.52 594.18
  Q 469.67 593.57 469.21 593.15
  L 469.00 592.96
  Q 468.58 592.59 468.82 592.07
  Q 469.32 591.01 468.45 590.16
  Q 468.07 589.78 468.24 589.28
  C 468.71 587.86 467.72 586.76 467.53 585.58
  Q 466.71 580.50 465.84 575.42
  Q 465.64 574.24 465.28 573.11
  C 464.68 571.26 465.69 569.45 464.57 567.68
  A 1.45 1.43 31.5 0 1 464.35 566.79
  Q 464.36 566.61 464.41 566.44
  Q 464.46 566.27 464.43 566.09
  Q 463.44 560.29 461.82 554.51
  C 461.59 553.68 461.90 553.04 461.59 552.29
  Q 460.97 550.77 460.81 549.04
  Q 460.64 547.22 460.06 545.51
  Q 459.02 542.43 458.97 539.13
  C 458.94 537.28 458.28 535.69 458.07 533.82
  Q 458.00 533.24 457.63 532.81
  Q 456.91 531.97 457.37 531.03
  Q 457.62 530.53 457.23 530.13
  Q 457.11 530.01 456.98 529.92
  Q 456.73 529.73 456.72 529.42
  Q 456.67 527.49 455.83 525.62
  C 455.49 524.84 455.91 524.45 455.69 523.71
  Q 454.75 520.52 453.95 517.16
  Q 453.37 514.75 453.32 512.24
  Q 453.29 510.62 452.56 508.70
  Q 451.96 507.13 451.54 505.34
  Q 449.84 497.94 447.75 490.67
  C 447.26 488.98 447.75 487.46 446.89 485.93
  Q 446.67 485.54 446.86 485.13
  Q 447.16 484.50 446.74 483.91
  Q 446.56 483.66 446.47 483.36
  L 442.35 469.54
  Q 442.24 469.18 441.96 468.92
  Q 441.58 468.58 441.81 468.09
  Q 442.05 467.59 441.88 467.05
  Q 440.34 462.32 439.79 460.97
  Q 437.46 455.26 436.12 451.04
  Q 434.52 446.02 433.26 443.25
  Q 431.54 439.46 429.83 435.67
  Q 429.55 435.05 429.70 434.38
  Q 429.82 433.84 429.58 433.35
  L 425.72 425.15
  A 0.61 0.55 -60.7 0 1 425.66 424.89
  Q 425.62 423.99 425.08 423.21
  C 424.18 421.93 424.28 420.69 423.64 419.31
  Q 420.93 413.45 418.18 407.79
  Q 418.05 407.51 418.07 407.20
  Q 418.09 407.04 418.10 406.88
  Q 418.12 406.74 418.05 406.62
  Q 416.32 403.19 414.62 399.79
  Q 413.32 397.20 412.07 394.10
  Q 410.89 391.20 409.40 388.42
  Q 407.80 385.44 405.98 381.41
  Q 404.84 378.87 403.48 376.68
  Q 402.04 374.33 401.18 371.96
  Q 399.97 368.57 397.98 365.47
  Q 396.13 362.58 394.87 359.40
  C 393.25 355.29 390.73 351.57 388.79 347.44
  Q 386.44 342.46 383.45 337.83
  Q 382.74 336.72 382.58 335.47
  Q 382.51 334.96 382.23 334.54
  Q 379.27 330.23 377.29 325.91
  C 375.93 322.94 374.09 319.95 372.30 317.19
  Q 371.51 315.97 371.15 314.60
  C 370.58 312.46 369.06 311.56 368.16 309.74
  C 367.62 308.62 367.23 307.55 366.39 306.62
  C 365.40 305.52 365.59 304.13 364.73 302.85
  C 363.62 301.19 362.23 299.42 361.29 297.56
  Q 358.33 291.67 355.14 287.09
  C 353.58 284.87 353.50 282.20 351.16 280.51
  Q 350.66 280.15 351.21 279.86
  L 351.66 279.62
  A 0.71 0.71 0.0 0 1 352.48 279.73
  L 353.30 280.53
  Q 353.68 280.89 354.18 281.03
  Q 360.94 282.90 365.76 285.77
  Q 368.84 287.60 371.14 288.09
  Q 372.85 288.46 375.87 290.44
  Q 378.34 292.07 381.09 293.19
  Q 387.01 295.60 392.20 299.10
  Q 393.11 299.71 394.19 299.76
  Q 394.71 299.79 395.12 300.11
  Q 397.40 301.90 400.10 303.07
  Q 400.55 303.27 400.62 303.77
  Q 400.70 304.32 401.25 304.43
  Q 404.72 305.16 407.83 307.74
  Q 408.22 308.07 408.73 308.17
  Q 409.57 308.34 410.09 309.03
  Q 410.45 309.52 411.05 309.61
  Q 411.97 309.75 412.56 310.51
  A 2.27 2.27 0.0 0 0 413.55 311.25
  Q 416.63 312.42 418.66 314.59
  Q 419.04 315.00 419.59 315.15
  Q 421.12 315.58 422.10 316.87
  A 0.90 0.89 64.3 0 0 423.04 317.20
  Q 423.86 316.98 424.35 317.66
  Q 424.65 318.08 425.05 318.39
  Q 427.78 320.45 430.99 322.49
  Q 434.67 324.83 437.96 327.62
  Q 439.36 328.80 441.23 329.30
  Q 441.84 329.46 441.88 330.09
  Q 441.92 330.87 442.69 331.06
  Q 443.21 331.19 443.59 331.58
  Q 444.09 332.10 444.93 332.62
  Q 447.93 334.47 450.30 336.56
  Q 453.00 338.95 455.82 341.03
  Q 458.80 343.24 461.47 346.09
  Q 461.87 346.52 462.44 346.65
  Q 464.11 347.03 465.03 348.74
  Q 465.32 349.28 465.81 349.64
  Q 470.15 352.78 473.79 356.75
  C 474.74 357.79 475.92 358.21 476.89 359.16
  Q 485.37 367.49 493.49 375.81
  C 494.21 376.56 494.48 377.57 495.33 378.33
  Q 499.55 382.09 502.64 386.60
  Q 503.14 387.32 503.99 387.63
  Q 504.64 387.86 504.94 388.48
  Q 506.31 391.31 508.42 393.17
  Q 510.16 394.70 511.26 396.57
  Q 512.76 399.12 514.26 400.57
  Q 517.05 403.26 520.64 409.14
  Q 521.14 409.95 521.93 410.68
  Q 523.01 411.69 523.25 412.25
  Q 524.23 414.63 526.14 416.98
  Q 528.75 420.19 530.63 423.76
  Q 532.21 426.76 534.93 429.87
  Q 535.43 430.44 535.37 431.16
  A 1.44 1.43 -58.7 0 0 535.59 432.08
  Q 537.94 435.71 540.40 439.78
  Q 541.17 441.06 541.60 442.52
  Q 542.17 444.44 543.31 446.00
  C 544.41 447.49 545.13 449.20 546.10 450.81
  Q 546.86 452.07 547.14 453.51
  C 547.66 456.12 548.77 458.18 549.91 460.46
  Q 551.03 462.71 549.02 461.20
  Q 546.61 459.39 543.88 457.83
  Q 543.44 457.58 542.95 457.60
  Q 542.45 457.62 542.08 457.28
  C 540.23 455.60 537.88 454.91 535.88 453.45
  Q 533.72 451.89 531.15 451.13
  C 530.28 450.87 530.18 450.17 529.50 449.89
  Q 526.08 448.44 523.22 446.39
  C 522.44 445.83 521.75 446.03 521.08 445.70
  Q 515.77 443.13 510.76 440.09
  A 2.26 2.16 62.3 0 0 509.84 439.78
  Q 508.87 439.68 508.02 439.24
  Q 502.88 436.57 497.65 434.00
  Q 496.89 433.62 497.13 434.44
  Q 497.41 435.37 498.06 436.14
  Q 498.47 436.63 498.52 437.27
  Q 498.64 439.03 499.88 440.03
  Q 500.24 440.32 500.27 440.78
  Q 500.47 443.03 501.60 444.97
  C 502.98 447.36 503.76 450.35 505.31 452.53
  Q 505.96 453.46 505.87 454.62
  Q 505.82 455.25 506.15 455.78
  Q 506.48 456.31 506.60 456.94
  Q 506.69 457.45 506.99 457.88
  Q 508.25 459.67 508.67 461.85
  Q 508.84 462.72 509.48 463.17
  A 0.91 0.90 -70.6 0 1 509.85 463.96
  C 509.79 464.89 510.56 465.48 510.87 466.41
  Q 512.17 470.32 513.46 474.01
  Q 513.63 474.49 514.83 476.91
  Q 515.54 478.33 515.79 479.99
  Q 515.87 480.47 516.17 480.86
  C 516.98 481.89 517.79 483.60 517.56 484.95
  Q 517.47 485.46 517.81 485.83
  Q 518.10 486.16 518.26 486.58
  Q 520.76 493.18 523.42 500.01
  C 523.74 500.84 523.36 501.65 523.66 502.37
  Q 526.30 508.78 528.50 515.20
  C 528.97 516.59 530.15 517.87 529.65 519.34
  Q 529.44 519.98 529.85 520.51
  C 531.35 522.46 531.26 524.92 532.16 527.20
  Q 533.75 531.23 535.20 535.47
  Q 535.37 535.98 535.28 536.51
  C 534.98 538.33 536.06 538.45 536.31 539.74
  Q 536.35 539.95 536.32 540.16
  Q 536.26 540.56 536.39 540.95
  Q 538.70 547.83 540.88 554.73
  Q 541.31 556.07 541.38 557.35
  Q 541.46 558.77 541.83 560.00
  Q 544.77 569.68 547.30 579.00
  C 547.48 579.66 547.15 580.56 547.35 581.34
  Q 548.32 585.12 549.11 588.68
  Q 549.19 589.05 549.43 589.35
  Q 549.77 589.76 549.60 590.25
  Q 549.44 590.72 549.56 591.19
  Q 550.34 594.10 551.28 597.03
  Q 552.36 600.40 552.79 603.35
  C 553.30 606.92 554.58 612.16 557.46 614.65
  Q 558.84 615.84 560.12 617.37
  Q 561.63 619.18 566.01 620.98
  Q 569.43 622.38 576.58 626.70
  Q 577.02 626.97 577.55 626.96
  C 579.22 626.92 579.92 628.34 581.70 628.49
  Q 582.22 628.54 582.21 628.02
  Q 582.14 620.56 582.19 612.88
  Q 582.19 612.50 582.36 612.15
  Q 582.47 611.94 582.58 611.73
  Q 582.71 611.50 582.71 611.24
  Q 582.70 605.48 582.70 599.84
  Q 582.70 599.50 582.85 599.20
  Q 582.95 599.01 583.05 598.82
  Q 583.17 598.60 583.17 598.35
  Q 583.17 592.36 583.19 587.03
  C 583.19 585.94 583.68 585.00 583.69 583.90
  Q 583.73 578.53 583.66 572.99
  C 583.65 571.59 584.26 570.49 584.30 569.14
  Q 584.42 564.70 584.26 557.09
  A 0.85 0.82 64.8 0 1 584.45 556.53
  Q 584.85 556.02 584.86 554.91
  Q 584.86 548.15 584.90 541.39
  Q 584.90 541.05 584.79 540.71
  Q 584.67 540.35 584.98 540.14
  Q 585.44 539.83 585.44 539.28
  Q 585.42 531.59 585.47 523.49
  C 585.47 522.15 585.91 521.01 585.94 519.66
  Q 586.06 511.77 585.98 503.78
  Q 585.97 502.52 586.44 501.34
  C 586.85 500.31 586.40 499.04 586.41 497.89
  Q 586.46 487.69 586.42 477.74
  C 586.42 476.10 587.14 474.80 587.14 473.23
  Q 587.12 436.58 587.14 399.94
  C 587.14 398.89 586.44 398.29 586.44 397.26
  Q 586.43 387.39 586.43 378.07
  C 586.43 377.24 586.00 376.63 586.00 375.75
  Q 586.02 369.42 585.96 363.44
  C 585.95 361.97 585.47 360.70 585.46 359.19
  Q 585.44 353.44 585.40 347.99
  C 585.39 346.68 584.89 345.47 584.88 344.15
  Q 584.83 338.79 584.91 333.31
  A 0.80 0.79 -67.0 0 0 584.69 332.76
  L 584.37 332.44
  Q 584.20 332.27 584.21 332.03
  L 584.36 329.09
  Q 584.45 327.19 582.99 328.40
  Q 566.88 341.69 554.61 351.87
  Q 551.08 354.80 547.45 357.66
  C 545.70 359.03 544.27 360.54 542.29 361.65
  Q 541.58 362.05 541.66 361.24
  C 541.80 359.74 541.44 358.47 542.05 356.99
  Q 542.82 355.15 542.28 352.98
  Q 542.16 352.48 542.44 352.03
  Q 543.05 351.06 542.94 349.97
  Q 542.83 348.93 542.96 347.87
  Q 543.93 339.93 545.05 333.66
  A 2.45 1.96 -70.8 0 0 545.09 333.32
  Q 545.58 328.39 546.44 323.58
  Q 546.71 322.05 547.12 320.48
  Q 547.64 318.48 547.20 315.94
  Q 547.09 315.35 547.48 314.89
  Q 548.07 314.19 547.90 313.36
  Q 547.76 312.73 547.92 312.10
  Q 549.12 307.36 549.87 302.51
  A 6.40 4.19 89.5 0 1 550.05 301.65
  Q 551.44 296.40 552.21 291.20
  A 1.64 1.64 0.0 0 1 552.61 290.34
  Q 553.13 289.74 552.88 289.00
  Q 552.24 287.12 553.26 285.65
  Q 553.56 285.22 553.49 284.70
  Q 553.47 284.52 553.44 284.34
  Q 553.41 284.15 553.47 283.95
  Q 555.78 275.89 557.54 267.87
  Q 557.91 266.18 558.61 264.53
  Q 559.12 263.34 559.03 262.01
  Q 558.96 260.78 559.39 259.60
  Q 560.44 256.72 561.13 253.62
  Q 561.74 250.83 562.74 247.94
  Q 563.71 245.13 564.40 242.26
  C 564.55 241.61 564.28 241.19 564.51 240.49
  Q 567.31 232.07 569.98 223.66
  Q 570.49 222.08 570.60 220.30
  C 570.70 218.74 571.83 217.28 572.28 215.78
  Q 574.07 209.85 576.44 204.29
  C 576.73 203.60 576.77 203.02 576.66 202.30
  A 1.39 1.38 58.8 0 1 576.90 201.30
  C 578.06 199.64 578.10 197.61 578.94 195.77
  Q 580.44 192.47 581.71 188.91
  C 582.33 187.18 582.43 185.45 583.18 183.73
  Q 585.47 178.48 587.73 173.26
  Q 588.32 171.91 588.60 170.35
  Q 588.81 169.20 589.59 168.15
  C 590.35 167.11 590.52 165.88 591.22 164.74
  Q 592.99 161.85 593.78 158.57
  A 1.93 1.85 -17.2 0 1 594.24 157.74
  Q 595.06 156.85 595.22 155.63
  Q 595.28 155.10 595.58 154.66
  Q 597.55 151.73 598.81 148.46
  A 1.02 1.02 0.0 0 1 599.21 147.97
  Q 599.78 147.59 599.75 146.91
  Q 599.73 146.33 599.97 145.79
  Q 602.70 139.96 605.84 134.61
  Q 606.03 134.30 605.89 133.95
  Q 605.71 133.48 605.97 133.04
  Q 608.65 128.62 611.05 124.01
  C 611.56 123.03 611.28 122.19 611.72 121.47
  Q 614.59 116.76 617.24 111.67
  Q 617.47 111.23 617.44 110.73
  Q 617.40 110.00 617.71 109.49
  Q 620.25 105.27 622.63 100.93
  C 623.16 99.98 623.08 99.05 623.51 98.06
  Q 624.57 95.64 625.53 98.11
  C 626.48 100.56 628.14 102.78 629.16 104.95
  Q 630.63 108.08 632.05 111.04
  C 632.39 111.76 632.92 111.97 633.29 112.64
  Q 634.65 115.10 635.47 117.67
  C 636.01 119.37 637.23 120.65 637.76 122.30
  Q 638.04 123.17 638.65 123.89
  Q 639.85 125.28 640.35 127.10
  Q 640.79 128.70 641.62 130.25
  Q 644.14 134.97 646.38 139.42
  Q 646.79 140.24 646.91 141.18
  C 647.02 142.07 647.85 142.76 648.27 143.62
  Q 650.30 147.81 652.17 151.45
  C 652.36 151.84 652.31 152.07 652.33 152.47
  Q 652.35 152.70 652.45 152.91
  Q 655.18 158.48 657.93 163.75
  C 658.39 164.62 658.22 165.29 658.62 166.19
  Q 661.09 171.76 663.85 177.66
  C 664.41 178.85 664.26 179.95 664.73 181.09
  C 666.42 185.22 668.21 189.34 669.59 193.71
  Q 672.31 202.28 675.58 210.64
  C 676.07 211.90 675.93 213.38 676.43 214.72
  Q 678.80 221.10 681.13 228.09
  Q 681.60 229.49 681.50 230.52
  Q 681.45 231.08 681.64 231.60
  Q 685.39 242.05 688.03 252.93
  Q 690.59 263.49 693.69 274.01
  Q 693.84 274.49 693.64 274.95
  Q 693.35 275.65 693.52 276.26
  Q 694.56 279.99 695.51 283.76
  Q 695.82 285.00 695.91 286.26
  C 695.99 287.38 696.67 288.49 696.93 289.63
  Q 697.62 292.62 698.09 295.48
  Q 698.16 295.88 698.38 296.23
  L 698.61 296.61
  Q 698.72 296.79 698.64 296.99
  Q 698.19 298.14 698.97 299.02
  Q 699.35 299.45 699.30 300.03
  Q 699.15 301.85 699.42 303.50
  Q 700.12 307.71 701.12 312.27
  C 701.40 313.58 701.12 314.70 701.79 315.94
  Q 702.04 316.43 701.94 316.97
  L 701.86 317.38
  Q 701.81 317.65 701.95 317.88
  C 702.82 319.40 702.52 321.12 702.88 322.83
  Q 703.40 325.27 703.72 327.91
  Q 703.81 328.62 704.12 329.23
  Q 704.35 329.69 704.12 330.19
  Q 703.87 330.74 704.18 331.25
  C 705.12 332.78 704.51 334.10 704.90 335.74
  C 705.56 338.43 705.17 341.28 705.58 344.07
  Q 706.11 347.77 706.37 351.55
  C 706.50 353.42 707.21 354.70 706.78 356.74
  A 1.49 1.43 -53.6 0 0 706.91 357.72
  Q 707.81 359.41 707.58 361.49
  A 0.59 0.58 21.8 0 1 706.64 361.89
  Q 705.48 361.00 704.87 359.84
  A 1.70 1.66 -0.8 0 0 704.10 359.11
  C 701.04 357.67 699.37 355.41 696.98 353.52
  Q 686.57 345.26 676.43 336.66
  C 676.01 336.30 675.92 335.94 675.60 335.51
  Q 675.43 335.27 675.15 335.15
  Q 671.81 333.62 669.75 330.83
  Q 669.47 330.45 669.00 330.41
  Q 668.37 330.36 668.27 329.74
  Q 668.16 329.13 667.56 329.04
  Q 666.63 328.90 665.76 328.43
  A 0.97 0.97 0.0 0 0 664.32 329.28
  Q 664.26 342.89 664.32 356.10
  Q 664.32 356.56 664.10 356.94
  Q 663.83 357.40 663.83 357.93
  Q 663.81 364.23 663.83 370.63
  C 663.83 371.64 663.25 372.21 663.26 373.00
  Q 663.33 381.40 663.29 390.25
  Q 663.29 390.58 663.09 390.96
  A 1.97 1.96 -30.8 0 0 662.85 391.90
  Q 662.93 408.53 662.73 427.25
  Q 662.65 434.57 662.71 442.73
  Q 662.89 465.01 662.85 484.02
  C 662.85 484.92 663.30 485.33 663.30 486.28
  Q 663.31 496.97 663.28 507.66
  Q 663.28 508.12 663.47 508.81
  Q 663.77 509.89 663.78 510.88
  Q 663.87 518.40 663.80 526.56
  Q 663.79 527.28 664.21 527.87
  Q 664.65 528.49 664.45 529.27
  Q 664.29 529.93 664.29 530.63
  Q 664.30 545.29 664.30 559.83
  C 664.30 560.96 664.89 561.56 664.90 562.82
  Q 664.93 568.23 664.87 574.21
  Q 664.86 574.79 665.16 575.30
  Q 665.54 575.96 665.54 576.68
  Q 665.55 582.83 665.59 588.60
  C 665.59 589.60 665.99 590.42 665.99 591.44
  Q 665.99 596.68 666.02 602.20
  A 1.53 1.51 27.4 0 0 666.31 603.09
  Q 666.58 603.47 666.58 603.75
  Q 666.57 608.02 666.57 612.28
  Q 666.56 615.04 667.02 617.27
  Q 667.72 620.64 667.00 624.51
  Q 666.91 625.03 667.26 625.42
  Q 668.17 626.45 667.53 627.72
  Q 667.18 628.41 667.95 628.31
  Q 669.06 628.16 669.81 627.43
  A 1.35 1.30 19.4 0 1 670.64 627.05
  Q 673.55 626.80 675.94 624.97
  C 677.20 624.01 678.73 623.67 679.94 622.69
  Q 682.30 620.80 685.17 620.28
  Q 685.66 620.20 686.02 619.85
  C 687.33 618.61 688.44 617.42 690.05 616.53
  C 691.88 615.52 693.68 613.83 693.82 611.72
  Q 693.89 610.82 694.41 610.01
  Q 694.85 609.35 695.08 608.51
  Q 696.56 603.03 698.31 597.82
  Q 699.16 595.31 699.23 592.68
  C 699.28 591.09 699.72 587.53 700.75 586.10
  Q 701.24 585.42 700.73 584.76
  A 0.41 0.41 0.0 0 1 700.86 584.15
  Q 701.77 583.64 701.47 582.63
  Q 701.34 582.19 701.47 581.76
  Q 703.40 575.53 704.85 569.35
  C 705.11 568.25 705.07 567.26 705.36 566.25
  Q 708.16 556.37 711.29 546.97
  Q 711.46 546.45 711.29 545.93
  Q 710.97 544.99 711.61 544.21
  Q 711.95 543.79 712.05 543.27
  Q 712.57 540.65 713.58 538.17
  Q 714.47 535.96 715.07 533.76
  Q 715.74 531.30 716.80 528.94
  Q 717.00 528.48 716.85 528.01
  Q 716.73 527.66 716.83 527.30
  Q 718.22 522.41 720.29 517.30
  Q 722.43 512.04 723.43 507.21
  Q 723.68 506.03 724.31 504.94
  Q 724.90 503.93 725.26 502.79
  Q 726.39 499.16 727.69 496.20
  C 728.69 493.92 728.91 491.38 729.95 489.04
  Q 730.99 486.72 731.85 484.28
  C 732.63 482.08 733.72 480.33 734.25 478.01
  Q 734.99 474.77 736.55 471.80
  Q 736.73 471.47 736.67 471.10
  A 0.91 0.91 0.0 0 1 736.76 470.53
  Q 738.45 467.34 739.96 463.96
  C 740.66 462.40 740.49 460.91 741.20 459.42
  Q 743.54 454.59 745.82 449.32
  C 746.15 448.54 746.07 447.90 746.40 447.19
  Q 748.77 442.07 751.39 437.03
  A 8.28 7.27 66.6 0 0 752.17 434.61
  Q 752.21 434.32 751.93 434.25
  Q 751.53 434.13 751.15 434.31
  Q 747.84 435.86 744.78 437.52
  Q 741.89 439.10 738.51 440.29
  Q 734.95 441.55 731.39 444.03
  Q 729.65 445.25 727.69 445.88
  C 724.12 447.01 721.48 449.51 718.15 450.92
  Q 716.76 451.51 715.52 452.35
  Q 714.17 453.25 712.68 453.75
  Q 712.12 453.94 711.74 454.39
  Q 710.82 455.45 709.57 455.86
  Q 708.91 456.08 708.43 456.59
  Q 707.46 457.64 706.00 457.57
  A 1.08 1.06 -64.4 0 0 705.20 457.86
  Q 702.77 460.11 699.79 461.27
  Q 698.77 461.67 699.19 460.66
  Q 702.02 453.96 704.76 448.55
  C 705.29 447.51 705.04 446.61 705.70 445.59
  Q 708.42 441.43 710.84 437.13
  C 711.44 436.06 711.56 434.81 712.43 433.57
  Q 714.60 430.45 716.72 426.91
  C 720.73 420.24 725.21 413.90 729.52 407.66
  C 730.90 405.66 732.82 404.18 733.95 402.07
  C 735.14 399.85 736.85 398.19 738.36 396.28
  C 753.74 376.84 771.85 359.07 790.72 343.24
  Q 792.83 341.46 794.91 339.93
  C 797.44 338.06 799.56 335.78 802.26 334.22
  C 803.91 333.26 805.12 331.93 806.65 330.84
  Q 811.17 327.60 815.47 324.44
  Q 817.69 322.81 820.30 321.23
  C 822.45 319.92 824.08 318.34 826.43 317.05
  Q 828.98 315.65 831.56 313.74
  Q 833.95 311.97 836.59 310.55
  C 840.19 308.60 843.52 306.21 847.24 304.40
  C 849.88 303.12 852.09 301.33 854.73 300.10
  Q 860.72 297.33 866.31 293.76
  A 1.40 1.36 30.4 0 1 867.17 293.55
  Q 868.19 293.65 868.96 292.86
  Q 869.42 292.38 870.06 292.18
  C 873.40 291.17 875.86 288.85 879.08 287.81
  Q 881.90 286.90 883.94 285.69
  Q 887.89 283.34 891.76 282.04
  Q 895.54 280.77 898.21 279.39
  Q 898.64 279.16 898.86 279.60
  Q 898.92 279.72 898.91 279.87
  Q 898.90 280.07 898.76 280.22
  Q 897.98 281.01 897.23 281.87
  Q 896.52 282.69 895.92 283.74
  Q 886.36 300.44 875.79 319.07
  Q 875.44 319.70 875.24 320.44
  Q 875.02 321.28 874.53 321.96
  Q 872.79 324.32 871.42 327.26
  C 870.71 328.77 869.65 329.44 869.22 331.16
  Q 868.74 333.03 867.53 334.75
  Q 865.36 337.84 863.79 341.45
  C 862.13 345.31 859.80 348.73 857.92 352.54
  Q 857.80 352.78 857.81 353.04
  Q 857.82 353.17 857.83 353.29
  Q 857.83 353.33 857.81 353.37
  L 852.24 363.32
  A 0.47 0.47 0.0 0 1 852.08 363.48
  Q 851.45 363.88 851.57 364.58
  Q 851.67 365.22 851.37 365.79
  L 846.32 375.30
  A 0.57 0.52 -88.7 0 1 846.09 375.54
  Q 845.40 375.90 845.63 376.71
  A 1.06 1.05 51.7 0 1 845.54 377.51
  C 841.29 385.49 838.75 391.93 834.92 399.08
  Q 834.09 400.64 833.64 402.33
  C 833.22 403.90 832.11 405.02 831.55 406.60
  Q 830.63 409.22 829.11 411.60
  C 828.47 412.62 828.43 413.96 827.95 415.05
  Q 825.61 420.26 823.21 425.43
  C 822.46 427.05 822.20 428.93 821.49 430.47
  Q 819.21 435.41 817.06 440.42
  C 816.22 442.39 816.15 444.44 815.20 446.33
  Q 814.02 448.69 813.41 451.13
  Q 813.30 451.56 812.94 451.83
  C 812.16 452.41 812.34 453.20 812.04 454.02
  C 811.04 456.79 810.55 459.79 809.58 462.35
  Q 808.14 466.15 806.71 469.95
  Q 805.99 471.85 805.89 473.05
  Q 805.85 473.57 805.55 474.01
  Q 804.07 476.22 804.81 478.45
  Q 804.97 478.93 804.66 479.34
  L 804.06 480.14
  Q 803.76 480.55 803.68 481.05
  Q 803.16 484.30 801.90 487.31
  Q 801.83 487.47 801.83 487.64
  Q 801.84 487.77 801.91 487.89
  A 0.37 0.35 35.3 0 1 801.97 488.19
  Q 800.73 493.23 799.39 497.85
  Q 798.92 499.45 799.20 501.25
  A 1.58 1.54 55.5 0 1 799.04 502.19
  Q 798.32 503.55 798.01 504.95
  Q 795.94 514.15 793.65 523.03
  Q 793.01 525.49 792.85 528.16
  Q 792.67 531.09 791.43 534.16
  Q 791.19 534.75 791.47 535.32
  Q 791.70 535.78 791.41 536.24
  Q 791.14 536.67 791.01 537.18
  Q 790.03 541.08 789.19 545.36
  Q 789.12 545.74 788.74 545.80
  Q 788.59 545.83 788.55 545.96
  Q 788.46 546.27 788.60 546.59
  Q 788.96 547.41 788.58 548.37
  Q 787.27 551.64 787.09 555.51
  Q 786.96 558.01 786.40 560.42
  Q 786.02 562.03 785.64 563.64
  Q 785.35 564.88 785.06 566.89
  Q 784.61 570.02 783.75 572.77
  C 783.52 573.50 783.59 573.58 783.71 574.28
  Q 783.81 574.81 783.46 575.23
  Q 782.83 576.01 783.10 576.90
  Q 783.23 577.32 783.09 577.74
  Q 781.31 583.14 781.61 589.08
  Q 781.64 589.53 781.28 589.80
  L 780.99 590.03
  A 0.49 0.49 0.0 0 0 780.82 590.60
  Q 781.15 591.47 780.82 592.31
  Q 780.53 593.05 780.38 593.93
  Q 778.31 606.02 776.36 618.19
  Q 776.29 618.63 776.02 618.98
  Q 775.69 619.41 775.87 619.92
  Q 776.08 620.50 775.91 621.09
  Q 774.83 624.71 775.51 628.39
  Q 775.58 628.78 775.45 629.15
  Q 775.33 629.49 775.07 629.75
  A 0.45 0.44 -20.6 0 0 774.96 629.98
  L 773.10 645.47
  A 0.29 0.27 -7.1 0 1 772.91 645.70
  Q 772.70 645.77 772.62 646.00
  Q 772.57 646.15 772.58 646.31
  Q 772.78 649.11 772.01 651.52
  Q 771.85 652.03 772.00 652.54
  L 772.19 653.16
  Q 772.34 653.67 772.12 654.14
  C 771.22 656.05 771.83 657.56 771.30 659.45
  Q 770.81 661.19 771.02 663.22
  Q 771.08 663.76 770.74 664.19
  Q 770.22 664.86 770.34 665.70
  Q 770.61 667.58 770.29 669.13
  Q 769.78 671.63 769.79 672.42
  C 769.83 675.83 770.12 679.69 769.46 683.13
  C 769.05 685.30 769.68 687.66 769.09 689.74
  C 768.45 691.97 769.00 694.46 768.64 696.77
  C 768.06 700.44 768.30 704.32 768.30 707.98
  C 768.30 708.93 767.67 709.36 767.67 710.27
  Q 767.66 728.60 767.69 747.38
  Q 767.69 748.04 767.51 748.61
  Q 767.26 749.38 767.88 749.89
  Q 768.31 750.23 768.30 750.78
  L 768.30 757.96
  A 1.78 1.77 89.3 0 1 766.58 759.73
  Q 763.74 759.83 763.79 757.01
  Q 763.80 756.35 763.23 755.99
  Q 762.78 755.71 762.56 755.23
  Q 760.75 751.18 758.16 747.57
  Q 757.67 746.89 757.59 745.44
  Q 757.56 744.90 757.20 744.49
  Q 755.40 742.43 754.35 740.08
  C 753.70 738.61 752.30 737.58 752.17 735.98
  A 2.11 2.09 -65.6 0 0 751.78 734.93
  Q 748.38 730.23 746.00 725.29
  C 744.69 722.57 742.67 720.24 741.03 717.71
  Q 740.62 717.07 740.55 716.29
  Q 740.51 715.82 740.17 715.49
  Q 738.56 713.92 737.40 711.88
  Q 736.45 710.20 736.13 712.11
  Q 735.04 718.57 734.60 725.27
  C 734.35 729.04 733.55 732.75 733.44 736.49
  A 1.94 1.92 60.9 0 1 733.18 737.42
  C 732.63 738.36 732.89 739.50 732.71 740.59
  Q 731.75 746.49 731.26 752.25
  Q 731.21 752.79 730.94 753.26
  Q 730.38 754.22 730.70 755.24
  Q 730.87 755.79 730.63 756.31
  Q 729.95 757.76 730.18 759.18
  Q 730.27 759.75 730.03 760.28
  Q 729.52 761.38 729.55 762.56
  Q 729.58 763.71 729.32 764.91
  Q 728.18 770.28 728.57 775.77
  Q 728.61 776.29 728.31 776.71
  Q 727.52 777.84 727.83 779.38
  Q 727.96 780.02 727.68 780.61
  Q 727.06 781.95 727.30 783.57
  Q 727.40 784.21 727.13 784.80
  Q 726.62 785.94 726.82 787.30
  Q 726.93 787.99 726.67 788.63
  Q 726.08 790.16 726.29 791.91
  Q 726.35 792.44 726.08 792.91
  Q 725.44 794.01 725.70 795.07
  Q 725.83 795.57 725.69 796.06
  L 725.19 797.78
  Q 725.04 798.32 725.13 798.87
  Q 725.32 800.02 724.79 801.11
  A 2.00 1.98 -32.5 0 0 724.58 802.04
  Q 724.61 803.71 724.27 805.35
  Q 723.80 807.67 723.63 810.18
  Q 723.49 812.19 723.07 814.22
  Q 722.75 815.78 722.85 817.58
  Q 722.93 819.11 722.68 820.72
  Q 721.86 826.01 721.26 831.25
  Q 720.84 835.00 720.22 838.60
  Q 719.54 842.60 719.12 846.16
  Q 718.44 851.98 717.50 857.55
  C 717.30 858.70 717.71 859.74 717.18 860.79
  C 716.33 862.46 716.92 866.53 716.63 868.62
  Q 714.41 884.49 712.11 901.01
  Q 711.61 904.58 711.35 908.50
  Q 711.08 912.39 710.52 915.93
  Q 710.24 917.67 710.32 918.84
  Q 710.35 919.31 710.16 919.75
  L 709.71 920.84
  Q 709.53 921.28 709.66 921.73
  Q 710.16 923.49 709.29 924.99
  A 1.54 1.51 -33.2 0 0 709.09 925.91
  Q 709.17 926.62 709.04 927.28
  Q 708.21 931.62 707.57 938.93
  C 707.46 940.20 706.52 941.57 706.84 942.70
  Q 706.98 943.22 706.84 943.75
  Q 705.97 947.07 705.88 950.16
  Q 705.84 951.32 705.41 952.29
  Q 705.20 952.77 705.24 953.29
  Q 705.58 958.08 704.69 962.30
  A 0.39 0.38 -83.3 0 1 704.32 962.60
  L 701.56 962.59
  A 0.83 0.82 10.8 0 1 700.79 961.46
  Q 701.31 960.18 700.44 959.05
  A 1.52 1.52 0.0 0 1 700.12 957.96
  Q 700.37 955.20 700.06 952.35
  Q 699.75 949.49 699.75 946.69
  Q 699.75 944.66 699.47 942.75
  C 698.88 938.81 699.17 934.61 699.19 930.59
  Q 699.19 928.23 698.84 926.15
  Q 698.57 924.56 698.70 922.84
  Q 698.82 921.21 698.44 919.70
  Q 697.96 917.77 698.13 915.54
  Q 698.30 913.27 697.74 911.09
  C 697.16 908.87 697.52 906.44 697.31 904.09
  Q 696.77 898.22 696.47 892.55
  Q 696.41 891.37 696.00 886.99
  Q 695.74 884.25 695.86 881.39
  Q 695.89 880.66 695.50 879.98
  Q 695.25 879.55 695.25 879.04
  L 695.27 873.30
  Q 695.27 872.93 694.99 872.67
  Q 694.87 872.56 694.80 872.41
  Q 694.72 872.26 694.72 872.10
  C 694.70 869.40 694.85 866.77 694.41 864.16
  Q 693.97 861.56 694.23 858.61
  Q 694.31 857.69 693.91 856.89
  Q 693.69 856.44 693.69 855.95
  Q 693.73 849.28 693.67 842.33
  C 693.66 840.69 692.87 839.53 693.12 837.80
  Q 693.47 835.38 692.89 833.14
  C 692.38 831.17 692.70 829.24 692.47 827.26
  Q 691.50 818.80 691.37 809.56
  A 0.77 0.76 -74.0 0 0 691.03 808.94
  Q 690.54 808.60 690.86 808.04
  Q 691.11 807.60 691.04 807.10
  Q 690.79 805.17 690.96 803.25
  C 691.07 801.90 690.20 801.23 690.29 800.13
  Q 690.55 797.29 690.42 794.33
  Q 690.40 793.85 689.99 793.61
  Q 689.88 793.54 689.77 793.45
  Q 689.59 793.28 689.61 793.03
  Q 689.97 789.42 689.47 785.93
  C 688.99 782.55 689.45 779.35 688.75 776.04
  Q 688.58 775.27 688.39 776.03
  Q 687.70 778.66 687.59 781.06
  Q 687.42 784.72 687.31 785.44
  Q 687.01 787.54 686.60 789.77
  Q 686.50 790.28 686.62 790.80
  Q 686.78 791.47 686.23 791.83
  Q 685.81 792.10 685.87 792.59
  Q 686.04 794.15 685.63 795.74
  Q 685.26 797.22 685.04 798.78
  Q 684.26 804.25 683.22 809.66
  Q 683.13 810.15 683.29 810.62
  Q 683.51 811.28 683.05 811.81
  Q 682.70 812.22 682.66 812.76
  C 682.39 815.71 681.69 818.40 681.61 821.44
  Q 681.52 824.67 680.74 827.81
  Q 680.61 828.35 680.40 828.90
  Q 680.15 829.55 680.50 830.12
  Q 680.78 830.56 680.33 830.83
  Q 680.01 831.02 679.87 831.35
  C 679.55 832.09 679.96 833.49 679.67 834.44
  Q 679.35 835.52 679.23 836.66
  Q 678.78 840.72 677.81 844.68
  C 677.42 846.29 678.16 847.70 677.02 848.97
  A 0.78 0.77 43.1 0 0 677.06 850.04
  Q 677.49 850.46 677.14 850.82
  Q 676.76 851.21 676.70 851.74
  Q 676.12 856.35 675.86 860.48
  C 675.81 861.12 675.49 861.45 675.35 862.01
  Q 675.23 862.52 675.42 863.00
  Q 675.74 863.79 675.27 864.51
  A 2.62 2.55 66.0 0 0 674.91 865.49
  Q 674.29 869.94 673.45 874.35
  Q 673.23 875.48 673.30 876.66
  C 673.37 877.82 672.65 878.53 672.59 879.68
  Q 672.52 880.94 672.08 882.16
  Q 671.91 882.63 672.13 883.08
  L 672.33 883.48
  Q 672.40 883.61 672.28 883.69
  Q 671.42 884.27 671.49 885.29
  Q 671.51 885.66 671.46 886.04
  L 670.37 893.67
  Q 670.35 893.75 670.30 893.80
  L 670.09 893.97
  Q 669.77 894.25 669.78 894.67
  L 669.90 899.62
  Q 669.92 900.18 669.65 900.68
  C 669.11 901.66 669.35 902.47 669.15 903.52
  Q 668.49 906.99 668.24 910.22
  Q 668.19 910.77 667.79 911.13
  Q 667.33 911.55 667.73 912.10
  Q 668.07 912.58 667.78 913.08
  L 667.22 914.03
  Q 666.91 914.55 667.15 915.10
  C 667.73 916.41 666.66 917.54 666.51 918.89
  Q 666.01 923.22 665.03 927.65
  C 664.77 928.80 665.18 929.89 664.64 930.94
  C 664.05 932.09 664.25 934.04 664.48 935.28
  C 664.65 936.23 664.11 936.47 663.96 937.30
  Q 663.00 942.90 662.17 949.35
  Q 662.10 949.86 661.78 950.27
  Q 661.22 950.95 661.62 951.74
  Q 661.87 952.21 661.67 952.70
  Q 660.69 955.12 660.66 957.92
  C 660.65 959.54 659.78 960.61 659.98 962.26
  Q 660.04 962.81 659.72 963.26
  Q 659.04 964.20 659.46 965.24
  A 1.16 1.15 48.3 0 1 659.41 966.23
  L 659.08 966.86
  Q 658.81 967.38 658.84 967.97
  Q 658.92 969.27 658.40 970.43
  Q 658.18 970.93 658.24 971.47
  Q 658.50 973.74 658.12 975.72
  Q 657.55 978.63 657.26 982.21
  Q 657.21 982.85 656.88 983.40
  Q 656.40 984.18 656.66 984.99
  Q 656.83 985.51 656.58 986.00
  L 656.06 987.00
  A 1.02 1.02 0.0 0 0 656.11 988.05
  Q 656.51 988.66 655.96 989.05
  Q 655.46 989.40 655.55 990.01
  Q 655.76 991.47 655.34 992.91
  Q 654.52 995.69 654.54 998.41
  Q 654.54 999.02 654.19 999.53
  Q 653.71 1000.25 653.92 1001.04
  Q 654.04 1001.52 653.81 1001.96
  C 653.06 1003.39 653.41 1004.77 653.02 1006.32
  Q 651.99 1010.47 652.37 1014.82
  Q 652.42 1015.40 651.90 1015.65
  Q 651.20 1015.99 651.66 1016.73
  A 1.26 1.25 37.4 0 1 651.80 1017.75
  L 651.05 1020.19
  Q 650.92 1020.63 651.15 1021.02
  Q 651.51 1021.66 650.93 1022.20
  Q 649.90 1026.49 649.55 1030.99
  Q 649.51 1031.52 649.25 1031.98
  Q 648.68 1032.96 648.92 1034.06
  Q 649.02 1034.52 648.81 1034.94
  Q 648.25 1036.07 648.27 1037.28
  Q 648.29 1038.41 648.02 1039.49
  Q 646.65 1045.00 646.80 1051.02
  Q 646.81 1051.52 646.55 1051.96
  Q 646.09 1052.76 646.29 1053.67
  Q 646.42 1054.25 646.14 1054.79
  Q 645.43 1056.12 645.60 1057.67
  Q 645.66 1058.23 645.38 1058.72
  C 644.68 1059.91 645.20 1061.17 644.63 1062.51
  Q 644.42 1062.99 644.52 1063.50
  Q 644.76 1064.79 644.02 1065.87
  Q 643.75 1066.27 643.88 1066.74
  Q 644.25 1068.09 643.41 1069.22
  Q 643.02 1069.74 643.42 1070.25
  Q 643.91 1070.88 643.25 1071.30
  Q 642.77 1071.60 642.80 1072.17
  C 642.91 1075.03 642.00 1077.44 641.73 1080.20
  Q 641.54 1082.13 640.97 1084.04
  Q 640.51 1085.61 640.59 1087.03
  Q 640.70 1088.75 640.74 1090.41
  Q 640.75 1090.81 640.50 1091.13
  Q 639.79 1092.03 640.15 1093.04
  Q 640.33 1093.53 640.08 1093.99
  Q 639.38 1095.27 639.60 1096.66
  A 1.49 1.46 55.1 0 1 639.44 1097.60
  Q 638.85 1098.67 639.00 1099.93
  Q 639.06 1100.49 638.83 1101.02
  L 638.44 1101.89
  Q 638.21 1102.41 638.41 1102.95
  Q 638.68 1103.69 638.34 1104.34
  Q 638.06 1104.86 637.96 1105.47
  Q 636.91 1111.46 636.13 1117.68
  A 0.05 0.05 0.0 0 1 636.06 1117.72
  Q 635.86 1117.64 635.70 1117.80
  Q 635.61 1117.89 635.64 1118.04
  Q 635.96 1119.96 635.25 1121.65
  Q 635.06 1122.11 635.10 1122.60
  Q 635.35 1125.14 634.86 1127.65
  Q 633.97 1132.26 633.44 1136.89
  C 633.39 1137.31 633.23 1137.60 632.99 1137.95
  A 0.94 0.94 0.0 0 0 632.88 1138.70
  C 633.23 1139.93 632.54 1140.72 632.37 1141.87
  Q 632.03 1144.27 631.61 1146.56
  Q 631.26 1148.48 631.12 1150.46
  Q 630.98 1152.50 630.19 1154.24
  Q 629.97 1154.75 630.18 1155.26
  Q 630.58 1156.24 629.99 1157.16
  A 0.76 0.63 -30.1 0 0 629.89 1157.43
  L 626.79 1179.78
  A 1.15 1.14 -87.5 0 1 625.72 1180.77
  L 623.97 1180.86
  Q 622.85 1180.92 623.03 1179.81
  Q 623.22 1178.61 622.52 1177.61
  A 1.00 0.98 -56.5 0 1 622.37 1176.84
  Q 622.70 1175.40 621.97 1174.17
  Q 621.69 1173.70 621.86 1173.18
  Q 622.00 1172.75 621.98 1172.30
  Q 621.97 1171.82 621.66 1171.45
  Q 620.81 1170.41 621.34 1169.21
  Q 621.57 1168.69 621.29 1168.19
  Q 621.22 1168.06 621.09 1167.98
  Q 620.73 1167.78 620.71 1167.36
  Q 620.48 1162.48 619.15 1157.67
  C 619.00 1157.12 619.13 1156.75 619.21 1156.21
  Q 619.24 1155.97 619.16 1155.73
  Q 618.03 1152.46 617.94 1149.00
  Q 617.92 1148.21 617.55 1147.56
  Q 617.31 1147.14 617.37 1146.67
  Q 617.78 1143.54 616.87 1140.64
  A 1.53 1.43 -49.2 0 1 616.84 1139.90
  Q 617.04 1139.06 616.40 1138.42
  Q 616.02 1138.04 616.19 1137.54
  Q 616.67 1136.14 615.86 1134.77
  A 1.60 1.58 -58.8 0 1 615.64 1133.86
  Q 615.69 1133.05 615.52 1132.20
  Q 614.60 1127.66 614.12 1122.58
  Q 614.07 1122.03 613.74 1121.58
  Q 613.27 1120.95 613.56 1120.24
  Q 613.78 1119.71 613.55 1119.18
  C 613.32 1118.68 613.11 1118.48 613.04 1117.89
  Q 612.57 1113.57 611.74 1109.32
  Q 611.36 1107.37 611.46 1105.65
  Q 611.58 1103.67 610.96 1101.98
  C 610.46 1100.61 610.86 1099.40 610.27 1097.97
  Q 610.06 1097.47 610.34 1097.02
  Q 610.68 1096.46 610.18 1096.08
  Q 609.76 1095.76 609.72 1095.24
  Q 609.34 1090.03 608.13 1084.76
  Q 608.01 1084.26 608.16 1083.77
  Q 608.31 1083.24 607.84 1082.94
  Q 607.33 1082.63 607.37 1082.03
  Q 607.51 1079.36 606.80 1076.88
  C 606.28 1075.10 606.72 1073.35 605.82 1071.68
  Q 605.59 1071.24 605.68 1070.75
  Q 606.18 1068.09 605.60 1066.06
  Q 604.94 1063.74 604.77 1061.40
  Q 604.58 1058.84 603.82 1056.43
  Q 603.67 1055.96 603.72 1055.48
  Q 603.82 1054.25 603.25 1053.21
  Q 603.01 1052.76 603.07 1052.25
  L 603.22 1050.92
  Q 603.29 1050.32 602.91 1049.86
  Q 602.37 1049.19 602.49 1048.46
  Q 602.54 1048.11 602.48 1047.75
  L 600.95 1038.77
  Q 600.88 1038.33 600.95 1037.88
  Q 601.08 1037.05 600.40 1036.44
  Q 599.99 1036.07 600.18 1035.55
  C 600.85 1033.81 599.50 1032.80 599.66 1030.88
  Q 599.89 1028.19 599.29 1025.64
  Q 598.75 1023.33 598.57 1020.99
  Q 598.38 1018.42 597.56 1015.97
  Q 597.39 1015.47 597.57 1014.98
  Q 597.91 1014.01 597.29 1013.21
  A 0.57 0.56 -68.7 0 1 597.16 1012.91
  L 595.77 1003.88
  Q 595.70 1003.42 595.41 1003.07
  Q 595.06 1002.66 595.35 1002.18
  A 0.93 0.92 45.9 0 0 595.36 1001.29
  C 594.41 999.55 594.74 997.23 594.19 995.25
  Q 593.71 993.50 593.71 991.81
  Q 593.69 988.38 593.05 984.28
  A 1.65 1.60 23.5 0 0 592.77 983.60
  Q 592.21 982.81 592.60 981.97
  Q 592.83 981.48 592.51 981.05
  Q 591.79 980.07 592.11 978.84
  Q 592.26 978.31 591.97 977.84
  Q 591.66 977.34 591.60 976.92
  Q 591.23 974.24 590.90 971.37
  Q 590.87 971.04 590.65 970.77
  Q 590.57 970.67 590.49 970.57
  Q 590.32 970.32 590.37 970.03
  Q 590.69 968.42 589.93 967.00
  Q 589.68 966.53 589.86 966.03
  Q 590.22 965.01 589.51 964.18
  Q 589.17 963.77 589.15 963.23
  C 589.13 962.65 589.25 962.19 589.11 961.60
  Q 588.16 957.50 588.19 953.45
  Q 588.20 951.99 587.88 950.57
  Q 587.54 949.08 587.14 947.73
  Q 587.00 947.24 587.13 946.74
  C 587.48 945.36 586.54 944.49 586.38 943.12
  Q 586.09 940.71 585.93 938.49
  Q 585.91 938.11 585.67 937.81
  Q 585.58 937.69 585.50 937.57
  Q 585.34 937.32 585.38 937.03
  Q 585.62 935.50 584.90 934.10
  Q 584.61 933.55 584.85 932.97
  Q 585.27 931.98 584.48 931.20
  Q 584.07 930.79 584.24 930.24
  L 584.35 929.90
  A 1.17 1.17 0.0 0 0 584.35 929.20
  Q 583.49 926.40 583.21 923.15
  Q 583.16 922.47 582.86 921.87
  Q 582.65 921.43 582.71 920.95
  Q 582.89 919.40 582.24 918.14
  A 1.16 1.07 34.7 0 1 582.12 917.60
  L 582.21 912.80
  Q 582.22 912.26 581.89 911.83
  Q 581.27 911.02 581.56 910.08
  Q 581.73 909.55 581.58 909.01
  Q 580.32 904.46 580.03 899.75
  Q 579.98 898.95 579.38 898.39
  Q 578.99 898.02 579.19 897.52
  Q 579.73 896.21 578.94 895.02
  A 1.66 1.65 30.4 0 1 578.67 893.99
  Q 578.72 893.26 578.57 892.51
  Q 577.59 887.50 577.08 882.37
  Q 577.05 882.03 576.86 881.74
  Q 576.78 881.62 576.70 881.49
  Q 576.54 881.24 576.54 880.94
  Q 576.54 879.46 576.62 877.97
  C 576.75 875.69 575.81 873.71 575.58 871.50
  C 575.26 868.57 574.34 865.87 574.44 862.87
  Q 574.46 862.34 574.07 861.99
  Q 573.40 861.37 573.71 860.48
  Q 573.89 859.97 573.65 859.49
  Q 572.95 858.05 573.19 856.36
  Q 573.26 855.85 572.85 855.53
  Q 572.73 855.44 572.66 855.30
  Q 572.59 855.16 572.64 855.02
  Q 572.99 853.99 572.52 853.15
  Q 572.27 852.72 572.25 852.22
  Q 572.13 849.00 571.31 846.04
  C 570.94 844.72 571.42 843.48 570.71 842.32
  Q 570.41 841.84 570.43 841.27
  Q 570.58 837.25 569.85 833.26
  Q 569.80 832.99 569.64 832.77
  Q 569.57 832.66 569.49 832.56
  Q 569.31 832.34 569.37 832.05
  Q 569.70 830.41 568.91 828.97
  A 1.08 1.06 41.8 0 1 568.85 828.05
  Q 569.29 826.97 568.44 826.16
  Q 568.03 825.76 568.25 825.23
  Q 568.39 824.89 568.40 824.52
  Q 568.41 823.98 568.15 823.51
  C 567.43 822.19 567.78 820.76 567.45 819.29
  Q 566.83 816.52 566.68 813.77
  C 566.65 813.22 566.43 812.98 566.22 812.49
  C 565.84 811.63 566.41 810.70 565.75 809.52
  Q 565.48 809.03 565.47 808.46
  Q 565.41 805.99 564.77 803.51
  Q 564.29 801.67 564.44 799.84
  Q 564.60 797.70 563.87 795.76
  Q 563.70 795.32 563.86 794.86
  Q 564.18 793.96 563.50 793.21
  Q 563.11 792.78 563.27 792.23
  C 563.69 790.77 562.69 789.91 562.63 788.39
  Q 562.59 787.40 562.37 786.28
  Q 561.83 783.60 561.49 780.17
  Q 561.24 777.76 560.31 775.26
  A 0.15 0.14 36.5 0 0 560.03 775.30
  Z
  M 610.03 293.67
  C 607.31 295.27 606.28 297.95 603.82 299.67
  Q 601.39 301.37 599.80 303.90
  Q 598.74 305.60 598.76 308.07
  Q 599.02 347.27 599.42 381.24
  Q 599.75 408.61 599.69 465.75
  Q 599.62 527.05 597.41 584.25
  Q 596.31 612.66 593.70 640.94
  Q 593.53 642.85 592.48 644.16
  C 586.97 651.05 581.58 649.02 575.20 645.24
  C 574.30 644.71 573.29 644.74 572.34 644.30
  C 567.77 642.21 563.34 639.78 558.50 637.86
  C 554.70 636.35 551.24 634.26 547.43 632.83
  Q 541.02 630.43 538.68 623.82
  Q 536.81 618.52 535.86 612.30
  C 534.46 603.09 532.39 594.06 530.11 584.92
  C 529.66 583.10 529.77 581.08 529.43 579.50
  Q 527.01 568.34 523.94 556.68
  C 523.55 555.21 523.81 553.61 523.42 552.14
  Q 519.50 537.58 517.51 528.97
  Q 515.46 520.07 513.05 512.54
  C 512.20 509.87 511.97 506.53 511.19 504.33
  Q 507.92 495.14 505.38 485.71
  C 504.16 481.20 502.40 477.25 501.12 472.96
  Q 499.61 467.86 497.89 463.66
  Q 496.16 459.44 494.73 455.33
  Q 493.29 451.20 491.46 447.22
  C 489.12 442.13 487.20 437.02 484.58 432.07
  C 482.71 428.53 481.10 424.42 478.63 421.15
  Q 477.21 419.26 476.50 417.14
  Q 476.34 416.66 475.92 416.38
  Q 475.26 415.94 475.12 415.18
  A 0.55 0.54 8.9 0 1 475.91 414.61
  C 479.34 416.41 483.06 416.44 486.47 417.89
  Q 491.38 419.97 496.34 421.79
  C 501.93 423.85 506.99 426.62 512.35 428.86
  C 515.71 430.26 518.55 432.04 521.82 433.37
  Q 522.76 433.76 522.09 432.99
  C 513.14 422.73 505.28 411.53 496.89 400.93
  Q 480.55 380.27 462.05 363.49
  Q 443.09 346.28 417.66 331.41
  Q 410.35 327.13 403.26 323.50
  Q 398.91 321.27 394.72 318.97
  C 392.25 317.62 389.81 316.91 387.45 315.28
  Q 385.17 313.70 386.63 316.06
  Q 388.85 319.65 391.08 323.15
  Q 411.82 355.64 428.18 392.06
  Q 436.16 409.79 441.35 423.55
  Q 442.04 425.39 442.81 427.25
  Q 445.39 433.50 447.39 440.01
  C 448.77 444.51 451.86 451.43 453.36 457.51
  C 454.75 463.14 457.13 468.45 458.49 473.87
  C 460.69 482.63 463.47 490.19 465.27 498.40
  C 466.92 505.93 469.46 512.97 470.82 520.36
  C 472.68 530.47 475.48 540.23 477.24 550.38
  Q 478.79 559.27 481.29 570.43
  C 482.34 575.11 482.56 579.89 483.43 584.53
  Q 485.33 594.69 487.06 604.97
  C 487.80 609.38 488.16 613.98 488.83 618.35
  Q 491.66 636.58 493.91 654.22
  Q 494.30 657.27 494.71 661.22
  Q 496.34 676.68 498.59 690.62
  A 0.34 0.34 0.0 0 0 499.19 690.78
  Q 500.32 689.38 501.52 688.33
  Q 508.15 682.47 515.03 676.45
  A 0.84 0.83 -46.5 0 1 516.09 676.42
  C 518.22 678.06 520.70 678.92 523.08 680.15
  Q 544.57 691.16 566.95 702.47
  Q 579.37 708.75 590.90 714.60
  Q 592.52 715.42 592.52 717.24
  L 592.66 758.53
  A 0.39 0.38 90.0 0 0 593.04 758.92
  L 656.20 758.89
  A 0.60 0.60 0.0 0 0 656.80 758.30
  L 657.23 715.99
  A 1.31 1.30 81.8 0 1 658.15 714.75
  C 662.21 713.49 665.16 710.93 668.95 709.34
  Q 673.26 707.55 677.18 705.07
  C 680.06 703.25 683.29 702.28 686.24 700.62
  C 690.33 698.33 694.66 696.53 698.75 694.19
  C 703.03 691.74 707.41 689.97 711.55 687.59
  C 714.66 685.79 718.06 684.80 721.15 682.90
  C 725.12 680.47 729.32 678.67 733.34 676.51
  A 0.99 0.98 51.0 0 1 734.46 676.63
  L 750.48 690.55
  Q 751.10 691.09 751.23 690.27
  Q 751.92 685.89 752.14 682.02
  Q 752.41 677.57 752.94 673.53
  Q 754.95 658.35 757.06 643.92
  Q 757.45 641.22 757.64 638.35
  Q 757.92 633.96 758.12 632.69
  Q 760.84 615.68 763.57 599.07
  C 763.87 597.22 763.78 595.38 764.08 593.67
  Q 766.58 579.42 769.52 565.26
  C 769.94 563.22 769.76 561.02 770.22 558.84
  Q 772.65 547.36 775.02 536.67
  Q 775.42 534.87 775.85 532.87
  Q 778.35 521.37 781.24 509.65
  Q 781.46 508.74 781.65 507.79
  Q 783.13 500.53 785.76 492.77
  C 786.90 489.44 787.05 485.73 788.25 482.42
  Q 790.40 476.47 791.94 470.64
  Q 793.85 463.40 795.72 458.50
  Q 797.52 453.74 798.82 449.14
  C 800.19 444.26 802.25 439.62 803.82 434.88
  Q 805.67 429.31 807.66 424.43
  Q 809.73 419.33 811.84 414.03
  Q 819.38 395.06 829.52 374.53
  Q 831.61 370.30 834.03 365.53
  Q 845.16 343.48 860.55 319.76
  Q 861.70 317.99 862.96 316.31
  Q 864.08 314.81 862.34 315.50
  Q 859.62 316.58 857.22 317.77
  Q 843.99 324.31 831.18 331.73
  Q 792.73 354.01 763.34 387.95
  Q 750.84 402.38 742.15 414.43
  Q 736.98 421.60 732.38 427.00
  Q 730.05 429.73 727.68 432.57
  Q 726.99 433.39 727.98 432.99
  Q 731.45 431.56 734.90 429.66
  C 737.45 428.26 740.35 427.66 742.95 426.21
  Q 746.93 424.00 751.03 422.56
  C 755.23 421.08 758.76 419.35 762.70 417.87
  Q 764.93 417.02 767.74 416.46
  Q 770.21 415.97 772.82 414.93
  Q 775.50 413.87 773.73 416.14
  C 771.10 419.51 769.51 423.49 767.42 426.98
  Q 765.60 430.02 764.41 432.80
  C 762.24 437.82 759.61 442.60 757.69 447.73
  C 755.76 452.90 753.48 457.80 751.71 463.07
  Q 749.48 469.73 746.78 476.58
  C 746.11 478.28 746.01 480.23 745.41 481.95
  Q 743.07 488.59 740.97 495.10
  C 740.52 496.47 740.52 498.06 740.13 499.33
  Q 737.59 507.61 735.05 515.90
  C 734.41 518.00 734.35 520.28 733.77 522.29
  Q 730.99 531.94 729.10 539.20
  C 728.54 541.33 728.48 543.51 727.94 545.69
  C 726.11 553.06 723.84 560.51 722.71 568.09
  Q 722.24 571.22 721.42 574.45
  Q 718.92 584.41 716.93 593.92
  C 716.67 595.17 716.91 596.33 716.63 597.57
  Q 714.21 608.17 711.84 619.03
  C 711.33 621.35 711.55 623.82 710.16 625.84
  C 707.99 628.96 705.54 631.23 701.90 632.84
  Q 697.89 634.62 693.71 636.63
  C 689.17 638.81 684.51 640.52 679.90 642.95
  C 676.93 644.51 673.70 645.23 670.93 646.93
  C 667.50 649.03 663.06 649.55 659.88 647.02
  C 655.15 643.27 655.25 638.64 654.78 633.19
  Q 653.00 612.39 652.37 595.99
  C 652.16 590.50 652.31 584.82 652.10 579.33
  Q 651.29 558.29 650.86 536.50
  Q 649.52 467.17 650.10 407.00
  Q 650.55 360.13 650.78 305.75
  Q 650.78 305.24 650.46 304.86
  C 647.10 300.83 643.08 297.24 639.54 293.41
  Q 638.90 292.71 639.80 293.00
  Q 643.20 294.12 645.71 295.90
  C 649.85 298.83 654.56 300.53 658.48 303.65
  C 660.18 305.00 662.14 305.62 663.76 307.01
  Q 664.94 308.03 666.19 308.95
  Q 677.22 317.13 686.34 326.15
  Q 687.88 327.67 687.42 325.56
  Q 684.82 313.70 681.99 300.26
  C 681.56 298.21 681.60 296.22 681.19 294.22
  Q 679.52 286.11 677.22 276.43
  C 676.14 271.89 675.76 267.34 674.60 262.77
  Q 672.51 254.54 670.26 246.06
  C 669.76 244.16 669.83 242.25 669.20 240.35
  Q 666.41 231.88 664.19 223.26
  C 662.87 218.14 660.83 213.52 659.30 208.66
  Q 657.60 203.24 655.38 197.87
  Q 650.46 185.94 646.01 173.83
  C 644.61 170.01 642.70 166.46 641.33 162.70
  C 639.30 157.12 636.54 152.02 634.47 146.62
  C 632.96 142.68 630.48 139.35 628.91 135.38
  C 627.94 132.96 626.45 130.66 624.92 128.48
  A 0.45 0.45 0.0 0 0 624.14 128.55
  C 622.03 133.12 619.35 137.17 617.36 141.77
  Q 615.30 146.55 612.55 151.83
  C 611.52 153.82 611.04 155.97 610.10 158.07
  C 604.97 169.66 600.62 181.72 595.69 193.67
  Q 591.46 203.93 589.08 211.55
  Q 586.37 220.23 583.31 229.09
  C 582.13 232.52 581.84 236.13 580.72 239.61
  Q 578.40 246.84 576.84 254.77
  C 575.04 263.93 572.69 272.70 570.78 281.52
  C 570.44 283.09 570.66 284.58 570.31 286.15
  Q 567.79 297.25 565.59 307.49
  Q 564.66 311.86 564.11 316.46
  Q 563.55 321.07 562.19 325.71
  Q 562.06 326.13 562.31 326.48
  A 0.26 0.25 -39.8 0 0 562.70 326.51
  Q 568.51 320.73 574.89 315.62
  C 576.69 314.18 578.19 312.56 580.19 311.32
  C 582.10 310.13 583.59 308.46 585.53 307.19
  Q 590.44 303.98 595.35 300.62
  C 596.49 299.84 598.07 299.39 599.40 298.48
  Q 603.40 295.75 607.39 293.91
  Q 608.52 293.39 609.94 293.34
  Q 610.64 293.31 610.03 293.67
  Z
  M 657.28 768.57
  A 0.84 0.84 0.0 0 0 656.44 767.73
  L 593.44 767.73
  A 0.84 0.84 0.0 0 0 592.60 768.57
  L 592.60 789.61
  A 0.84 0.84 0.0 0 0 593.44 790.45
  L 656.44 790.45
  A 0.84 0.84 0.0 0 0 657.28 789.61
  L 657.28 768.57
  Z
  M 650.00 799.24
  A 0.52 0.52 0.0 0 0 649.48 798.72
  L 600.08 798.72
  A 0.52 0.52 0.0 0 0 599.56 799.24
  L 599.56 814.20
  A 0.52 0.52 0.0 0 0 600.08 814.72
  L 649.48 814.72
  A 0.52 0.52 0.0 0 0 650.00 814.20
  L 650.00 799.24
  Z
  M 593.25 823.58
  A 0.44 0.44 0.0 0 0 592.81 824.05
  L 594.35 844.99
  A 0.44 0.44 0.0 0 0 594.79 845.40
  L 654.25 845.40
  A 0.44 0.44 0.0 0 0 654.68 845.01
  L 657.04 824.07
  A 0.44 0.44 0.0 0 0 656.60 823.58
  L 593.25 823.58
  Z
  M 596.52 854.19
  Q 596.17 854.08 595.99 854.49
  A 0.65 0.54 -39.9 0 0 595.94 854.77
  Q 597.59 868.95 599.39 883.52
  C 599.74 886.34 599.62 889.52 599.98 892.52
  Q 602.71 915.34 605.64 939.85
  C 605.91 942.10 605.75 944.52 606.02 946.74
  Q 608.58 968.38 611.06 989.78
  Q 611.25 991.42 611.32 993.76
  Q 611.38 995.91 611.54 997.23
  Q 614.53 1021.87 617.39 1045.10
  Q 617.56 1046.55 617.55 1047.91
  Q 617.54 1049.74 617.70 1051.23
  Q 619.56 1068.72 621.83 1086.54
  C 622.85 1094.61 623.16 1102.66 624.19 1110.83
  Q 624.58 1113.90 624.94 1110.82
  Q 626.83 1094.24 628.75 1078.85
  C 629.09 1076.12 628.87 1073.26 629.21 1070.59
  Q 632.01 1048.73 634.82 1023.43
  Q 635.03 1021.53 635.14 1018.90
  Q 635.23 1016.66 635.50 1014.51
  Q 637.95 994.56 640.44 973.25
  C 640.74 970.70 640.60 968.00 640.90 965.59
  Q 643.67 942.74 646.46 919.89
  Q 646.67 918.12 646.72 916.09
  Q 646.78 913.79 646.97 912.09
  Q 649.37 890.38 651.84 870.61
  C 652.47 865.58 652.08 860.27 653.38 855.03
  A 0.60 0.59 6.8 0 0 652.80 854.30
  Q 624.48 854.25 596.94 854.25
  Q 596.73 854.25 596.52 854.19
  Z"
/>
<path fill="#ffc900" d="
  M 609.94 293.34
  Q 608.52 293.39 607.39 293.91
  Q 603.40 295.75 599.40 298.48
  C 598.07 299.39 596.49 299.84 595.35 300.62
  Q 590.44 303.98 585.53 307.19
  C 583.59 308.46 582.10 310.13 580.19 311.32
  C 578.19 312.56 576.69 314.18 574.89 315.62
  Q 568.51 320.73 562.70 326.51
  A 0.26 0.25 -39.8 0 1 562.31 326.48
  Q 562.06 326.13 562.19 325.71
  Q 563.55 321.07 564.11 316.46
  Q 564.66 311.86 565.59 307.49
  Q 567.79 297.25 570.31 286.15
  C 570.66 284.58 570.44 283.09 570.78 281.52
  C 572.69 272.70 575.04 263.93 576.84 254.77
  Q 578.40 246.84 580.72 239.61
  C 581.84 236.13 582.13 232.52 583.31 229.09
  Q 586.37 220.23 589.08 211.55
  Q 591.46 203.93 595.69 193.67
  C 600.62 181.72 604.97 169.66 610.10 158.07
  C 611.04 155.97 611.52 153.82 612.55 151.83
  Q 615.30 146.55 617.36 141.77
  C 619.35 137.17 622.03 133.12 624.14 128.55
  A 0.45 0.45 0.0 0 1 624.92 128.48
  C 626.45 130.66 627.94 132.96 628.91 135.38
  C 630.48 139.35 632.96 142.68 634.47 146.62
  C 636.54 152.02 639.30 157.12 641.33 162.70
  C 642.70 166.46 644.61 170.01 646.01 173.83
  Q 650.46 185.94 655.38 197.87
  Q 657.60 203.24 659.30 208.66
  C 660.83 213.52 662.87 218.14 664.19 223.26
  Q 666.41 231.88 669.20 240.35
  C 669.83 242.25 669.76 244.16 670.26 246.06
  Q 672.51 254.54 674.60 262.77
  C 675.76 267.34 676.14 271.89 677.22 276.43
  Q 679.52 286.11 681.19 294.22
  C 681.60 296.22 681.56 298.21 681.99 300.26
  Q 684.82 313.70 687.42 325.56
  Q 687.88 327.67 686.34 326.15
  Q 677.22 317.13 666.19 308.95
  Q 664.94 308.03 663.76 307.01
  C 662.14 305.62 660.18 305.00 658.48 303.65
  C 654.56 300.53 649.85 298.83 645.71 295.90
  Q 643.20 294.12 639.80 293.00
  Q 638.90 292.71 639.54 293.41
  C 643.08 297.24 647.10 300.83 650.46 304.86
  Q 650.78 305.24 650.78 305.75
  Q 650.55 360.13 650.10 407.00
  Q 649.52 467.17 650.86 536.50
  Q 651.29 558.29 652.10 579.33
  C 652.31 584.82 652.16 590.50 652.37 595.99
  Q 653.00 612.39 654.78 633.19
  C 655.25 638.64 655.15 643.27 659.88 647.02
  C 663.06 649.55 667.50 649.03 670.93 646.93
  C 673.70 645.23 676.93 644.51 679.90 642.95
  C 684.51 640.52 689.17 638.81 693.71 636.63
  Q 697.89 634.62 701.90 632.84
  C 705.54 631.23 707.99 628.96 710.16 625.84
  C 711.55 623.82 711.33 621.35 711.84 619.03
  Q 714.21 608.17 716.63 597.57
  C 716.91 596.33 716.67 595.17 716.93 593.92
  Q 718.92 584.41 721.42 574.45
  Q 722.24 571.22 722.71 568.09
  C 723.84 560.51 726.11 553.06 727.94 545.69
  C 728.48 543.51 728.54 541.33 729.10 539.20
  Q 730.99 531.94 733.77 522.29
  C 734.35 520.28 734.41 518.00 735.05 515.90
  Q 737.59 507.61 740.13 499.33
  C 740.52 498.06 740.52 496.47 740.97 495.10
  Q 743.07 488.59 745.41 481.95
  C 746.01 480.23 746.11 478.28 746.78 476.58
  Q 749.48 469.73 751.71 463.07
  C 753.48 457.80 755.76 452.90 757.69 447.73
  C 759.61 442.60 762.24 437.82 764.41 432.80
  Q 765.60 430.02 767.42 426.98
  C 769.51 423.49 771.10 419.51 773.73 416.14
  Q 775.50 413.87 772.82 414.93
  Q 770.21 415.97 767.74 416.46
  Q 764.93 417.02 762.70 417.87
  C 758.76 419.35 755.23 421.08 751.03 422.56
  Q 746.93 424.00 742.95 426.21
  C 740.35 427.66 737.45 428.26 734.90 429.66
  Q 731.45 431.56 727.98 432.99
  Q 726.99 433.39 727.68 432.57
  Q 730.05 429.73 732.38 427.00
  Q 736.98 421.60 742.15 414.43
  Q 750.84 402.38 763.34 387.95
  Q 792.73 354.01 831.18 331.73
  Q 843.99 324.31 857.22 317.77
  Q 859.62 316.58 862.34 315.50
  Q 864.08 314.81 862.96 316.31
  Q 861.70 317.99 860.55 319.76
  Q 845.16 343.48 834.03 365.53
  Q 831.61 370.30 829.52 374.53
  Q 819.38 395.06 811.84 414.03
  Q 809.73 419.33 807.66 424.43
  Q 805.67 429.31 803.82 434.88
  C 802.25 439.62 800.19 444.26 798.82 449.14
  Q 797.52 453.74 795.72 458.50
  Q 793.85 463.40 791.94 470.64
  Q 790.40 476.47 788.25 482.42
  C 787.05 485.73 786.90 489.44 785.76 492.77
  Q 783.13 500.53 781.65 507.79
  Q 781.46 508.74 781.24 509.65
  Q 778.35 521.37 775.85 532.87
  Q 775.42 534.87 775.02 536.67
  Q 772.65 547.36 770.22 558.84
  C 769.76 561.02 769.94 563.22 769.52 565.26
  Q 766.58 579.42 764.08 593.67
  C 763.78 595.38 763.87 597.22 763.57 599.07
  Q 760.84 615.68 758.12 632.69
  Q 757.92 633.96 757.64 638.35
  Q 757.45 641.22 757.06 643.92
  Q 754.95 658.35 752.94 673.53
  Q 752.41 677.57 752.14 682.02
  Q 751.92 685.89 751.23 690.27
  Q 751.10 691.09 750.48 690.55
  L 734.46 676.63
  A 0.99 0.98 51.0 0 0 733.34 676.51
  C 729.32 678.67 725.12 680.47 721.15 682.90
  C 718.06 684.80 714.66 685.79 711.55 687.59
  C 707.41 689.97 703.03 691.74 698.75 694.19
  C 694.66 696.53 690.33 698.33 686.24 700.62
  C 683.29 702.28 680.06 703.25 677.18 705.07
  Q 673.26 707.55 668.95 709.34
  C 665.16 710.93 662.21 713.49 658.15 714.75
  A 1.31 1.30 81.8 0 0 657.23 715.99
  L 656.80 758.30
  A 0.60 0.60 0.0 0 1 656.20 758.89
  L 593.04 758.92
  A 0.39 0.38 -90.0 0 1 592.66 758.53
  L 592.52 717.24
  Q 592.52 715.42 590.90 714.60
  Q 579.37 708.75 566.95 702.47
  Q 544.57 691.16 523.08 680.15
  C 520.70 678.92 518.22 678.06 516.09 676.42
  A 0.84 0.83 -46.5 0 0 515.03 676.45
  Q 508.15 682.47 501.52 688.33
  Q 500.32 689.38 499.19 690.78
  A 0.34 0.34 0.0 0 1 498.59 690.62
  Q 496.34 676.68 494.71 661.22
  Q 494.30 657.27 493.91 654.22
  Q 491.66 636.58 488.83 618.35
  C 488.16 613.98 487.80 609.38 487.06 604.97
  Q 485.33 594.69 483.43 584.53
  C 482.56 579.89 482.34 575.11 481.29 570.43
  Q 478.79 559.27 477.24 550.38
  C 475.48 540.23 472.68 530.47 470.82 520.36
  C 469.46 512.97 466.92 505.93 465.27 498.40
  C 463.47 490.19 460.69 482.63 458.49 473.87
  C 457.13 468.45 454.75 463.14 453.36 457.51
  C 451.86 451.43 448.77 444.51 447.39 440.01
  Q 445.39 433.50 442.81 427.25
  Q 442.04 425.39 441.35 423.55
  Q 436.16 409.79 428.18 392.06
  Q 411.82 355.64 391.08 323.15
  Q 388.85 319.65 386.63 316.06
  Q 385.17 313.70 387.45 315.28
  C 389.81 316.91 392.25 317.62 394.72 318.97
  Q 398.91 321.27 403.26 323.50
  Q 410.35 327.13 417.66 331.41
  Q 443.09 346.28 462.05 363.49
  Q 480.55 380.27 496.89 400.93
  C 505.28 411.53 513.14 422.73 522.09 432.99
  Q 522.76 433.76 521.82 433.37
  C 518.55 432.04 515.71 430.26 512.35 428.86
  C 506.99 426.62 501.93 423.85 496.34 421.79
  Q 491.38 419.97 486.47 417.89
  C 483.06 416.44 479.34 416.41 475.91 414.61
  A 0.55 0.54 8.9 0 0 475.12 415.18
  Q 475.26 415.94 475.92 416.38
  Q 476.34 416.66 476.50 417.14
  Q 477.21 419.26 478.63 421.15
  C 481.10 424.42 482.71 428.53 484.58 432.07
  C 487.20 437.02 489.12 442.13 491.46 447.22
  Q 493.29 451.20 494.73 455.33
  Q 496.16 459.44 497.89 463.66
  Q 499.61 467.86 501.12 472.96
  C 502.40 477.25 504.16 481.20 505.38 485.71
  Q 507.92 495.14 511.19 504.33
  C 511.97 506.53 512.20 509.87 513.05 512.54
  Q 515.46 520.07 517.51 528.97
  Q 519.50 537.58 523.42 552.14
  C 523.81 553.61 523.55 555.21 523.94 556.68
  Q 527.01 568.34 529.43 579.50
  C 529.77 581.08 529.66 583.10 530.11 584.92
  C 532.39 594.06 534.46 603.09 535.86 612.30
  Q 536.81 618.52 538.68 623.82
  Q 541.02 630.43 547.43 632.83
  C 551.24 634.26 554.70 636.35 558.50 637.86
  C 563.34 639.78 567.77 642.21 572.34 644.30
  C 573.29 644.74 574.30 644.71 575.20 645.24
  C 581.58 649.02 586.97 651.05 592.48 644.16
  Q 593.53 642.85 593.70 640.94
  Q 596.31 612.66 597.41 584.25
  Q 599.62 527.05 599.69 465.75
  Q 599.75 408.61 599.42 381.24
  Q 599.02 347.27 598.76 308.07
  Q 598.74 305.60 599.80 303.90
  Q 601.39 301.37 603.82 299.67
  C 606.28 297.95 607.31 295.27 610.03 293.67
  Q 610.64 293.31 609.94 293.34
  Z"
/>
<rect fill="#ffc900" x="592.60" y="767.73" width="64.68" height="22.72" rx="0.84"/>
<rect fill="#ffc900" x="599.56" y="798.72" width="50.44" height="16.00" rx="0.52"/>
<path fill="#ffc900" d="
  M 593.25 823.58
  L 656.60 823.58
  A 0.44 0.44 0.0 0 1 657.04 824.07
  L 654.68 845.01
  A 0.44 0.44 0.0 0 1 654.25 845.40
  L 594.79 845.40
  A 0.44 0.44 0.0 0 1 594.35 844.99
  L 592.81 824.05
  A 0.44 0.44 0.0 0 1 593.25 823.58
  Z"
/>
<path fill="#ffc900" d="
  M 596.94 854.25
  Q 624.48 854.25 652.80 854.30
  A 0.60 0.59 6.8 0 1 653.38 855.03
  C 652.08 860.27 652.47 865.58 651.84 870.61
  Q 649.37 890.38 646.97 912.09
  Q 646.78 913.79 646.72 916.09
  Q 646.67 918.12 646.46 919.89
  Q 643.67 942.74 640.90 965.59
  C 640.60 968.00 640.74 970.70 640.44 973.25
  Q 637.95 994.56 635.50 1014.51
  Q 635.23 1016.66 635.14 1018.90
  Q 635.03 1021.53 634.82 1023.43
  Q 632.01 1048.73 629.21 1070.59
  C 628.87 1073.26 629.09 1076.12 628.75 1078.85
  Q 626.83 1094.24 624.94 1110.82
  Q 624.58 1113.90 624.19 1110.83
  C 623.16 1102.66 622.85 1094.61 621.83 1086.54
  Q 619.56 1068.72 617.70 1051.23
  Q 617.54 1049.74 617.55 1047.91
  Q 617.56 1046.55 617.39 1045.10
  Q 614.53 1021.87 611.54 997.23
  Q 611.38 995.91 611.32 993.76
  Q 611.25 991.42 611.06 989.78
  Q 608.58 968.38 606.02 946.74
  C 605.75 944.52 605.91 942.10 605.64 939.85
  Q 602.71 915.34 599.98 892.52
  C 599.62 889.52 599.74 886.34 599.39 883.52
  Q 597.59 868.95 595.94 854.77
  A 0.65 0.54 -39.9 0 1 595.99 854.49
  Q 596.17 854.08 596.52 854.19
  Q 596.73 854.25 596.94 854.25
  Z"
/>
</svg>
