<?xml version="1.0" encoding="UTF-8" standalone="no"?>
<!DOCTYPE svg PUBLIC "-//W3C//DTD SVG 1.1//EN" "http://www.w3.org/Graphics/SVG/1.1/DTD/svg11.dtd">
<svg xmlns="http://www.w3.org/2000/svg" version="1.1" viewBox="0.00 0.00 768.00 421.00">
<path fill="#1b191c" d="
  M 265.23 0.00
  C 286.01 2.34 306.44 6.55 326.69 11.75
  A 7.21 7.15 45.2 0 0 330.21 11.78
  Q 334.76 10.67 339.61 9.92
  C 389.19 2.23 438.77 6.36 488.34 16.70
  C 532.72 25.96 576.79 40.11 617.33 59.53
  C 634.02 67.52 649.80 77.35 666.72 84.95
  Q 672.80 87.68 677.47 87.99
  Q 683.13 88.36 689.17 91.19
  Q 689.94 91.55 689.95 92.40
  L 690.21 110.55
  Q 690.22 111.07 690.65 111.36
  C 701.46 118.44 713.52 123.22 724.55 128.71
  C 727.09 129.97 729.66 131.37 732.01 132.97
  Q 749.48 144.88 766.97 156.83
  Q 767.38 157.11 767.42 157.61
  L 768.00 164.99
  L 768.00 173.71
  Q 767.63 183.72 764.26 189.98
  C 761.93 194.30 757.16 198.52 753.93 202.73
  Q 741.90 218.40 721.59 231.54
  Q 708.22 240.20 697.12 246.00
  Q 655.45 267.80 606.65 289.03
  Q 599.13 292.31 591.40 294.54
  A 0.48 0.48 0.0 0 1 590.78 294.06
  L 592.23 258.73
  A 0.52 0.52 0.0 0 0 591.71 258.19
  Q 584.08 258.14 576.12 258.89
  Q 551.50 261.21 527.40 267.19
  Q 515.20 270.22 506.15 277.47
  C 494.68 286.67 483.59 298.00 476.16 310.67
  Q 471.93 317.90 470.58 327.57
  C 468.79 340.46 476.69 346.49 487.01 351.41
  C 497.67 356.49 509.33 361.94 517.30 370.40
  Q 532.38 386.41 544.67 403.69
  Q 547.97 408.33 550.33 413.28
  Q 550.78 414.23 549.73 414.24
  C 533.29 414.43 516.87 414.35 500.76 415.89
  Q 481.48 417.74 460.53 420.12
  C 457.18 420.50 453.75 420.59 450.37 421.00
  L 434.62 421.00
  C 411.57 420.08 385.89 415.19 364.29 404.68
  C 352.45 398.91 339.88 388.02 341.05 374.05
  Q 341.70 366.34 342.54 358.00
  C 343.72 346.38 333.91 333.38 327.59 324.36
  C 321.56 315.75 316.16 308.89 308.39 302.06
  Q 300.14 294.80 298.16 285.50
  C 295.78 274.30 302.88 269.84 312.97 273.48
  A 2.06 2.05 1.5 0 1 314.24 274.81
  Q 315.52 279.01 315.88 283.59
  C 316.18 287.32 318.80 290.40 321.42 292.94
  C 335.44 306.55 348.78 323.33 357.93 341.12
  Q 362.18 349.38 360.37 359.12
  C 359.26 365.03 357.50 372.02 358.72 377.79
  C 360.23 384.91 366.60 389.52 372.92 392.57
  C 383.39 397.62 394.63 400.31 406.03 402.93
  Q 414.85 404.96 423.67 405.62
  Q 439.14 406.79 458.13 406.36
  C 466.84 406.16 474.89 405.68 483.48 403.34
  Q 490.98 401.31 497.26 401.23
  Q 508.52 401.08 519.53 401.07
  A 0.52 0.51 -16.7 0 0 519.96 400.28
  C 513.53 390.30 505.93 380.91 496.33 373.85
  C 492.13 370.77 487.14 369.35 482.40 367.12
  C 466.80 359.75 451.27 348.09 452.61 328.91
  C 453.83 311.31 467.08 294.15 479.54 280.53
  C 493.11 265.70 508.57 256.96 527.45 252.15
  Q 546.03 247.42 570.57 245.75
  Q 589.78 244.45 610.20 243.35
  A 0.66 0.66 0.0 0 1 610.90 244.04
  L 609.60 269.95
  A 0.30 0.30 0.0 0 0 609.98 270.25
  Q 620.32 267.38 629.84 263.17
  Q 661.60 249.11 694.08 230.42
  Q 705.57 223.81 716.90 215.71
  Q 731.05 205.58 742.63 189.91
  Q 747.13 183.83 747.61 178.30
  Q 748.14 172.19 747.23 165.19
  C 747.13 164.40 746.66 163.66 746.09 163.12
  Q 741.05 158.29 734.69 154.26
  C 716.16 142.50 696.48 132.16 677.16 121.24
  Q 674.29 119.62 671.48 117.68
  Q 671.06 117.39 671.00 116.88
  Q 670.83 115.48 670.91 114.00
  Q 671.23 108.18 671.35 102.73
  Q 671.36 102.09 670.73 101.96
  Q 654.09 98.56 639.07 89.49
  C 629.28 83.58 619.65 77.42 609.44 72.22
  Q 589.36 61.99 567.70 54.13
  Q 504.60 31.25 435.82 23.07
  C 400.97 18.93 366.18 18.42 331.98 26.27
  Q 327.36 27.33 322.62 25.98
  C 303.71 20.61 285.43 16.81 265.70 15.00
  C 258.53 14.34 252.04 14.00 244.54 14.93
  C 229.35 16.80 213.92 18.16 199.62 21.57
  Q 196.02 22.43 193.21 23.77
  A 0.81 0.81 0.0 0 0 192.96 25.05
  C 214.40 48.43 239.19 71.37 259.96 92.72
  Q 260.88 93.67 261.67 94.83
  Q 262.58 96.19 261.21 95.30
  Q 226.44 73.04 193.33 51.78
  C 184.89 46.35 170.37 54.49 162.69 58.44
  Q 158.22 60.74 152.33 64.70
  C 142.55 71.28 131.89 76.72 121.66 84.20
  Q 115.97 88.37 110.90 92.52
  C 90.97 108.86 69.78 125.08 52.29 143.73
  C 35.34 161.79 23.08 183.42 18.22 207.73
  C 14.92 224.22 23.75 236.31 41.20 234.75
  C 49.42 234.01 51.99 229.17 56.72 223.70
  C 60.20 219.68 65.79 220.13 70.22 222.08
  C 71.05 222.44 71.10 223.18 71.38 223.92
  C 73.64 229.99 71.34 234.55 66.36 238.07
  Q 52.45 247.91 38.12 248.75
  C 14.01 250.17 -1.30 231.56 0.40 208.40
  Q 1.34 195.65 6.57 183.43
  Q 17.92 156.89 39.44 135.30
  Q 72.28 102.36 113.24 71.32
  Q 123.17 63.80 133.91 57.86
  Q 142.63 53.04 150.47 48.17
  Q 163.40 40.14 175.81 32.44
  Q 176.19 32.21 175.88 31.89
  Q 171.13 26.92 165.96 22.24
  C 163.76 20.25 161.83 17.92 160.30 15.39
  Q 159.69 14.39 160.85 14.23
  Q 173.32 12.50 185.38 10.46
  Q 190.14 9.66 204.99 6.55
  Q 227.22 1.89 249.88 0.00
  L 265.23 0.00
  Z"
/>
<path fill="#e2a433" d="
  M 651.82 232.71
  Q 651.45 233.89 652.45 233.17
  L 693.85 203.35
  Q 694.34 203.00 693.91 202.59
  L 654.65 165.33
  Q 653.49 164.23 655.01 164.70
  Q 684.87 174.02 715.38 183.63
  Q 716.96 184.13 719.13 182.75
  C 729.30 176.31 707.94 164.25 703.79 161.98
  Q 673.59 145.39 646.95 129.56
  A 1.53 1.53 0.0 0 1 646.20 128.26
  L 646.04 114.77
  A 1.49 1.49 0.0 0 0 645.32 113.51
  Q 629.12 103.60 611.33 95.02
  C 541.04 61.12 463.57 43.27 385.83 48.63
  Q 380.33 49.01 373.67 49.30
  C 345.68 50.51 312.32 62.71 313.28 96.92
  Q 313.68 111.00 319.04 123.88
  Q 319.84 125.81 318.34 124.36
  L 220.26 29.71
  Q 219.77 29.24 220.44 29.15
  Q 256.72 24.32 288.93 27.91
  Q 309.15 30.17 325.59 37.96
  Q 326.13 38.22 326.73 38.12
  Q 392.52 26.76 459.11 36.38
  Q 485.88 40.25 512.00 47.99
  C 555.84 60.99 599.69 77.70 639.28 99.02
  Q 648.56 104.02 657.73 109.81
  Q 658.29 110.17 658.15 110.81
  C 655.54 122.23 677.08 133.30 685.18 137.93
  Q 706.03 149.84 723.48 158.82
  Q 730.26 162.30 732.37 164.90
  C 744.71 180.10 723.34 194.78 712.65 201.81
  C 686.14 219.24 657.76 235.05 630.12 249.71
  Q 629.17 250.21 629.51 249.19
  Q 631.37 243.51 631.10 237.95
  C 630.70 229.69 625.30 227.85 618.37 228.57
  Q 572.92 233.29 532.16 237.43
  C 525.78 238.08 520.87 240.65 514.33 243.35
  Q 491.56 252.74 472.81 269.74
  C 446.87 293.24 438.87 325.93 451.41 358.80
  Q 451.69 359.52 452.34 359.91
  Q 473.55 372.57 495.64 385.73
  Q 496.69 386.35 495.50 386.65
  Q 463.85 394.72 434.73 394.61
  C 414.79 394.54 393.06 390.75 378.54 376.43
  C 376.93 374.84 376.55 372.77 376.40 370.62
  Q 375.85 362.68 376.84 352.58
  Q 377.68 344.15 374.06 336.04
  Q 368.99 324.65 360.12 313.34
  Q 347.01 296.63 333.31 283.81
  Q 329.37 280.13 334.42 280.30
  C 337.22 280.39 343.01 285.58 345.12 287.62
  Q 363.22 305.06 381.07 326.18
  C 386.93 333.11 392.22 340.04 397.37 347.45
  C 414.49 372.08 445.48 389.16 475.87 384.53
  Q 477.79 384.24 475.99 383.51
  Q 459.72 376.98 445.71 366.96
  C 434.17 358.69 423.48 347.52 423.67 332.99
  C 424.12 298.76 444.83 269.85 470.05 248.63
  C 497.49 225.55 530.05 214.83 565.77 210.92
  Q 601.85 206.96 642.06 205.14
  Q 649.32 204.81 652.35 211.07
  C 655.39 217.33 653.88 226.11 651.82 232.71
  Z"
/>
<path fill="#e2a433" d="
  M 302.46 135.64
  Q 301.55 135.39 300.75 135.07
  C 281.30 127.34 261.86 116.14 244.19 103.38
  Q 235.57 97.17 228.75 94.16
  C 202.37 82.53 171.41 91.88 148.18 106.53
  Q 104.47 134.08 72.82 162.52
  C 64.60 169.90 54.97 179.93 53.07 191.14
  Q 52.25 195.94 51.45 201.11
  Q 50.26 208.80 45.71 216.29
  C 43.97 219.15 39.64 225.16 36.09 219.97
  C 31.33 213.01 31.38 202.53 33.68 194.63
  C 39.03 176.34 53.05 159.78 67.12 145.84
  Q 83.64 129.48 98.29 119.11
  Q 132.77 94.73 172.75 66.84
  C 177.75 63.35 188.75 56.71 193.47 61.50
  Q 194.73 62.79 196.19 63.77
  Q 249.07 99.39 302.28 135.00
  Q 302.54 135.17 302.63 135.47
  Q 302.69 135.70 302.46 135.64
  Z"
/>
<path fill="#e2a433" d="
  M 566.11 115.46
  Q 549.42 120.78 534.39 127.63
  Q 533.94 127.84 533.47 127.66
  Q 527.75 125.51 521.55 121.75
  Q 507.67 113.34 494.27 105.07
  Q 485.63 99.74 477.03 95.56
  Q 474.02 94.10 477.34 93.64
  Q 481.51 93.06 486.99 93.48
  Q 509.83 95.23 531.45 100.74
  C 543.75 103.87 556.73 108.10 566.20 114.85
  A 0.35 0.34 53.7 0 1 566.11 115.46
  Z"
/>
</svg>
