<?xml version="1.0" encoding="UTF-8" standalone="no"?>
<!-- Created with Inkscape (http://www.inkscape.org/) -->

<svg
   width="1290.1957"
   height="1291.9979"
   viewBox="0 0 341.36427 341.84113"
   version="1.1"
   id="svg5"
   xmlns="http://www.w3.org/2000/svg"
   xmlns:svg="http://www.w3.org/2000/svg">
  <defs
     id="defs2" />
  <g
     id="layer1"
     transform="translate(0,44.841129)">
    <g
       id="g4703"
       transform="matrix(0.26458333,0,0,0.26458333,0.04972786,-44.577079)">
      <path
         fill="#620911"
         d="m 1129.96,0 -16.98,1.08 -82.58,0.21 q -6.91,-1.57 -15.5,0.08 -3.15,-0.07 -6.71,0.79 -0.63,0.16 -1.41,-0.45 -0.41,-0.31 -0.91,-0.31 -4.11,0.08 -7.65,-0.32 -1.76,-0.2 -7.81,-0.2 Q 495.21,0.97 0,0.91 V 0 Z"
         id="path2350" />
      <path
         fill="#ffffff"
         d="m 767.49,455.76 13.56,0.14 12.48,0.02 76.93,-0.1 22.51,0.09 11.67,0.16 10.83,2.12 2.97,1.19 4.02,2.03 4.83,3.19 q 6.62,5.32 10.95,12.89 7.64,14.2 4.76,28.76 -13.7,69.29 -27.37,138.74 -3.62,18.17 -7.2,36.45 -2.81,14.38 -4.95,19.36 -6.57,15.29 -21.92,23.97 -10.3,5.82 -20.57,5.96 -20.05,0.28 -87.09,-0.12 -14.84,-2.15 -25.65,-11.68 l -15.19,-13.97 -6.4,-7.91 q -5.98,-9.01 -7.22,-19.59 -0.94,-9.06 1.07,-17.9 l 8.39,-42.55 4.57,-23.03 2.48,-12.49 5.43,-27.35 q 2.59,-12.74 5.38,-26.28 2.91,-14.14 14.94,-21.13 a 0.51,0.51 0 0 0 0.09,-0.81 l -24.02,-22.43 a 0.5,0.5 0 0 0 -0.83,0.28 l -16.92,85.77 -1.66,8.72 -4.98,24.82 -2.86,14.63 q -6.21,31.34 -12.29,62.74 -2.97,15.28 -4.68,19.38 c -7.55,18.07 -25.1,31.04 -45.3,30.97 q -56.64,-0.18 -93.72,0 -4.86,0.03 -9.36,-5.02 -0.33,-0.38 -0.79,-0.16 -10.37,5.08 -21.37,5.09 -77.02,0.1 -78.27,0.11 -18.59,0.12 -32.08,-11.52 -6.68,-5.76 -15.12,-14.05 -13.56,-13.31 -14.44,-31.01 -0.28,-5.54 2.04,-17.35 6.1,-31.02 25.43,-128.6 2.82,-14.21 15.04,-21.43 0.74,-0.43 0.11,-1.02 -16.65,-15.63 -27.69,-25.87 c -6.27,-5.8 -7.21,-14.16 -1.23,-20.18 q 3.73,-3.77 10.95,-3.77 86.59,-0.06 158.28,0.04 c 14.47,0.01 27.32,7.26 35.02,19.4 q 8.47,13.36 5.79,30.53 -1.07,6.9 -2.47,14.25 l -18.82,95.11 -7.98,40.45 -3.43,17.66 -2.02,9.85 a 0.33,0.33 0 0 0 0.45,0.38 q 6.87,-2.77 14.48,-2.7 3.8,0.03 35.39,-0.01 0.5,0 0.81,-0.39 0.71,-0.87 0.88,-2.04 l 2.63,-13.31 15.63,-78.71 q 5.78,-29.67 11.81,-59.31 0.31,-1.55 1.55,-5.16 l 3.64,-6.62 q 3.98,-5.21 9.93,-8.73 a 0.32,0.32 0 0 0 0.05,-0.51 l -22.4,-20.76 -6.56,-6.14 -1.41,-1.65 q -2.43,-3.19 -2.86,-7.13 0.14,-11.27 9.69,-13.76 2.16,-0.56 6.39,-0.6 3.24,-0.03 6.44,0 l 6.38,-0.05 h 40.64 q 11.08,0.25 22.1,0.23 2.09,0 5.83,2.03 0.44,0.24 0.86,-0.04 c 3.9,-2.56 7.59,-2.34 12.75,-2.39 z m -312.83,59.89 q -3.18,0.25 -9.17,0.07 -6.09,-0.18 -9.43,0.82 -10.55,3.18 -12.87,14.91 -21.98,111.51 -24.66,124.8 -2.82,13.94 -2.24,19.08 1.26,11.26 9.48,19.67 8.22,8.41 16.02,14.84 6.8,5.61 14.96,7.28 3.11,0.64 16.14,0.66 32.68,0.07 68.11,-0.04 11.91,-0.04 19.37,-4.91 c 8.96,-5.86 15.39,-14.12 17.57,-25.14 q 19.29,-97.55 34.09,-172.74 2.48,-12.62 2.57,-15.4 c 0.32,-11 -5.1,-21.24 -14.35,-26.74 q -6.05,-3.59 -15.75,-3.59 -147.03,-0.01 -156.95,-0.01 -1.94,-0.01 -0.52,1.32 l 47.8,44.64 q 0.46,0.43 -0.17,0.48 z m 243.05,0.26 q -5.55,0.09 -11.41,0.06 -6.27,-0.04 -9.03,1.32 -5.23,2.58 -8.28,7.17 -1.49,2.23 -3.02,9.94 -14.18,71.74 -28.34,143.48 c -0.69,3.52 -1.2,6.76 -3.1,9.62 q -2.25,3.36 -6.67,5.59 -2.53,1.27 -8.25,1.14 -4.44,-0.1 -34.36,-0.02 -7.96,0.02 -13.2,5.59 -6.39,6.78 -15.91,17.14 a 0.48,0.48 0 0 0 0.36,0.81 q 44.46,0.09 92.81,-0.03 c 12.79,-0.03 24.83,-8.66 30.75,-19.61 q 2.15,-3.99 4.96,-18.27 5.53,-28.14 40.48,-205.81 0.38,-1.93 0.68,-4.39 a 0.37,0.37 0 0 0 -0.38,-0.42 l -75.85,0.01 a 0.36,0.36 0 0 0 -0.27,0.6 q 1.18,1.32 2.5,2.54 23.02,21.47 45.82,42.8 0.77,0.73 -0.29,0.74 z m 92.89,-0.19 q -3.55,0.1 -13.31,0.03 c -9.46,-0.07 -16.34,6.37 -18.15,15.63 q -3.3,16.86 -25.94,131.54 -3.07,15.58 3.81,26.18 2.76,4.25 9.66,10.79 c 8.03,7.62 15.39,15.18 26.25,17.26 q 3.05,0.59 16.72,0.61 58.05,0.08 61.36,0.06 10.93,-0.09 14.5,-0.78 c 11,-2.14 21.2,-10.59 25.82,-20.95 q 1.67,-3.77 3.65,-13.78 27.16,-137.54 34.63,-175.48 3.37,-17.11 -6.52,-28.27 -3.73,-4.22 -8.45,-6.53 -5.69,-2.79 -10.88,-2.79 -135.56,-0.02 -161.05,-0.03 a 0.37,0.37 0 0 0 -0.37,0.41 q 0.04,0.35 0.39,0.67 24.8,23.06 48.07,44.94 a 0.28,0.28 0 0 1 -0.19,0.49 z"
         id="path2708" />
      <path
         fill="#ffffff"
         d="m 257.39,662.28 q -0.57,-1.46 -0.87,0.08 -0.38,1.93 -6.96,35.33 -2.42,12.25 -4.45,16.13 c -5.7,10.89 -16.65,16.92 -29.11,16.93 q -28.83,0.04 -35.91,0.05 -6.25,0.01 -8.86,-1.33 -5.45,-2.79 -7.09,-8.78 -0.75,-2.71 0.37,-8.37 13.22,-66.77 36.19,-183.58 2.84,-14.44 15.16,-21.79 a 0.71,0.71 0 0 0 0.12,-1.13 q -5.45,-5.13 -28.56,-26.7 c -6.95,-6.48 -5.17,-17.64 3.02,-21.75 q 2.76,-1.38 10.93,-1.38 142.36,0.01 154.14,0.03 c 14.19,0.03 26.67,6.21 34.79,17.81 q 6.84,9.77 7.71,21.76 0.4,5.6 -2.21,18.74 -5.12,25.67 -17.77,89.92 -2.72,13.82 -5.18,19.24 c -6.47,14.28 -19.57,24.91 -35.14,28.29 a 0.38,0.38 0 0 0 -0.28,0.51 q 12.03,31.57 36.01,94.75 2.85,7.51 2.6,10.39 c -0.66,7.41 -7.14,12.82 -14.82,12.03 q -2.59,-0.27 -7.73,-3.11 -27.29,-15.1 -61.23,-33.95 -10.31,-5.73 -15.1,-18.35 -15.42,-40.63 -19.77,-51.77 z M 245.24,515.55 q -0.32,0.27 -0.68,0.26 -12.55,-0.01 -13.77,0.01 -9.48,0.15 -14.64,8.79 -2.01,3.36 -2.79,7.31 -19.86,101.02 -36.55,185.42 a 0.35,0.35 0 0 0 0.34,0.42 q 12.48,0.09 30.75,0 11.13,-0.05 13.19,-0.53 7.58,-1.78 11.41,-7.79 2.12,-3.31 3.84,-12.14 7.92,-40.46 40.21,-204.27 a 0.28,0.28 0 0 1 0.27,-0.23 q 21.93,-0.06 49.16,0 1.68,0 3.34,0.74 0.46,0.21 0.58,0.71 0.54,2.41 0.21,4.11 -20.27,102.93 -20.6,104.63 -1.48,7.51 -7.93,11.32 -2.91,1.72 -5.57,1.71 -20.2,-0.06 -41.29,-0.03 a 0.62,0.62 0 0 0 -0.58,0.84 q 5.99,15.82 34.86,91.7 2.62,6.88 7.77,11.13 1.5,1.23 11.38,6.69 51.98,28.75 53.4,29.53 1.63,0.91 0.97,-0.84 L 318.91,640.27 a 0.47,0.47 0 0 1 0.43,-0.64 q 8.61,-0.1 10.43,-0.15 c 12.77,-0.3 24.54,-8.53 30.33,-19.65 q 2.53,-4.85 4.93,-17.05 15.32,-77.9 17.8,-89.99 1.53,-7.46 2.01,-12.02 c 1.44,-13.35 -7.57,-26.91 -20.31,-30.52 q -3.71,-1.05 -19.68,-1.04 -31.48,0.02 -147.07,0 -1.88,0 -0.49,1.29 l 47.97,44.78 a 0.19,0.17 -43 0 1 -0.02,0.27 z m 23.03,86.95 a 0.44,0.44 0 0 0 0.44,0.53 l 27.13,-0.1 a 0.44,0.44 0 0 0 0.43,-0.35 l 19,-96.3 a 0.44,0.44 0 0 0 -0.44,-0.52 l -27.15,-0.01 a 0.44,0.44 0 0 0 -0.43,0.36 z"
         id="path2710" />
      <path
         fill="#ffffff"
         d="m 1156.95,467.44 -0.1,5.11 -4.55,22.48 q -2,9.71 -3.92,19.43 -2.58,13.07 -4.72,16.93 -5.48,9.86 -16.5,14.27 c -3.7,1.48 -8.5,1.98 -12.66,2.09 q -7.27,0.19 -14.55,-0.02 -11.21,-0.01 -22.45,0.06 -9.02,0.05 -14.34,-8.19 0.37,-15.89 4.83,-33.03 a 0.66,0.66 0 0 0 -0.64,-0.82 q -11.44,-0.04 -16.33,0.03 -7.05,0.1 -10.64,4.82 -2.04,2.67 -3.27,9.66 -0.87,4.94 -2.01,10.07 a 1.44,1.44 0 0 0 0.43,1.36 l 23.8,22.21 16.5,15.39 7.52,6.99 5.41,5.11 9.56,8.88 7.6,7.11 18.32,17.06 q 3.59,5.28 2.36,11.37 -1.69,8.3 -7.97,40.27 -2.66,13.57 -4.87,19.37 c -9.79,25.8 -35.42,45.28 -63.52,45.29 q -85.86,0.01 -120.24,0.04 -10.02,0 -13.22,-10.08 -0.53,-3.42 0.02,-6.18 4.55,-22.87 9.11,-45.78 0.87,-4.94 2.09,-9.84 1.25,-5.01 5.49,-7.91 17.26,-11.85 34.55,-23.67 l 13.43,-9.2 5.81,-4.02 10.15,-6.79 a 0.64,0.64 0 0 0 0.08,-0.99 L 991.82,601 968.5,579.28 955.78,567.48 c -4.32,-4.35 -8.34,-7.87 -7.04,-14.73 q 0.87,-4.6 3.44,-17.96 2.28,-11.87 4.67,-15.93 4.59,-7.78 12.13,-12.22 a 0.51,0.51 0 0 0 0.09,-0.81 l -30.66,-28.56 q -6.08,-10.5 2.06,-18.06 2.7,-2.51 6.7,-3.06 0.88,-0.13 7.17,-0.13 94.33,-0.03 188.65,-0.03 11.66,0 13.96,11.45 z M 990.51,693.99 q -0.85,0 -0.68,-0.83 l 14.53,-74.05 q 0.17,-0.84 -0.54,-0.35 l -62.2,42.51 a 3.38,3.38 0 0 0 -1.41,2.14 l -10.63,53.79 a 0.49,0.49 0 0 0 0.48,0.59 q 84.97,0 106.96,-0.02 16.15,-0.02 19.94,-0.56 c 19.13,-2.74 35.48,-16.13 43.45,-33.42 q 2.66,-5.78 5.24,-19.23 2.91,-15.09 8.08,-40.86 a 1.81,1.81 0 0 0 -0.54,-1.68 l -91.14,-85.09 a 3.14,3.14 0 0 1 -0.93,-2.94 q 2.01,-9.51 3.39,-17.17 1.19,-6.57 3.08,-10.19 4.58,-8.78 13.3,-12.14 4.95,-1.9 16.88,-1.78 3.31,0.04 25.91,0.07 a 0.22,0.21 5.6 0 1 0.21,0.26 l -7.94,40.48 q -0.21,1.07 0.88,1.06 33.08,-0.12 38.17,0.04 9.83,0.31 15.6,-7.26 2.7,-3.55 3.84,-9.38 3.92,-20.11 9.46,-47.74 a 0.87,0.87 0 0 0 -0.85,-1.04 H 949.67 a 0.35,0.35 0 0 0 -0.23,0.61 l 48.59,45.39 a 0.58,0.31 -12 0 1 -0.64,0.55 q -0.09,0 -12.14,0 -10.57,0.01 -15.97,7.83 -2.3,3.34 -3.77,10.92 -2.79,14.34 -3.85,19.79 a 1.22,1.22 0 0 0 0.37,1.12 l 91.86,85.72 a 1.84,1.84 0 0 1 0.54,1.7 q -4.22,21.01 -5.06,25.66 -1.69,9.31 -4.23,13.43 -4.58,7.42 -12.5,10.43 -5.23,1.99 -15.34,1.71 -6.41,-0.17 -26.79,-0.07 z m 26.97,-69.04 a 0.61,0.6 -63 0 0 -1.01,0.33 l -10.88,55.21 a 0.4,0.4 0 0 0 0.38,0.47 q 8.18,0.1 16.52,0.03 6.7,-0.05 10.27,-4.11 2.32,-2.64 3.52,-9.45 0.5,-2.82 4.02,-20.42 a 1.06,1.05 27.3 0 0 -0.32,-0.98 z"
         id="path2712" />
      <path
         fill="#f80e0f"
         d="m 245.24,515.55 a 0.19,0.17 -43 0 0 0.02,-0.27 L 197.29,470.5 q -1.39,-1.29 0.49,-1.29 115.59,0.02 147.07,0 15.97,-0.01 19.68,1.04 c 12.74,3.61 21.75,17.17 20.31,30.52 q -0.48,4.56 -2.01,12.02 -2.48,12.09 -17.8,89.99 -2.4,12.2 -4.93,17.05 c -5.79,11.12 -17.56,19.35 -30.33,19.65 q -1.82,0.05 -10.43,0.15 a 0.47,0.47 0 0 0 -0.43,0.64 l 43.61,114.77 q 0.66,1.75 -0.97,0.84 -1.42,-0.78 -53.4,-29.53 -9.88,-5.46 -11.38,-6.69 -5.15,-4.25 -7.77,-11.13 -28.87,-75.88 -34.86,-91.7 a 0.62,0.62 0 0 1 0.58,-0.84 q 21.09,-0.03 41.29,0.03 2.66,0.01 5.57,-1.71 6.45,-3.81 7.93,-11.32 0.33,-1.7 20.6,-104.63 0.33,-1.7 -0.21,-4.11 -0.12,-0.5 -0.58,-0.71 -1.66,-0.74 -3.34,-0.74 -27.23,-0.06 -49.16,0 a 0.28,0.28 0 0 0 -0.27,0.23 q -32.29,163.81 -40.21,204.27 -1.72,8.83 -3.84,12.14 -3.83,6.01 -11.41,7.79 -2.06,0.48 -13.19,0.53 -18.27,0.09 -30.75,0 a 0.35,0.35 0 0 1 -0.34,-0.42 q 16.69,-84.4 36.55,-185.42 0.78,-3.95 2.79,-7.31 5.16,-8.64 14.64,-8.79 1.22,-0.02 13.77,-0.01 0.36,0.01 0.68,-0.26 z"
         id="path2718" />
      <path
         fill="#f80e0f"
         d="m 454.83,515.17 -47.8,-44.64 q -1.42,-1.33 0.52,-1.32 9.92,0 156.95,0.01 9.7,0 15.75,3.59 c 9.25,5.5 14.67,15.74 14.35,26.74 q -0.09,2.78 -2.57,15.4 -14.8,75.19 -34.09,172.74 c -2.18,11.02 -8.61,19.28 -17.57,25.14 q -7.46,4.87 -19.37,4.91 -35.43,0.11 -68.11,0.04 -13.03,-0.02 -16.14,-0.66 -8.16,-1.67 -14.96,-7.28 -7.8,-6.43 -16.02,-14.84 -8.22,-8.41 -9.48,-19.67 -0.58,-5.14 2.24,-19.08 2.68,-13.29 24.66,-124.8 2.32,-11.73 12.87,-14.91 3.34,-1 9.43,-0.82 5.99,0.18 9.17,-0.07 0.63,-0.05 0.17,-0.48 z m -1.15,164.37 c 4.4,4.18 9.24,8.97 13.96,12.89 q 1.81,1.51 4.11,1.52 2.43,0.01 17.5,0.04 3.57,0.01 5.79,-1.19 4.53,-2.46 7.02,-6.75 1.13,-1.96 2.51,-8.98 17.59,-89.38 35.28,-178.74 0.42,-2.12 -0.38,-4.07 -0.19,-0.47 -0.65,-0.67 -1.92,-0.81 -6.07,-0.81 -28.16,-0.01 -37.35,0.02 -4.45,0.02 -6,0.65 c -3.89,1.6 -4.54,5.92 -5.28,9.7 q -11.78,60.19 -32.42,165.08 c -0.97,4.96 -1.29,8.21 1.98,11.31 z"
         id="path2720" />
      <path
         fill="#f80e0f"
         d="m 697.71,515.91 q 1.06,-0.01 0.29,-0.74 -22.8,-21.33 -45.82,-42.8 -1.32,-1.22 -2.5,-2.54 a 0.36,0.36 0 0 1 0.27,-0.6 l 75.85,-0.01 a 0.37,0.37 0 0 1 0.38,0.42 q -0.3,2.46 -0.68,4.39 -34.95,177.67 -40.48,205.81 -2.81,14.28 -4.96,18.27 c -5.92,10.95 -17.96,19.58 -30.75,19.61 q -48.35,0.12 -92.81,0.03 a 0.48,0.48 0 0 1 -0.36,-0.81 q 9.52,-10.36 15.91,-17.14 5.24,-5.57 13.2,-5.59 29.92,-0.08 34.36,0.02 5.72,0.13 8.25,-1.14 4.42,-2.23 6.67,-5.59 c 1.9,-2.86 2.41,-6.1 3.1,-9.62 q 14.16,-71.74 28.34,-143.48 1.53,-7.71 3.02,-9.94 3.05,-4.59 8.28,-7.17 2.76,-1.36 9.03,-1.32 5.86,0.03 11.41,-0.06 z"
         id="path2722" />
      <path
         fill="#f80e0f"
         d="m 790.6,515.72 a 0.28,0.28 0 0 0 0.19,-0.49 q -23.27,-21.88 -48.07,-44.94 -0.35,-0.32 -0.39,-0.67 a 0.37,0.37 0 0 1 0.37,-0.41 q 25.49,0.01 161.05,0.03 5.19,0 10.88,2.79 4.72,2.31 8.45,6.53 9.89,11.16 6.52,28.27 -7.47,37.94 -34.63,175.48 -1.98,10.01 -3.65,13.78 c -4.62,10.36 -14.82,18.81 -25.82,20.95 q -3.57,0.69 -14.5,0.78 -3.31,0.02 -61.36,-0.06 -13.67,-0.02 -16.72,-0.61 c -10.86,-2.08 -18.22,-9.64 -26.25,-17.26 q -6.9,-6.54 -9.66,-10.79 -6.88,-10.6 -3.81,-26.18 22.64,-114.68 25.94,-131.54 c 1.81,-9.26 8.69,-15.7 18.15,-15.63 q 9.76,0.07 13.31,-0.03 z m 58.4,118.7 q 26.71,-135.84 26.83,-136.49 0.94,-5.02 -4.23,-5.08 -9.58,-0.12 -40.18,-0.06 -4.69,0.01 -6.5,0.92 -3.24,1.62 -4.09,5.9 -28.2,143.18 -33.24,168.96 c -0.8,4.15 -1.77,7.41 2.64,11.53 q 10.65,9.96 13.83,12.74 1.24,1.08 3.2,1.12 3.68,0.08 16.67,0.02 5.07,-0.02 7.12,-1.18 3.58,-2.04 6.09,-5.26 1.76,-2.25 3.35,-10.25 6.39,-32.1 8.51,-42.87 z"
         id="path2724" />
      <path
         fill="#f80e0f"
         d="m 990.51,693.99 q 20.38,-0.1 26.79,0.07 10.11,0.28 15.34,-1.71 7.92,-3.01 12.5,-10.43 2.54,-4.12 4.23,-13.43 0.84,-4.65 5.06,-25.66 a 1.84,1.84 0 0 0 -0.54,-1.7 l -91.86,-85.72 a 1.22,1.22 0 0 1 -0.37,-1.12 q 1.06,-5.45 3.85,-19.79 1.47,-7.58 3.77,-10.92 5.4,-7.82 15.97,-7.83 12.05,0 12.14,0 a 0.58,0.31 -12 0 0 0.64,-0.55 l -48.59,-45.39 a 0.35,0.35 0 0 1 0.23,-0.61 h 193.38 a 0.87,0.87 0 0 1 0.85,1.04 q -5.54,27.63 -9.46,47.74 -1.14,5.83 -3.84,9.38 -5.77,7.57 -15.6,7.26 -5.09,-0.16 -38.17,-0.04 -1.09,0.01 -0.88,-1.06 l 7.94,-40.48 a 0.22,0.21 5.6 0 0 -0.21,-0.26 q -22.6,-0.03 -25.91,-0.07 -11.93,-0.12 -16.88,1.78 -8.72,3.36 -13.3,12.14 -1.89,3.62 -3.08,10.19 -1.38,7.66 -3.39,17.17 a 3.14,3.14 0 0 0 0.93,2.94 l 91.14,85.09 a 1.81,1.81 0 0 1 0.54,1.68 q -5.17,25.77 -8.08,40.86 -2.58,13.45 -5.24,19.23 c -7.97,17.29 -24.32,30.68 -43.45,33.42 q -3.79,0.54 -19.94,0.56 -21.99,0.02 -106.96,0.02 a 0.49,0.49 0 0 1 -0.48,-0.59 l 10.63,-53.79 a 3.38,3.38 0 0 1 1.41,-2.14 l 62.2,-42.51 q 0.71,-0.49 0.54,0.35 l -14.53,74.05 q -0.17,0.83 0.68,0.83 z"
         id="path2726" />
      <path
         fill="#ffffff"
         d="m 467.64,692.43 c -4.72,-3.92 -9.56,-8.71 -13.96,-12.89 -3.27,-3.1 -2.95,-6.35 -1.98,-11.31 q 20.64,-104.89 32.42,-165.08 c 0.74,-3.78 1.39,-8.1 5.28,-9.7 q 1.55,-0.63 6,-0.65 9.19,-0.03 37.35,-0.02 4.15,0 6.07,0.81 0.46,0.2 0.65,0.67 0.8,1.95 0.38,4.07 -17.69,89.36 -35.28,178.74 -1.38,7.02 -2.51,8.98 -2.49,4.29 -7.02,6.75 -2.22,1.2 -5.79,1.19 -15.07,-0.03 -17.5,-0.04 -2.3,-0.01 -4.11,-1.52 z m 13.1,-104.14 -0.71,3.67 -15.54,78.94 a 1.3,1.3 0 0 0 0.38,1.2 l 8.56,8.06 a 3.09,3.08 -23.3 0 0 2.12,0.84 l 13.17,0.01 a 2.14,2.13 5.6 0 0 2.09,-1.72 l 15.51,-78.53 4.09,-20.79 14.57,-73.82 q 0.07,-0.38 -0.32,-0.38 l -27.12,-0.02 q -0.55,0 -0.66,0.54 z"
         id="path2752" />
      <path
         fill="#ffffff"
         d="m 849,634.42 q -2.12,10.77 -8.51,42.87 -1.59,8 -3.35,10.25 -2.51,3.22 -6.09,5.26 -2.05,1.16 -7.12,1.18 -12.99,0.06 -16.67,-0.02 -1.96,-0.04 -3.2,-1.12 -3.18,-2.78 -13.83,-12.74 c -4.41,-4.12 -3.44,-7.38 -2.64,-11.53 q 5.04,-25.78 33.24,-168.96 0.85,-4.28 4.09,-5.9 1.81,-0.91 6.5,-0.92 30.6,-0.06 40.18,0.06 5.17,0.06 4.23,5.08 -0.12,0.65 -26.83,136.49 z M 829.99,520.81 800.39,671.1 q -0.11,0.56 0.31,0.96 l 8.89,8.26 a 2.47,2.46 66.3 0 0 1.69,0.67 l 10.23,-0.04 c 2.5,0.26 4.79,0.64 5.42,-2.51 Q 844.3,590.7 860.89,506.51 a 0.66,0.66 0 0 0 -0.65,-0.79 l -26.77,0.01 a 0.63,0.62 -84.3 0 0 -0.6,0.5 z"
         id="path2754" />
      <path
         fill="#ffffff"
         d="m 707.29,758.03 q 4.23,3.45 4.28,9.23 0.03,3.12 -0.41,6.15 a 0.54,0.54 0 0 0 0.57,0.62 q 10.65,-0.64 21.29,-0.94 8.17,-0.24 15.48,0.37 6.27,0.52 10.21,1.82 4.52,1.5 4.81,6.85 -0.11,1.78 -0.06,3.69 0.05,1.91 0.93,3.47 2.8,4.91 3.49,9.5 c 0.84,5.59 -5.49,11.04 -9.9,13.75 q -0.48,0.3 -5.46,2.9 -2.8,1.47 -5.57,2.65 -4.2,1.8 -8.06,4.42 -24.64,16.78 -35.49,23.81 -3.2,2.07 -4.25,2.97 -2.13,1.84 -4.17,2.98 a 2.14,2.14 0 0 0 -1.06,1.47 q -2.68,14.27 -4.51,28.47 c -0.21,1.62 -0.65,3.4 -1.15,4.99 q -0.36,1.14 -0.53,3.77 -0.42,6.19 -1.19,11.1 -0.76,4.77 -1.94,6.37 -3.33,4.5 -8.42,3.38 -2.23,-0.5 -4,-2.3 -3.19,-3.27 -5.85,-5.68 -1.96,-1.78 -8.65,-11.68 c -2.21,-3.28 -1.9,-6.8 -1.15,-10.4 q 2.37,-11.48 3.93,-23.02 1.26,-4.2 0.38,-7.46 -2.25,-3.93 -0.46,-7.15 1.32,-2.38 2.56,-4.82 1.19,-2.35 1.71,-5.12 1.05,-5.62 2.12,-11.21 l 5.51,-26.27 q 0.11,-0.5 -0.13,-0.95 l -3.39,-6.42 c -2.77,-5.97 0.62,-10.71 6.45,-12.44 a 2.21,2.21 0 0 0 1.54,-1.72 q 0.54,-2.94 1.06,-7.09 c 0.21,-1.64 2.46,-4.27 3.83,-5.28 q 4.16,-3.07 10.09,-5.05 2.03,-0.68 5.59,-0.75 c 2.35,-0.05 6.48,-1.16 9.97,1.02 z m -4.82,21.84 c 0.55,-3.46 2.4,-9.88 1.42,-14.74 a 1.33,1.33 0 0 0 -1.34,-1.06 c -4.29,0.09 -7.86,0.04 -11.76,2.13 q -1.66,0.9 -4.55,2.54 a 2.71,2.71 0 0 0 -1.35,2.03 q -0.71,5.87 -2.48,12.29 a 0.47,0.47 0 0 1 -0.45,0.35 q -2.95,0.02 -5.74,1.03 a 1.21,1.21 0 0 0 -0.56,1.85 c 2.07,2.81 4.86,7.74 4.11,11.47 q -1.34,6.7 -6.65,31.17 -0.7,3.2 -0.91,5.25 c -0.5,5 -1.96,7.61 -4.63,12.69 q -0.27,0.52 0.22,0.85 0.37,0.24 0.57,0.7 0.21,0.46 0.25,0.97 0.33,4.61 -0.57,9.9 -3.58,21.07 -4.5,25.79 c -0.69,3.53 2.21,4.27 3.28,6.63 1.23,2.72 2.47,3.66 4.33,6.23 q 0.79,1.09 2.67,2.68 2.36,1.99 3.79,3.5 a 0.63,0.63 0 0 0 1.08,-0.32 q 1.13,-5.7 1.51,-14.03 c 0.12,-2.71 1.25,-5.55 1.66,-8.24 q 3.26,-20.97 3.89,-24.79 1.01,-6.06 1.63,-7.84 0.58,-1.64 2.14,-2.37 c 3.23,-1.51 6.02,-3.92 8.64,-5.65 q 28.71,-18.85 35.13,-23.6 6.34,-4.68 15.64,-8.44 c 3.89,-1.56 8.98,-4.61 11.21,-8.29 a 1.89,1.88 53.8 0 0 0.22,-1.42 q -0.83,-3.4 -2.39,-5.82 -1.98,-3.08 -2.13,-4.62 -0.27,-2.77 0.4,-5.29 a 1.18,1.17 -77.1 0 0 -0.91,-1.46 q -9.68,-1.85 -21.55,-1.48 -13.79,0.43 -26.19,1.34 -0.7,0.05 -4.6,-1.09 -0.64,-0.19 -0.53,-0.84 z"
         id="path2950" />
      <path
         fill="#ffffff"
         d="m 635.25,764.56 q 3.04,1.92 6.58,4.36 1.73,1.19 2.65,4.92 l 0.55,5.4 q -1.47,5.96 -4.2,11.41 -1.4,2.79 -4.92,9.99 -0.45,0.92 -2.56,3.13 c -2.22,2.34 -3.36,4.81 -4.56,7.67 q -13.18,30.81 -15.72,38.91 -1.61,5.13 -2.71,8.51 -0.55,1.67 0.81,0.56 2.46,-2 5.23,-3.67 3.35,-2.01 5.23,-3.57 5.12,-4.23 9.77,-7.26 3.7,-2.41 6.17,-2.5 8.08,-0.28 9.93,6.94 0.59,2.27 0.03,4.41 -0.5,1.91 -1.87,4.15 -5.2,8.52 -10.88,17.36 -1.92,2.99 -3.03,7.52 l -2.48,3.2 q -2.73,1.33 -6.19,5.08 -4.63,5.05 -15.75,11.93 -8.92,3.31 -15.98,-1.04 -4.07,-3.51 -9.08,-5.33 -5.59,-2.81 -8.56,-7.55 c -2.63,-9.31 -0.66,-20.38 2.57,-29.37 q 7.73,-21.55 15.61,-42.36 5.91,-15.59 20.33,-45.29 1.64,-3.37 1.91,-4.51 0.5,-2.09 1.37,-4.75 c 1.64,-5.01 9.46,-5.43 12.89,-2.96 q 3.08,2.23 6.86,4.71 z m -37.8,111.83 q 5.35,-19.43 9.22,-30 6.8,-18.57 19.77,-47.97 0.23,-0.5 0.78,-0.48 0.84,0.03 1.6,-0.31 0.46,-0.2 0.64,-0.67 1.02,-2.52 4.72,-9.47 1.62,-3.05 3.26,-8.49 0.33,-1.07 0.03,-2.85 -0.19,-1.1 -1.61,-2.13 -2.89,-2.09 -4.19,-2.71 -2.33,-1.12 -3.97,-2.62 -2.14,-1.94 -4.26,-3.01 a 0.95,0.95 0 0 0 -1.37,0.66 q -0.88,4.44 -2.12,6.94 c -9.4,18.91 -18.84,39.94 -26.49,61.03 q -4.2,11.59 -8.82,23.85 -1.62,4.31 -2.69,8.55 -1.5,5.97 -1.76,8.83 c -0.4,4.33 -1.13,9.93 2.18,12.35 q 2.99,2.18 6.36,3.47 c 3.28,1.25 5.85,4.42 8.67,5.3 5.74,1.8 9.77,-2.37 15.14,-6.56 q 3.01,-2.34 5.92,-5.25 3.3,-3.28 4.7,-4.36 1.46,-1.14 2.21,-2.82 c 1.2,-2.72 2.61,-5.75 4.1,-8.18 q 3.74,-6.12 10.69,-17.47 a 1.4,1.4 0 0 0 -1.26,-2.13 q -0.49,0.03 -1.28,0.23 c -2.21,0.57 -5.19,3.27 -8.79,6.07 q -3.79,2.95 -7.43,5.29 -7.72,4.96 -19.71,14.2 -1.64,1.27 -3.82,1.26 -0.57,0 -0.42,-0.55 z"
         id="path2952" />
      <path
         fill="#ffffff"
         d="m 521.76,826.26 q -0.43,0.35 0.12,0.26 1.64,-0.27 16.15,-2.54 4.52,-0.71 8.94,-0.49 5.48,0.28 12.31,-0.51 2.22,-0.26 4.73,1.61 1.91,1.42 6.23,5.67 6.6,6.5 8.17,12.79 c 1.54,6.2 -3.14,9.84 -7.76,14.36 q -1.85,1.82 -3.58,2.86 c -1.8,1.08 -2.72,2.88 -4.8,3.85 q -2.78,1.3 -10.95,7.22 -1.24,0.9 -7.62,4.71 -4.18,2.49 -7.46,4.94 -8.16,6.09 -20.71,14.54 -6.93,4.68 -15.24,11.74 -7.16,6.09 -14.83,0.57 -1.24,-0.89 -8.45,-8.56 -3.39,-3.6 -3.84,-6.3 -0.94,-5.63 3.04,-10.03 3.26,-3.6 12.53,-10.72 10.34,-7.94 21.91,-15.64 0.19,-0.12 0.01,-0.25 l -0.23,-0.16 q -0.02,-0.01 -0.04,0 -1.21,0.65 -2.41,1.33 -1.17,0.66 -2.49,0.9 -15.36,2.78 -25.14,-8.77 -4.49,-5.3 -4.83,-5.68 -3.56,-4.13 -4.44,-5.99 -3.06,-6.49 2.36,-13.51 11.36,-14.73 26.61,-26.17 c 14.32,-10.74 25.99,-17.23 45.6,-28.88 1.38,-0.83 3.69,-1.38 5.35,-2.44 q 6.12,-3.95 8.6,-5.36 5.07,-2.91 9.8,-0.58 1.83,0.9 5.04,4.76 1,1.2 6.55,9.18 3.75,5.38 0.2,11.94 -0.35,0.66 -4.01,4.06 -1.89,1.76 -4.85,2.84 -1.59,0.58 -8.29,3.59 -3.5,1.57 -5.35,3.11 c -2.11,1.76 -4.35,2.75 -6.71,4.9 q -3.26,2.96 -8.19,5.76 -4.52,2.56 -7.26,4.59 -3.55,2.63 -7.13,4.88 -3.3,2.07 -7.64,5.62 z m 24.5,16.51 c -1.8,1.9 -3.99,3.75 -6.51,5.04 q -7.45,3.8 -14.5,8.19 -23.05,14.35 -41.59,29.89 c -2.07,1.73 -4.43,4.46 -2.52,6.74 q 4.17,4.94 8.98,9.27 c 2.5,2.25 4.66,0.5 6.73,-1.31 5,-4.36 9.2,-7.56 14.45,-11.14 q 13.63,-9.28 14.09,-9.64 7.15,-5.63 13.97,-9.74 5,-3.02 15.4,-10.07 4.01,-2.72 6.65,-4.93 1.23,-1.03 6.43,-5.23 1.54,-1.24 3.33,-3.93 a 1.03,1.03 0 0 0 0.12,-0.9 q -1.22,-3.57 -3.1,-5.91 -3.39,-4.22 -8.24,-8.11 a 2.01,2.01 0 0 0 -1.54,-0.43 q -6.25,0.91 -13.15,0.46 -2.83,-0.19 -5.19,0.44 -2.8,0.75 -5.09,0.68 c -3.12,-0.09 -6.73,1.3 -10.02,1.58 q -3.51,0.3 -8.23,1.52 -7.55,1.95 -13.54,3.01 a 1.91,1.91 0 0 1 -2.13,-2.54 q 0.59,-1.65 2.27,-3.38 c 1.39,-1.45 4.31,-4.88 6.58,-6.42 2.46,-1.67 4.3,-3.74 6.79,-5.54 q 11.75,-8.5 22.3,-15.15 c 5.38,-3.4 8.61,-6.18 13.34,-9.86 q 3.17,-2.45 8.53,-4.73 3.47,-1.47 8.94,-3.99 c 2.31,-1.06 3.57,-2.38 4.97,-3.74 a 2.52,2.51 52.1 0 0 0.39,-3.12 q -4.36,-7.11 -8.32,-11.29 -1.5,-1.58 -3.56,-0.45 -2.1,1.16 -8.76,5.49 c -1.87,1.22 -4.21,1.89 -5.9,2.84 q -18.09,10.26 -33.59,20.42 c -14.24,9.34 -26.53,19.84 -36.34,33.17 q -2.56,3.48 0.01,6.19 2.18,2.32 6.63,7.97 6.27,7.97 16.1,7.42 1.77,-0.1 3.87,-1.15 2.8,-1.4 3.82,-1.56 9.95,-1.59 17.69,-3.84 4.98,-1.45 9.46,-1.98 6.52,-0.77 9.69,-0.89 0.94,-0.04 0.29,0.65 z"
         id="path2954" />
      <path
         fill="#f80e0f"
         d="m 703,780.71 q 3.9,1.14 4.6,1.09 12.4,-0.91 26.19,-1.34 11.87,-0.37 21.55,1.48 a 1.18,1.17 -77.1 0 1 0.91,1.46 q -0.67,2.52 -0.4,5.29 0.15,1.54 2.13,4.62 1.56,2.42 2.39,5.82 a 1.89,1.88 53.8 0 1 -0.22,1.42 c -2.23,3.68 -7.32,6.73 -11.21,8.29 q -9.3,3.76 -15.64,8.44 -6.42,4.75 -35.13,23.6 c -2.62,1.73 -5.41,4.14 -8.64,5.65 q -1.56,0.73 -2.14,2.37 -0.62,1.78 -1.63,7.84 -0.63,3.82 -3.89,24.79 c -0.41,2.69 -1.54,5.53 -1.66,8.24 q -0.38,8.33 -1.51,14.03 a 0.63,0.63 0 0 1 -1.08,0.32 q -1.43,-1.51 -3.79,-3.5 -1.88,-1.59 -2.67,-2.68 c -1.86,-2.57 -3.1,-3.51 -4.33,-6.23 -1.07,-2.36 -3.97,-3.1 -3.28,-6.63 q 0.92,-4.72 4.5,-25.79 0.9,-5.29 0.57,-9.9 -0.04,-0.51 -0.25,-0.97 -0.2,-0.46 -0.57,-0.7 -0.49,-0.33 -0.22,-0.85 c 2.67,-5.08 4.13,-7.69 4.63,-12.69 q 0.21,-2.05 0.91,-5.25 5.31,-24.47 6.65,-31.17 c 0.75,-3.73 -2.04,-8.66 -4.11,-11.47 a 1.21,1.21 0 0 1 0.56,-1.85 q 2.79,-1.01 5.74,-1.03 a 0.47,0.47 0 0 0 0.45,-0.35 q 1.77,-6.42 2.48,-12.29 a 2.71,2.71 0 0 1 1.35,-2.03 q 2.89,-1.64 4.55,-2.54 c 3.9,-2.09 7.47,-2.04 11.76,-2.13 a 1.33,1.33 0 0 1 1.34,1.06 c 0.98,4.86 -0.87,11.28 -1.42,14.74 q -0.11,0.65 0.53,0.84 z m -8.76,41.89 q 12.35,-9.05 14.84,-10.5 1.02,-0.59 21.1,-13.67 2.73,-1.78 -0.52,-1.58 -10.63,0.65 -14.91,0.91 -4.73,0.28 -13.33,2.14 -1.22,0.26 -1.98,0.74 -1.12,0.72 -1.46,1.72 -3.06,9.18 -4.46,19.81 -0.14,1.06 0.72,0.43 z"
         id="path2958" />
      <path
         fill="#f80e0f"
         d="m 597.87,876.94 q 2.18,0.01 3.82,-1.26 11.99,-9.24 19.71,-14.2 3.64,-2.34 7.43,-5.29 c 3.6,-2.8 6.58,-5.5 8.79,-6.07 q 0.79,-0.2 1.28,-0.23 a 1.4,1.4 0 0 1 1.26,2.13 q -6.95,11.35 -10.69,17.47 c -1.49,2.43 -2.9,5.46 -4.1,8.18 q -0.75,1.68 -2.21,2.82 -1.4,1.08 -4.7,4.36 -2.91,2.91 -5.92,5.25 c -5.37,4.19 -9.4,8.36 -15.14,6.56 -2.82,-0.88 -5.39,-4.05 -8.67,-5.3 q -3.37,-1.29 -6.36,-3.47 c -3.31,-2.42 -2.58,-8.02 -2.18,-12.35 q 0.26,-2.86 1.76,-8.83 1.07,-4.24 2.69,-8.55 4.62,-12.26 8.82,-23.85 c 7.65,-21.09 17.09,-42.12 26.49,-61.03 q 1.24,-2.5 2.12,-6.94 a 0.95,0.95 0 0 1 1.37,-0.66 q 2.12,1.07 4.26,3.01 1.64,1.5 3.97,2.62 1.3,0.62 4.19,2.71 1.42,1.03 1.61,2.13 0.3,1.78 -0.03,2.85 -1.64,5.44 -3.26,8.49 -3.7,6.95 -4.72,9.47 -0.18,0.47 -0.64,0.67 -0.76,0.34 -1.6,0.31 -0.55,-0.02 -0.78,0.48 -12.97,29.4 -19.77,47.97 -3.87,10.57 -9.22,30 -0.15,0.55 0.42,0.55 z"
         id="path2960" />
      <path
         fill="#f80e0f"
         d="m 546.26,842.77 q 0.65,-0.69 -0.29,-0.65 -3.17,0.12 -9.69,0.89 -4.48,0.53 -9.46,1.98 -7.74,2.25 -17.69,3.84 -1.02,0.16 -3.82,1.56 -2.1,1.05 -3.87,1.15 -9.83,0.55 -16.1,-7.42 -4.45,-5.65 -6.63,-7.97 -2.57,-2.71 -0.01,-6.19 c 9.81,-13.33 22.1,-23.83 36.34,-33.17 q 15.5,-10.16 33.59,-20.42 c 1.69,-0.95 4.03,-1.62 5.9,-2.84 q 6.66,-4.33 8.76,-5.49 2.06,-1.13 3.56,0.45 3.96,4.18 8.32,11.29 a 2.52,2.51 52.1 0 1 -0.39,3.12 c -1.4,1.36 -2.66,2.68 -4.97,3.74 q -5.47,2.52 -8.94,3.99 -5.36,2.28 -8.53,4.73 c -4.73,3.68 -7.96,6.46 -13.34,9.86 q -10.55,6.65 -22.3,15.15 c -2.49,1.8 -4.33,3.87 -6.79,5.54 -2.27,1.54 -5.19,4.97 -6.58,6.42 q -1.68,1.73 -2.27,3.38 a 1.91,1.91 0 0 0 2.13,2.54 q 5.99,-1.06 13.54,-3.01 4.72,-1.22 8.23,-1.52 c 3.29,-0.28 6.9,-1.67 10.02,-1.58 q 2.29,0.07 5.09,-0.68 2.36,-0.63 5.19,-0.44 6.9,0.45 13.15,-0.46 a 2.01,2.01 0 0 1 1.54,0.43 q 4.85,3.89 8.24,8.11 1.88,2.34 3.1,5.91 a 1.03,1.03 0 0 1 -0.12,0.9 q -1.79,2.69 -3.33,3.93 -5.2,4.2 -6.43,5.23 -2.64,2.21 -6.65,4.93 -10.4,7.05 -15.4,10.07 -6.82,4.11 -13.97,9.74 -0.46,0.36 -14.09,9.64 c -5.25,3.58 -9.45,6.78 -14.45,11.14 -2.07,1.81 -4.23,3.56 -6.73,1.31 q -4.81,-4.33 -8.98,-9.27 c -1.91,-2.28 0.45,-5.01 2.52,-6.74 q 18.54,-15.54 41.59,-29.89 7.05,-4.39 14.5,-8.19 c 2.52,-1.29 4.71,-3.14 6.51,-5.04 z"
         id="path2962" />
      <path
         fill="#ffffff"
         d="m 694.24,822.6 q -0.86,0.63 -0.72,-0.43 1.4,-10.63 4.46,-19.81 0.34,-1 1.46,-1.72 0.76,-0.48 1.98,-0.74 8.6,-1.86 13.33,-2.14 4.28,-0.26 14.91,-0.91 3.25,-0.2 0.52,1.58 -20.08,13.08 -21.1,13.67 -2.49,1.45 -14.84,10.5 z"
         id="path2992" />
      <rect
         fill="#ffffff"
         x="149.23"
         y="837.47998"
         width="266.29999"
         height="7.2399998"
         rx="3.4200001"
         id="rect3010" />
      <path
         fill="#ffffff"
         d="m 886.02,837.52 156.26,0.01 28.08,0.11 q 3.12,0.01 3.31,3.68 0.01,0.08 0,0.15 -0.34,3.3 -3.99,3.29 l -203.67,-0.05 -52.82,-0.01 q -3.47,0 -3.46,-3.54 0,-0.07 0,-0.14 0.01,-3.53 3.6,-3.53 z"
         id="path3012" />
      <path
         fill="#620911"
         d="M 1.62,1290 H 0 v -0.31 z"
         id="path3400" />
      <path
         fill="#620911"
         d="m 1289,1289.5 v 0.5 h -0.64 q 0.48,-0.15 0.64,-0.5 z"
         id="path3402" />
    </g>
  </g>
</svg>
