<?xml version="1.0" encoding="UTF-8" standalone="no"?>
<!-- Created with Inkscape (http://www.inkscape.org/) -->

<svg
   width="563.51038"
   height="533.6416"
   viewBox="0 0 149.09545 141.19268"
   version="1.1"
   id="svg5"
   xmlns="http://www.w3.org/2000/svg"
   xmlns:svg="http://www.w3.org/2000/svg">
  <defs
     id="defs2" />
  <g
     id="layer1"
     transform="translate(92.761645,-124.57418)">
    <g
       transform="matrix(0.08268296,0,0,-0.08268296,-22.714218,224.36704)"
       id="g830">
      <g
         id="g1078"
         transform="matrix(3.1999742,0,0,-3.1999742,-996.2096,1713.9318)">
        <g
           id="g1084">
          <path
             fill="#fea320"
             d="m 285.06,379.69 a 0.26,0.26 0 0 0 -0.19,-0.42 l -92.82,-8.56 q -0.67,-0.06 -0.15,-0.49 L 450.46,158.74 q 0.86,-0.71 0.29,0.25 l -116.54,196 a 0.23,0.23 0 0 0 0.18,0.35 l 107.49,5.27 q 0.83,0.04 0.2,0.57 L 47.32,691.58 q -1.34,1.12 -0.28,-0.27 z"
             id="path1060" />
          <path
             fill="#151a3d"
             d="m 384.17,200.57 c 1.64,0 3.19,0.48 4.81,0.71 q 0.99,0.14 0.17,0.7 -135.36,93.12 -270.27,186.5 -1.05,0.73 -2.29,1.28 a 0.39,0.38 87.3 0 1 -0.52,-0.48 q 30.56,-92.08 61.09,-184.14 0.6,-1.83 1.23,-3.31 a 1.07,1.06 10.9 0 1 0.97,-0.65 q 101.89,-0.19 204.81,-0.61 z"
             id="path1062" />
          <path
             fill="#151a3d"
             d="m 445.63,469.65 146.43,155.02 q 0.64,0.68 -0.29,0.71 L 409.46,631 q -0.43,0.02 -0.74,-0.27 L 279.4,510.35 a 0.45,0.45 0 0 1 0.02,-0.68 L 459.63,358.33 a 1.55,1.5 21.3 0 1 0.81,-0.34 q 14.97,-1.5 21.32,-14.36 3.26,-6.62 1.85,-13.56 C 481.62,320.2 472.32,316.11 462.76,316 q -44.97,-0.5 -89.05,-0.99 -0.71,-0.01 -0.35,-0.62 l 65.37,-111.92 q 0.24,-0.42 0.74,-0.43 50.41,-1.14 64.77,-1.07 c 27.97,0.16 59.11,6.94 80.22,26.45 30.7,28.37 29.29,71.42 19.05,108.58 q -12.44,45.13 -41.01,84.95 -2.88,4.01 -8.08,8.95 c -28.06,26.62 -69.55,43.7 -108.51,39.19 q -0.91,-0.11 -0.28,0.56 z"
             id="path1064" />
          <path
             fill="#151a3d"
             d="m 236.60925,398.26403 q -0.6,0.83 -1.25,1.48 -100.05,98.74 -182.539999,179.49 -0.75,0.73 -1.65,1.49 -1.15,0.97 -0.67,-0.45 l 63.769999,-187.3 a 3.1,3.08 10.9 0 1 3.1,-2.09 l 118.9,6.66 a 0.45,0.45 0 0 1 0.34,0.72 z"
             id="path1066" />
        </g>
      </g>
    </g>
  </g>
</svg>
