<?xml version="1.0" encoding="UTF-8" standalone="no"?>
<!-- Created with Inkscape (http://www.inkscape.org/) -->

<svg
   width="425.71884"
   height="261.74036"
   viewBox="0 0 112.63811 69.252138"
   version="1.1"
   id="svg5"
   xmlns="http://www.w3.org/2000/svg"
   xmlns:svg="http://www.w3.org/2000/svg">
  <defs
     id="defs2" />
  <g
     id="layer1"
     transform="translate(0,-227.74785)">
    <g
       id="g9769"
       transform="matrix(0.26458333,0,0,0.26458333,0.60549045,227.26518)">
      <g
         id="g14976">
        <path
           fill="#1873b8"
           d="m 231.45,18.06 -0.05,-0.48 q -0.04,-0.46 -0.5,-0.47 -0.82,-0.02 -1.06,0.05 -10.2,3.06 -18.43,10.23 -16.49,14.37 -18.07,35.71 c -0.14,1.9 -0.84,2.92 -2.38,3.85 q -7.44,4.47 -13.39,8.61 -0.59,0.41 -1.06,1.42 l -2.49,0.14 q -0.43,0.02 -0.46,-0.41 -0.86,-13.44 2.23,-23.68 6.42,-21.3 25.29,-32.49 9.77,-5.8 23.11,-8.11 13.12,-2.27 25.47,-0.84 c 4.88,0.57 10.56,2.12 14.91,4.62 q 2.3,1.32 -0.34,1.07 -5.06,-0.49 -11,-1.22 -10.99,-1.35 -21.78,2 z"
           id="path8992" />
        <path
           fill="#000000"
           d="m 231.45,18.06 q -5.76,1.63 -9.74,4.12 -23.09,14.46 -25.41,41.83 -0.14,1.61 -2.02,2.76 -8.03,4.91 -15.84,10.15 -1.09,0.74 -1.93,0.06 0.47,-1.01 1.06,-1.42 5.95,-4.14 13.39,-8.61 c 1.54,-0.93 2.24,-1.95 2.38,-3.85 q 1.58,-21.34 18.07,-35.71 8.23,-7.17 18.43,-10.23 0.24,-0.07 1.06,-0.05 0.46,0.01 0.5,0.47 z"
           id="path9008" />
        <path
           fill="#000000"
           d="m 242.94,107.76 q 0.81,-4.19 1.6,-8.34 0.98,-5.2 1.07,-8.4 0.3,-10.43 -2.14,-19.54 -5.64,-21.15 -22.47,-36.32 -0.35,-0.31 0.3,-0.55 l 0.73,-0.66 q 0.47,-0.43 0.94,0 5.21,4.67 9.57,10.06 22.07,27.27 13.79,62.82 -0.22,0.97 -1.21,1.12 -0.96,0.14 -2.18,-0.19 z"
           id="path9026" />
        <path
           fill="#1873b8"
           d="m 221.3,34.61 q -0.65,0.24 -0.3,0.55 16.83,15.17 22.47,36.32 2.44,9.11 2.14,19.54 -0.09,3.2 -1.07,8.4 -0.79,4.15 -1.6,8.34 -3.24,-0.07 -7.19,-1.52 -1.05,-0.38 -13.81,-5.09 a 0.79,0.78 20 0 1 -0.47,-1 q 2.9,-8.25 1.83,-17.13 -2.36,-19.53 -17.35,-31.72 a 0.63,0.62 -55.2 0 1 -0.14,-0.81 q 5.27,-8.63 12.32,-15.84 0.36,-0.37 0.87,-0.31 z"
           id="path9028" />
        <path
           fill="#000000"
           d="m 174.94,125.29 q 1.82,-3.7 3.14,-7.43 c 0.89,-2.53 2.21,-5.41 3.4,-7.14 q 9.45,-13.78 24.56,-19.39 3.8,-1.41 7.56,-2.5 a 1.43,1.42 -11.4 0 0 1.02,-1.52 l -2.16,-19.46 1.56,-0.35 a 1.46,1.45 80.6 0 1 1.76,1.26 l 2.14,19.3 q 0.07,0.63 -0.55,0.8 -5.41,1.45 -8.75,2.74 -16.85,6.51 -25.44,21.69 c -2.09,3.7 -3.16,7.8 -4.6,11.4 q -0.19,0.47 -0.67,0.57 -1.4,0.3 -2.97,0.03 z"
           id="path9064" />
        <path
           fill="#1873b8"
           d="m 212.46,67.85 2.16,19.46 a 1.43,1.42 -11.4 0 1 -1.02,1.52 q -3.76,1.09 -7.56,2.5 -15.11,5.61 -24.56,19.39 c -1.19,1.73 -2.51,4.61 -3.4,7.14 q -1.32,3.73 -3.14,7.43 -10.94,-1.1 -21.74,-3.77 a 0.37,0.37 0 0 1 -0.26,-0.5 c 1.67,-4.06 3.16,-8.51 5.02,-12.21 q 15.81,-31.53 50.55,-40.82 2.34,-0.63 3.95,-0.14 z"
           id="path9066" />
        <path
           fill="#1873b8"
           d="m 253.47,71.01 q 0.65,0.66 1.56,1.13 5.95,3.06 11.6,6.74 c 11.88,7.72 20.83,19.92 23.49,33.87 q 2.55,13.31 -0.78,26.88 -3.37,13.68 -12.28,24.74 -0.3,0.37 -3.3,3.62 -1.66,1.8 -3.05,3.83 0.31,-1.18 0.28,-1.22 -0.5,-0.7 -1.06,0.06 -1.77,2.37 -3.09,2.6 -0.69,0.13 -0.25,-0.42 1.09,-1.31 5.34,-7.39 6.79,-9.7 9,-19.46 2.34,-10.3 -1.04,-21.61 -6.21,-20.75 -26.21,-31.27 -1.42,-0.76 -1.41,-2.86 0.04,-9.6 -1.53,-18.82 -0.09,-0.54 0.45,-0.51 z"
           id="path9070" />
        <path
           fill="#000000"
           d="m 280.01,87.32 q 16.2,17.67 14.23,41.93 -0.47,5.82 -2.49,13.06 -2.15,7.51 -6.08,14.34 -5.51,9.59 -14.75,16.38 a 0.48,0.47 55.3 0 1 -0.69,-0.13 q -0.37,-0.58 0.48,-1.08 1.39,-2.03 3.05,-3.83 3,-3.25 3.3,-3.62 8.91,-11.06 12.28,-24.74 3.33,-13.57 0.78,-26.88 C 287.46,98.8 278.51,86.6 266.63,78.88 q -5.65,-3.68 -11.6,-6.74 -0.91,-0.47 -1.56,-1.13 0.63,-0.35 1.37,-0.06 14.22,5.56 25.17,16.37 z"
           id="path9072" />
        <path
           fill="#1873b8"
           d="m 125.98,99.53 q 9.41,27.32 36.92,32.63 3.25,0.05 8.2,1 4.37,0.83 9.64,0.13 8.7,-1.17 18.88,-5.92 1.41,-0.65 2.59,0.35 8.21,5.92 17.53,9.33 a 0.54,0.54 0 0 1 0.08,0.98 q -10.76,6.18 -23.17,10.54 -1.1,0.82 -3.65,0.92 -8.27,0.34 -16.73,-0.19 -9.42,-0.58 -19.75,-6.04 c -16.89,-8.94 -30.48,-25.42 -33.63,-44.53 q -0.34,-2.02 -0.3,-4.79 0.01,-1.18 0.74,-0.26 0.19,0.24 0.34,1.04 0.62,3.21 2.31,4.81 z"
           id="path9096" />
        <path
           fill="#000000"
           d="m 162.9,132.16 q -27.51,-5.31 -36.92,-32.63 l -0.17,-5.65 q -0.02,-0.6 0.55,-0.42 0.46,0.14 0.66,0.83 1.94,6.5 4.85,12.12 9.85,19 31.03,25.75 z"
           id="path9098" />
        <path
           fill="#1873b8"
           d="m 213.01,98.27 q -0.33,0.92 0.48,1.75 11.01,11.28 26.27,13.33 2.03,-0.04 6.49,0.9 6.3,1.32 14.27,-1.01 1.29,-0.38 3.14,-0.13 l 6.33,18.16 q 0.17,0.47 -0.06,0.92 -0.56,1.14 -0.35,1.37 -6.77,1.99 -18.57,2.07 -31.03,0.22 -53.83,-20.44 -2.27,-2.05 -3.97,-4.35 a 0.74,0.74 0 0 1 0.16,-1.04 q 7.26,-5.41 15.48,-10.72 1.35,-0.87 4.16,-0.81 z"
           id="path9106" />
        <path
           fill="#000000"
           d="m 239.76,113.35 q -15.26,-2.05 -26.27,-13.33 -0.81,-0.83 -0.48,-1.75 1.29,-0.34 2.3,0.67 10.06,10.09 24.45,14.41 z"
           id="path9108" />
        <path
           fill="#000000"
           d="m 269.58,133.56 q -0.21,-0.23 0.35,-1.37 0.23,-0.45 0.06,-0.92 l -6.33,-18.16 q 2.37,-1.21 3.15,0.64 1.49,3.55 6.03,17 0.59,1.74 -0.28,2.34 -0.92,0.63 -2.98,0.47 z"
           id="path9124" />
        <path
           fill="#000000"
           d="m 196.65,148.57 q 12.41,-4.36 23.17,-10.54 a 0.54,0.54 0 0 0 -0.08,-0.98 q -9.32,-3.41 -17.53,-9.33 1.33,-1.16 2.34,-0.48 8.97,6.03 18.89,9.79 a 0.48,0.47 -51.9 0 1 0.1,0.84 q -12.21,8.26 -26.89,10.7 z"
           id="path9132" />
      </g>
      <path
         fill="#000000"
         d="m 133.79,180.48 q 0.1,0.18 0.08,0.38 -0.03,0.43 -0.46,0.44 -3.61,0.09 -7.06,1.41 -0.45,0.17 -0.73,0.56 -0.85,1.19 -2.57,0.83 -0.63,-0.03 -0.81,-0.21 -0.53,-0.5 0.07,-0.92 1.88,-1.29 3.78,-2.15 c 1.77,-0.79 5.45,-0.43 7.7,-0.34 z"
         id="path9202" />
      <g
         id="g14905">
        <path
           fill="#000000"
           d="m 109.16,170.07 q -0.94,2.22 -3.02,3.98 a 1.42,1.41 44.8 0 0 0.01,2.17 q 1.16,0.97 1.58,2.37 l -4,-3.47 a 0.72,0.71 -54.5 0 1 -0.15,-0.91 q 2.69,-4.45 5.58,-4.14 z"
           id="path9184" />
        <path
           fill="#1873b8"
           d="m 107.73,178.59 q -0.42,-1.4 -1.58,-2.37 a 1.42,1.41 44.8 0 1 -0.01,-2.17 q 2.08,-1.76 3.02,-3.98 l 5.32,4.22 a 0.98,0.97 -54.9 0 1 0.22,1.28 c -0.89,1.45 -3.05,4.11 -5,3.94 q -1.25,-0.11 -1.97,-0.92 z"
           id="path9188" />
        <path
           fill="#000000"
           d="m 105.68,181.23 q -0.74,17.24 0.09,34.57 -1.14,-0.11 -1.79,-0.61 -0.58,-0.44 -0.58,-1.57 -0.01,-15.88 -0.02,-31.79 0,-0.5 0.49,-0.62 1.21,-0.3 1.81,0.02 z"
           id="path9212" />
        <path
           fill="#1873b8"
           d="m 105.77,215.8 q -0.83,-17.33 -0.09,-34.57 3.07,-0.19 5.47,-0.17 2.57,0.02 4.21,1 2.25,1.35 3.95,2.55 1.04,0.73 -0.23,0.73 h -6.15 a 0.7,0.7 0 0 0 -0.7,0.7 v 31.7 a 1.08,1.08 0 0 1 -1.64,0.93 z"
           id="path9214" />
      </g>
      <g
         id="g14916">
        <path
           fill="#000000"
           d="m 181.75,170.12 q -3.41,3.39 -4.28,6.06 -0.9,-0.46 -1.3,-1.19 a 0.88,0.88 0 0 1 0.02,-0.89 q 2.71,-4.27 5.56,-3.98 z"
           id="path9186" />
        <path
           fill="#1873b8"
           d="m 177.47,176.18 q 0.87,-2.67 4.28,-6.06 l 5.82,4.82 a 0.4,0.4 0 0 1 0,0.61 c -1.27,1.05 -2.56,2.86 -4.12,3.81 -1.88,1.14 -5.01,-1.74 -5.98,-3.18 z"
           id="path9190" />
        <path
           fill="#1873b8"
           d="m 178.04,215.8 v -34.5 q 6.67,-1.01 8.42,-0.05 2.33,1.28 4.69,2.86 1.85,1.25 -0.38,1.25 h -5.32 a 0.75,0.74 0 0 0 -0.75,0.74 q 0.04,16.36 0.14,29.75 0.01,0.48 -0.14,1.3 -0.13,0.72 -0.09,1.32 a 0.39,0.39 0 0 1 -0.57,0.38 z"
           id="path9216" />
        <path
           fill="#000000"
           d="m 178.04,181.3 v 34.5 q -1.14,-0.27 -1.78,-0.94 -0.33,-0.35 -0.33,-0.83 v -31.87 q 0,-0.46 0.4,-0.7 1.09,-0.62 1.71,-0.16 z"
           id="path9220" />
      </g>
      <g
         id="g14910">
        <path
           fill="#000000"
           d="m 160.3,182.02 q -1.89,-0.69 -3.38,-0.2 -2.88,0.95 -5.17,3.18 -3.72,3.64 -6.37,6.74 c -1.24,1.45 -3.09,2.62 -4.9,3.38 a 1.22,1.05 -24.4 0 1 -1.5,-0.44 q -0.08,-0.17 0.19,-0.66 1.6,-0.7 2.67,-1.69 3.9,-3.62 8.46,-8.53 c 1.66,-1.79 6.11,-4.38 8.92,-3.75 q 2.62,0.59 1.08,1.97 z"
           id="path9196" />
        <path
           fill="#1873b8"
           d="m 139.17,194.02 q -0.27,0.49 -0.19,0.66 a 1.22,1.05 -24.4 0 0 1.5,0.44 c 1.81,-0.76 3.66,-1.93 4.9,-3.38 q 2.65,-3.1 6.37,-6.74 2.29,-2.23 5.17,-3.18 1.49,-0.49 3.38,0.2 -6.18,6.33 -14.19,11.27 a 0.74,0.73 -37.7 0 0 -0.15,1.14 q 9.48,9.82 18.06,17.53 0.94,0.84 2.42,1.12 c 1.84,0.34 4.7,-0.52 6.59,-0.89 q 0.59,-0.12 0.91,0.4 0.54,0.89 -0.36,1.5 -1.33,0.9 -4.19,2.61 -4.91,2.94 -9.83,0.6 -3.34,-1.59 -6.99,-5.23 -8.41,-8.37 -12.18,-12.27 -1.47,-1.52 -1.34,0.59 0.42,6.96 0.3,14.68 -0.01,0.49 -0.39,0.78 -3.11,2.36 -6.35,2.28 -0.08,-15.58 -0.43,-30.88 -0.07,-3.28 -1.89,-2.82 l -7.24,-0.33 q 1.72,0.36 2.57,-0.83 0.28,-0.39 0.73,-0.56 3.45,-1.32 7.06,-1.41 0.43,-0.01 0.46,-0.44 0.02,-0.2 -0.08,-0.38 1.09,-0.22 2.92,0.07 1.7,0.26 1.92,1.6 0.94,5.55 0.2,11.09 -0.05,0.33 0.34,0.78 z"
           id="path9204" />
        <path
           fill="#000000"
           d="m 132.61,218.13 q -1.81,-0.2 -1.84,-1.88 -0.31,-15.68 -0.48,-31.82 1.82,-0.46 1.89,2.82 0.35,15.3 0.43,30.88 z"
           id="path9226" />
      </g>
      <g
         id="g14921">
        <path
           fill="#1873b8"
           d="m 223.91,222.43 q 3.33,-5.77 6.69,-11.16 2.95,-4.73 3.41,-7.78 1.2,-7.98 -5.42,-14.33 -3.55,-3.4 -6.78,-3.05 l -3.15,-1.27 q -0.47,-0.19 -0.94,-0.03 -3.35,1.09 -5.15,3.85 -1.17,1.81 -1.21,5.91 -0.04,4.86 0.02,20.65 0,0.5 -0.4,0.81 -0.57,0.44 -1.86,1.06 -2.56,1.22 -4.62,1.38 0.16,-15.46 0.09,-30.86 0,-0.76 -0.28,-1.19 -0.68,-1.1 -1.6,0.37 -0.1,-0.63 -0.33,-0.97 -0.21,-0.33 -0.81,-0.33 -3.36,-0.05 -5.98,0.12 -2.65,0.17 -0.37,-1.2 c 1.69,-1 4.53,-2.62 7.22,-2.49 q 2.14,0.11 8.3,0.1 a 0.94,0.94 0 0 1 0.93,1.05 l -0.16,1.25 q -0.19,1.54 1.16,0.76 3.03,-1.76 6.66,-3.24 c 7.21,-2.93 14.17,2.02 18.47,7.59 8.13,10.53 1.09,18.85 -6.31,26.5 q -3.35,3.47 -7.58,6.5 z"
           id="path9218" />
        <path
           fill="#000000"
           d="m 223.91,222.43 q -0.85,0.81 -2.05,1.17 -2.42,0.73 -0.85,-1.26 3.33,-4.2 6.6,-8.73 c 3.36,-4.63 6.2,-11.65 3.96,-17.18 q -2.66,-6.56 -9.76,-10.32 3.23,-0.35 6.78,3.05 6.62,6.35 5.42,14.33 -0.46,3.05 -3.41,7.78 -3.36,5.39 -6.69,11.16 z"
           id="path9230" />
        <path
           fill="#000000"
           d="m 204.5,218.47 -0.62,0.07 a 1.05,1.05 0 0 1 -1.18,-1.04 l 0.01,-30.71 q 0.92,-1.47 1.6,-0.37 0.28,0.43 0.28,1.19 0.07,15.4 -0.09,30.86 z"
           id="path9232" />
      </g>
      <g
         id="g14927">
        <path
           fill="#1873b8"
           d="m 274.24,213.5 q 0.3,2.34 -0.38,2.95 -1.95,0.77 -3.79,1.45 -2.12,0.79 -3.92,0.91 -5.33,0.36 -8.72,-1.75 -6.59,-5.17 -10.91,-10.83 -1.29,-1.69 -1.81,-3.41 c -1.39,-4.6 0.6,-9.84 3.15,-13.96 q 0.17,-0.26 0.92,-0.62 0.84,-0.41 0.48,-0.71 -0.31,-0.27 -1.35,-0.44 6.49,-1.18 11,-4.86 a 1.76,1.71 21.2 0 1 0.9,-0.38 q 2.27,-0.3 5.75,0.07 9.95,1.08 17.91,3.06 a 1.51,1.51 0 0 1 0.8,2.44 q -1.63,1.95 -3.39,4.29 c -0.66,0.88 -2.02,1.1 -3.01,1.18 a 0.64,0.64 0 0 1 -0.66,-0.82 q 0.25,-0.86 0.15,-1.59 -0.07,-0.49 -0.45,-0.82 -1.75,-1.53 -3.85,-1.97 -6.37,-1.31 -13.82,-1.66 c -2.48,-0.12 -4.52,1 -5.56,3.49 q -1.36,3.22 -1.85,5.44 c -1.16,5.24 0.49,8.25 4.53,11.52 q 4.16,3.37 7.08,5.33 5.45,3.68 10.8,1.69 z"
           id="path9222" />
        <path
           fill="#000000"
           d="m 247.91,187.09 q 1.04,0.17 1.35,0.44 0.36,0.3 -0.48,0.71 -0.75,0.36 -0.92,0.62 c -2.55,4.12 -4.54,9.36 -3.15,13.96 q 0.52,1.72 1.81,3.41 4.32,5.66 10.91,10.83 -8.58,-4.42 -13.42,-11.33 -1.31,-1.86 -1.46,-4.74 -0.48,-9.16 5.36,-13.9 z"
           id="path9236" />
        <path
           fill="#1873b8"
           d="m 273.6,227.89 q 1.89,-4.92 2.11,-9.53 0.31,-6.36 0.32,-6.42 0.42,-4.13 0.59,-8.28 0.04,-0.87 -0.41,-1.15 -0.48,-0.32 -1.4,-0.32 l -8.35,-0.35 a 0.28,0.28 0 0 1 -0.13,-0.53 q 7.83,-4.52 16.6,-2.68 1.19,0.25 1.03,1.45 -1.15,9.16 -1.89,17.98 -0.21,2.5 -1.94,4.32 -2.86,3.02 -6.53,5.51 z"
           id="path9246" />
        <path
           fill="#000000"
           d="m 273.6,227.89 -1.21,-0.03 q -0.65,-0.02 -0.43,-0.63 1.69,-4.74 1.9,-10.78 0.68,-0.61 0.38,-2.95 l 0.57,-11.31 q 0.92,0 1.4,0.32 0.45,0.28 0.41,1.15 -0.17,4.15 -0.59,8.28 -0.01,0.06 -0.32,6.42 -0.22,4.61 -2.11,9.53 z"
           id="path9250" />
      </g>
      <g
         id="g14960">
        <path
           fill="#000000"
           d="m 407.15,181 q -3.04,0.85 -6.2,0.71 -2.93,-0.13 -3.93,0.31 -1.8,0.78 -3.28,2.42 -1.49,1.65 -3.08,2.47 -2.14,1.11 -4.04,2.03 -0.77,0.37 -0.77,1.23 v 5.51 q 0,0.4 -0.38,0.51 l -0.58,0.16 q -1.13,-2.2 -0.94,-6.37 0.08,-1.8 1.45,-2.37 c 2.03,-0.86 3.09,-1.18 4.47,-2.26 q 1.56,-1.22 4.64,-3.69 a 5.02,4.98 26.7 0 1 3.34,-1.09 z"
           id="path9206" />
        <path
           fill="#1873b8"
           d="m 383.99,215.25 4.94,-6.13 q 2.16,2.97 6.6,3.56 2.5,0.34 4.87,0.63 1.53,0.44 3.14,0.41 1.71,-0.03 2.86,-1.03 2.57,-2.25 0.4,-5.74 -0.87,-1.4 -1.67,-0.46 -1.74,-2.16 -4.02,-3.1 -7.53,-3.1 -15.05,-6.21 -0.54,-0.23 -1.17,-0.83 l 0.58,-0.16 q 0.38,-0.11 0.38,-0.51 v -5.51 q 0,-0.86 0.77,-1.23 1.9,-0.92 4.04,-2.03 1.59,-0.82 3.08,-2.47 1.48,-1.64 3.28,-2.42 1,-0.44 3.93,-0.31 3.16,0.14 6.2,-0.71 3.61,0.06 6.81,2.27 a 1.58,1.58 0 0 1 0.33,2.29 q -2.08,2.56 -3.98,3.91 a 2.18,2.17 65.8 0 1 -3.37,-1.28 q -0.1,-0.43 -0.3,-0.68 -0.23,-0.28 -0.73,-0.36 -7.25,-1.19 -11.83,-0.58 -1.07,0.14 -1.69,1.96 -1.16,3.44 2.14,4.7 6.18,2.36 7.65,3 c 6.45,2.8 10.28,4.09 12.43,10.17 0.66,1.86 -0.79,3.73 -2.55,4.93 q -2.73,1.86 -4.38,3.61 -2.78,2.95 -4.33,3.53 c -5.89,2.19 -13.1,-0.09 -18.55,-2.58 q -0.41,-0.19 -0.81,-0.64 z"
           id="path9210" />
        <path
           fill="#000000"
           d="m 400.4,213.31 q 1.99,-0.39 3.9,-0.65 2.08,-0.28 1.84,-2.66 -0.21,-2.1 -1.01,-3.51 0.8,-0.94 1.67,0.46 2.17,3.49 -0.4,5.74 -1.15,1 -2.86,1.03 -1.61,0.03 -3.14,-0.41 z"
           id="path9256" />
      </g>
      <g
         id="g14899">
        <path
           fill="#000000"
           d="m 98.96,103.06 -39.52,84.26 a 0.5,0.5 0 0 1 -0.94,-0.08 l -0.59,-2.21 39.52,-84.25 a 0.51,0.5 49.7 0 1 0.94,0.08 z"
           id="path9110" />
        <path
           fill="#1873b8"
           d="m 18.88,167.6 q -0.79,-6.26 -4.43,-12.24 c -0.71,-1.16 -0.79,-2.49 -1.43,-3.73 q -1.07,-2.04 -1.09,-2.11 -0.57,-1.4 -2.18,-4.74 -1.29,-2.7 -1.1,-4.35 0.28,-2.41 2.28,-4.25 2.6,4.18 3.49,8.69 0.14,0.69 0.66,0.22 0.34,-0.3 0.33,-0.91 -0.02,-0.57 0.33,-1.03 l 9.19,-12.22 q 0.3,-0.4 0.46,-0.88 0.39,-1.19 1.53,-0.98 0.56,0.1 0.56,0.67 0,1.53 1.35,2.31 a 0.77,0.76 27.5 0 1 0.31,0.98 l -0.63,1.33 a 0.66,0.66 0 0 1 -1.22,-0.06 l -0.66,-1.88 q -0.2,-0.58 -0.57,-0.09 l -7.63,10.15 q -0.45,0.6 0.29,0.6 h 1.56 q 0.58,0 0.45,-0.57 l -0.12,-0.47 q -0.08,-0.38 0.15,-0.68 l 5.01,-6.67 a 0.44,0.43 -37.9 0 1 0.75,0.09 l 3.36,7.87 a 0.49,0.49 0 0 1 -0.52,0.68 l -0.59,-0.07 a 1.29,1.28 -7.9 0 1 -1.03,-0.77 l -1.7,-4.01 q -0.24,-0.56 -0.62,-0.09 -2.98,3.72 -3.79,4.27 -0.45,0.3 -0.41,0.85 0.12,1.4 -1.37,1.49 a 1.85,1.83 51.7 0 1 -0.57,-0.07 q -1.71,-0.52 -2.5,-0.32 -0.51,0.12 -0.61,0.63 -0.47,2.28 -2.15,4.01 -0.33,0.33 -0.38,0.64 -0.05,0.42 0.24,0.79 a 0.5,0.5 0 0 0 0.88,-0.2 q 0.73,-3.24 3.18,-4.69 0.61,-0.37 0.97,0.25 l 0.16,0.29 a 0.78,0.78 0 0 1 -0.17,0.99 l -0.99,0.83 q -0.69,0.58 0.21,0.69 l 12.42,1.54 a 0.35,0.35 0 0 0 0.37,-0.49 q -1.18,-2.6 -0.62,-2.83 a 1.65,1.48 72.3 0 1 2.02,1.19 q 0.37,1.36 1.16,2.63 0.27,0.44 0.06,0.91 -0.19,0.42 -0.72,0.61 -0.64,0.23 -0.05,0.57 l 0.74,0.43 q 0.54,0.31 0.87,-0.22 0.39,-0.63 0.03,-1.72 a 0.81,0.8 -5.8 0 1 0.86,-1.05 l 4.41,0.55 q 0.51,0.06 0.45,-0.45 l -0.05,-0.44 q -0.06,-0.6 -0.66,-0.53 l -4.22,0.47 q -0.51,0.05 -0.85,-0.34 -0.49,-0.55 -0.7,-1.18 a 0.65,0.65 0 0 1 0.81,-0.83 q 1.03,0.32 1.58,0.2 0.42,-0.09 0.25,-0.48 l -4.74,-11.13 a 0.58,0.57 62.9 0 0 -0.83,-0.27 q -0.52,0.32 -0.61,0.93 -0.08,0.51 0.33,0.84 1.1,0.91 1.43,1.91 1.17,3.51 2.4,6.06 0.24,0.49 -0.24,0.75 -0.62,0.33 -1.44,-0.15 a 1.04,0.89 57.8 0 0 -0.35,-0.11 l -6.1,-0.56 a 0.78,0.77 -83.9 0 1 -0.7,-0.87 l 0.04,-0.38 q 0.08,-0.64 0.72,-0.56 l 4.82,0.6 a 0.53,0.53 0 0 0 0.56,-0.73 l -2.18,-5.33 q -0.16,-0.39 -0.51,-0.63 -1.14,-0.79 -0.15,-2.26 0.48,-0.72 2.24,-2.5 0.56,-0.57 -0.24,-0.57 h -0.41 q -0.59,0 -0.92,-0.49 -1.38,-2.03 -1.93,-4.21 a 0.53,0.53 0 0 0 -0.89,-0.25 q -1.84,1.82 -3.45,4.72 a 0.67,0.67 0 0 1 -1.21,-0.07 l -5.08,-12.34 q 1.27,-6.78 4.65,-12.89 7.74,15.94 10.36,22.57 1.15,2.93 1.91,4.35 0.95,1.78 0.97,1.83 10.86,23.4 22.27,48.58 0.21,0.47 0.91,0.81 l 0.59,2.21 a 0.5,0.5 0 0 0 0.94,0.08 l 39.52,-84.26 14.31,34.84 q 0.19,0.47 -0.03,0.93 l -46.99,99.99 q -0.33,0.71 -1.11,0.64 -2.81,-0.28 -3.98,-0.68 -1.89,-0.63 -3.94,-0.07 -1.35,0.37 -4.82,0.82 a 0.73,0.72 -15.7 0 1 -0.74,-0.41 z m -3.69,-16.73 q -0.02,0 -0.05,0 -0.02,0 -0.02,0.01 0,0.01 -0.01,0.02 -0.01,0.03 0.03,0.03 1.37,0.05 2.46,0.71 0.89,0.52 1.52,1.91 15.66,34.52 25.85,57.19 a 0.37,0.37 0 0 0 0.68,-0.01 l 0.16,-0.4 A 1.11,1.09 44.7 0 0 45.8,209.51 L 21.68,152.85 q -0.48,-1.12 0.73,-0.97 l 4.03,0.5 a 2.33,2.33 0 0 1 1.93,1.59 q 0.56,1.74 1.14,3.01 13.6,29.92 23.84,52.7 1.23,2.73 1.12,-0.27 -0.03,-0.89 -0.91,-2.96 -18.59,-43.7 -22.27,-52.24 -0.18,-0.4 -0.07,-0.71 0.11,-0.35 0.41,-0.65 0.32,-0.32 -0.13,-0.4 -2.17,-0.38 -10.08,-1.21 -2.17,-0.23 -4.32,-0.74 -0.68,-0.16 -1.01,-0.05 -0.42,0.15 -0.79,0.39 -0.05,0.03 -0.11,0.03 z m 31.55,64.65 q 0.09,-1.54 1.18,-2.97 0.17,-0.22 -0.07,-0.36 l -0.24,-0.14 q -0.03,-0.02 -0.06,0.02 -4.76,6.6 0.37,12.78 0.85,1.02 3.67,2.15 1.39,0.56 1.03,-0.9 -0.25,-0.97 -0.26,-1.02 a 4.11,2.54 81.8 0 0 -1.76,-2.1 q -4.21,-1.89 -3.86,-7.46 z m 25.52,3.9 0.17,-0.23 q 0.12,-0.16 0.01,-0.33 -5.83,-8.62 -14.95,-3.66 a 0.73,0.73 0 0 0 -0.12,1.21 q 1.07,0.89 2.62,0.48 3.56,-0.95 3.98,-1.01 4.92,-0.75 7.87,3.53 0.2,0.3 0.42,0.01 z m -14.52,2.01 c 1.49,0.87 3.09,-0.16 3.26,-1.79 q 0.06,-0.64 -0.58,-0.66 -1.62,-0.05 -2.89,-0.99 c -2.18,-1.62 -4.68,-1.23 -7.32,-0.73 q -1.39,0.27 -1.07,1.64 l 0.16,0.67 a 1.44,1.44 0 0 0 1.82,1.04 q 2.41,-0.73 4.9,-0.1 0.26,0.07 1.72,0.92 z m 4.44,-0.04 q -0.84,0.99 -2.05,1.59 -1.14,0.57 -1.39,1.02 -0.44,0.77 -0.11,1.93 a 1.26,1.26 0 0 0 1.8,0.77 q 2.51,-1.32 4.17,-3.27 1.65,-1.96 2.53,-4.65 a 1.26,1.26 0 0 0 -1.05,-1.65 q -1.2,-0.13 -1.89,0.43 -0.4,0.32 -0.78,1.54 -0.39,1.29 -1.23,2.29 z m -5.02,5.04 q -0.36,-1.04 -0.36,-2.42 -0.01,-1.41 -0.42,-1.83 -0.82,-0.83 -2.23,-0.52 -1.09,0.24 -0.84,1.32 0.28,1.17 0.82,3.95 0.47,2.47 4.04,5.19 0.43,0.33 0.88,0.02 c 0.87,-0.59 1.17,-2.08 0.39,-3.02 -0.83,-0.99 -1.77,-1.24 -2.28,-2.69 z m 5.29,1.4 q -0.4,4.51 -2.59,6.03 -2.85,1.98 -5.8,2.57 -0.02,0 -0.02,0.03 l 0.03,0.28 q 0.02,0.15 0.17,0.14 10.68,-0.59 11.31,-10.94 0.05,-0.86 -0.76,-0.59 -0.78,0.26 -1.45,0.81 -0.8,0.65 -0.89,1.67 z"
           id="path9112" />
        <path
           fill="#000000"
           d="m 21.49,106.89 q -3.38,6.11 -4.65,12.89 -1.81,-2.58 -1.34,-4.24 0.74,-2.61 4.22,-11.46 0.18,-0.47 0.41,-0.02 z"
           id="path9114" />
        <path
           fill="#000000"
           d="m 14.75,125.07 -2.72,5.26 q -1.12,-1.79 -0.8,-2.83 0.81,-2.64 1.61,-4.62 0.61,-1.48 1.14,0.03 z"
           id="path9126" />
        <path
           fill="#1873b8"
           d="m 14.75,125.07 4.62,9.42 q 0.65,1.32 -0.27,2.46 -0.99,1.23 -1.46,2.74 a 0.76,0.76 0 0 1 -1.42,0.08 l -4.19,-9.44 z"
           id="path9128" />
        <path
           fill="#000000"
           d="m 10.93,136.18 q -2,1.84 -2.28,4.25 -0.19,1.65 1.1,4.35 1.61,3.34 2.18,4.74 0.02,0.07 1.09,2.11 c 0.64,1.24 0.72,2.57 1.43,3.73 q 3.64,5.98 4.43,12.24 -5.71,-11.91 -10.89,-23.64 c -0.55,-1.25 -1.65,-3.08 -1.62,-4.51 0.03,-1.91 1.8,-4.56 2.42,-6.53 a 0.41,0.41 0 0 1 0.77,-0.04 z"
           id="path9134" />
        <path
           fill="#1873b8"
           d="m 23.76,146.52 4.75,0.59 a 0.78,0.77 89.9 0 1 0.68,0.69 l 0.03,0.27 a 0.77,0.76 -0.9 0 1 -0.82,0.84 q -3.12,-0.26 -5.87,-0.83 -0.57,-0.12 -1.45,0.22 -0.56,0.22 -0.69,-0.36 -0.18,-0.76 0,-1.03 1.11,-1.75 4.66,-6.27 a 0.51,0.5 48.7 0 1 0.83,0.06 l 0.26,0.46 a 0.96,0.94 -42.1 0 1 -0.06,1.05 l -2.66,3.52 a 0.5,0.5 0 0 0 0.34,0.79 z"
           id="path9144" />
        <path
           fill="#1873b8"
           d="m 58.56,239.97 6.42,0.8 a 0.46,0.46 0 0 1 0.36,0.65 l -5.95,12.67 a 0.46,0.46 0 0 1 -0.83,0 l -5.62,-12.25 a 0.46,0.46 0 0 1 0.32,-0.64 l 5.14,-1.22 a 0.46,0.46 0 0 1 0.16,-0.01 z"
           id="path9310" />
      </g>
      <g
         id="g14955">
        <path
           fill="#000000"
           d="m 323.96,243.43 -7.89,-3.15 q -16.46,-9.35 -21.98,-25.89 c -7.75,-23.21 4,-48.28 26.79,-57.25 17.02,-6.69 36.28,-2.39 49.09,10.42 12.04,12.02 16.46,30.16 10.96,46.51 q -5.46,16.25 -19.92,24.93 -16.96,10.17 -37.05,4.43 z m 13.7078,-86.6941 a 1.25,0.88 -3.4 0 0 -1.3,-0.8044 1.25,0.88 -3.4 0 0 -1.1956,0.9526 1.25,0.88 -3.4 0 0 1.3,0.8044 1.25,0.88 -3.4 0 0 1.1956,-0.9526 z m 17.42,4.0331 a 1.13,0.95 -3.6 0 0 -1.1875,-0.8771 1.13,0.95 -3.6 0 0 -1.0681,1.0191 1.13,0.95 -3.6 0 0 1.1875,0.8771 1.13,0.95 -3.6 0 0 1.0681,-1.0191 z m -36.9099,1.3362 a 1.04,0.92 119.5 0 0 1.3128,-0.4522 1.04,0.92 119.5 0 0 -0.2886,-1.3582 1.04,0.92 119.5 0 0 -1.3128,0.4522 1.04,0.92 119.5 0 0 0.2886,1.3582 z M 374.87,199.59 a 37.46,37.46 0 0 0 -37.46,-37.46 37.46,37.46 0 0 0 -37.46,37.46 37.46,37.46 0 0 0 37.46,37.46 37.46,37.46 0 0 0 37.46,-37.46 z m -7.58,-30.63 a 1.06,1.06 0 0 0 -1.06,-1.06 1.06,1.06 0 0 0 -1.06,1.06 1.06,1.06 0 0 0 1.06,1.06 1.06,1.06 0 0 0 1.06,-1.06 z m -61.2898,2.3809 a 1.1,0.88 121.2 0 0 1.3225,-0.485 1.1,0.88 121.2 0 0 -0.1829,-1.3968 1.1,0.88 121.2 0 0 -1.3225,0.485 1.1,0.88 121.2 0 0 0.1829,1.3968 z M 376.07,180.95 a 0.5,0.5 0 0 0 -0.7,0 q -0.53,0.53 -0.52,1.39 0.01,0.59 0.6,0.65 0.8,0.08 1.06,-0.09 0.46,-0.31 0.31,-0.8 -0.18,-0.58 -0.75,-1.15 z m -76.73,2.26 a 1.01,1.01 0 0 0 -1.01,-1.01 1.01,1.01 0 0 0 -1.01,1.01 1.01,1.01 0 0 0 1.01,1.01 1.01,1.01 0 0 0 1.01,-1.01 z m 81.51,15.38 a 1.01,1.01 0 0 0 -1.01,-1.01 1.01,1.01 0 0 0 -1.01,1.01 1.01,1.01 0 0 0 1.01,1.01 1.01,1.01 0 0 0 1.01,-1.01 z m -84.02,1.16 a 0.97,0.97 0 0 0 -0.97,-0.97 0.97,0.97 0 0 0 -0.97,0.97 0.97,0.97 0 0 0 0.97,0.97 0.97,0.97 0 0 0 0.97,-0.97 z m 79.7831,16.5713 a 1.07,0.89 119.5 0 0 1.3015,-0.493 1.07,0.89 119.5 0 0 -0.2477,-1.3696 1.07,0.89 119.5 0 0 -1.3015,0.493 1.07,0.89 119.5 0 0 0.2477,1.3696 z M 300.5,216.25 a 1.14,1.14 0 0 0 -1.14,-1.14 1.14,1.14 0 0 0 -1.14,1.14 1.14,1.14 0 0 0 1.14,1.14 1.14,1.14 0 0 0 1.14,-1.14 z m 67.5687,13.5256 a 1.11,0.93 84.9 0 0 0.8276,-1.1883 1.11,0.93 84.9 0 0 -1.025,-1.0229 1.11,0.93 84.9 0 0 -0.8276,1.1883 1.11,0.93 84.9 0 0 1.025,1.0229 z m -59.0479,1.6757 a 1.17,0.9 60.8 0 0 0.2148,-1.4604 1.17,0.9 60.8 0 0 -1.3564,-0.5822 1.17,0.9 60.8 0 0 -0.2148,1.4604 1.17,0.9 60.8 0 0 1.3564,0.5822 z m 46.5463,7.3064 a 1.1,0.84 130.4 0 0 1.3526,-0.2933 1.1,0.84 130.4 0 0 0.0732,-1.3821 1.1,0.84 130.4 0 0 -1.3526,0.2933 1.1,0.84 130.4 0 0 -0.0732,1.3821 z M 320.23,237.77 q -0.43,0.96 1.13,1.61 a 0.66,0.66 0 0 0 0.88,-0.81 q -0.26,-0.78 -1.03,-1.15 a 0.73,0.72 -64.6 0 0 -0.98,0.35 z m 20.086,4.5918 a 1.15,0.97 -19.2 0 0 -1.405,-0.5378 1.15,0.97 -19.2 0 0 -0.767,1.2942 1.15,0.97 -19.2 0 0 1.405,0.5378 1.15,0.97 -19.2 0 0 0.767,-1.2942 z"
           id="path9164" />
        <ellipse
           fill="#f0f0f0"
           cx="0"
           cy="0"
           transform="rotate(-3.4,2809.9496,-5589.1801)"
           rx="1.25"
           ry="0.88"
           id="ellipse9168" />
        <ellipse
           fill="#f0f0f0"
           cx="0"
           cy="0"
           transform="rotate(-3.6,2735.9859,-5551.1749)"
           rx="1.13"
           ry="0.94999999"
           id="ellipse9172" />
        <ellipse
           fill="#f0f0f0"
           cx="0"
           cy="0"
           transform="rotate(119.5,112.34047,173.52726)"
           rx="1.04"
           ry="0.92000002"
           id="ellipse9174" />
        <path
           fill="#1873b8"
           d="m 374.87,199.59 a 37.46,37.46 0 0 1 -37.46,37.46 37.46,37.46 0 0 1 -37.46,-37.46 37.46,37.46 0 0 1 37.46,-37.46 37.46,37.46 0 0 1 37.46,37.46 z m -20.31,-16.41 a 1.4,1.39 89.8 0 1 1.16,-1.18 q 4.22,-0.67 6.79,0.99 1.07,0.7 1.84,-0.33 l 0.96,-1.27 a 0.92,0.91 -64.3 0 0 -0.5,-1.44 c -3.06,-0.77 -6.4,-1.15 -9.26,0.76 q -2.01,1.35 -2.95,2.02 a 2.86,2.86 0 0 0 0.46,4.92 q 3.05,1.41 7.11,3.19 2.73,1.2 1.82,3.75 -0.17,0.48 -0.64,0.68 c -2.3,0.96 -5.67,0.03 -7.54,-1.32 q -0.88,-0.64 -1.54,0.23 l -0.81,1.08 a 1.05,1.05 0 0 0 0.33,1.55 c 2.92,1.59 7.29,2.48 9.99,-0.42 q 0.94,-1.01 3.53,-2.99 0.41,-0.32 0.3,-0.83 c -0.97,-4.64 -4.9,-5.31 -9.76,-7.21 q -1.51,-0.59 -1.29,-2.18 z m -39.61,-0.48 q -1.95,3.84 -3.62,6.33 -1.71,2.56 -3.18,5.74 -1.18,2.56 -3.64,5.39 -0.14,0.16 -0.06,0.36 l 0.15,0.37 q 0.04,0.1 0.12,0.03 3.97,-3.37 6.29,-8.29 0.47,-0.99 1.56,-0.99 h 7.01 a 1.76,1.76 0 0 1 1.6,1.03 l 2.13,4.64 q 0.24,0.53 0.8,0.65 2.98,0.65 4.73,-0.38 3.47,-2.06 -0.5,-1.29 -0.12,0.02 -1.43,-0.55 -0.46,-0.21 -0.69,-0.65 -4.05,-8.03 -6.02,-12.24 -0.88,-1.9 -1.68,-2.67 -0.38,-0.37 -0.91,-0.38 -3.03,-0.04 -5.36,0.86 -0.45,0.17 -0.4,0.65 l 0.04,0.35 a 0.21,0.21 0 0 0 0.24,0.19 q 1.49,-0.22 2.52,0.12 0.57,0.19 0.3,0.73 z m 20.14,0.36 q 0.78,-1.24 1.92,-1.25 4.44,-0.06 9.17,1.16 0.51,0.13 0.78,0.59 l 0.55,0.95 q 0.23,0.41 0.51,0.04 l 1.76,-2.34 a 0.66,0.65 -64.1 0 0 -0.35,-1.03 q -3.91,-1.06 -8.51,-1.37 -2.29,-0.15 -4.19,1.05 -1.39,0.87 -3.84,1.67 a 1.49,1.49 0 0 0 -0.75,0.57 c -1.99,2.84 -2.74,7.08 -0.13,9.83 3.16,3.31 7.23,6.86 11.9,4.13 q 1.08,-0.62 -0.13,-0.92 -3.87,-0.93 -7.26,-3.83 -4.69,-4.01 -1.43,-9.25 z m 10.83,7.68 q -0.21,3.14 -0.44,3.88 -0.41,1.26 -0.17,3.33 0.16,1.35 -0.59,3.35 -0.81,2.19 0.9,0.6 1.11,-1.04 1.98,-2.15 0.71,-0.91 0.9,-2.7 0.6,-5.81 0.85,-8.37 a 0.74,0.74 0 0 0 -0.7,-0.81 q -3.37,-0.2 -5.14,0.66 -3.21,1.55 0.25,0.87 0.4,-0.08 1.74,0.6 0.46,0.23 0.42,0.74 z m -10.15,15.91 c -6.65,1.59 -12.13,7.58 -14.96,13.97 q -0.05,0.12 0.02,0.43 0.08,0.3 0.18,0.39 c 5.42,4.4 13.02,7.25 19.67,5.65 6.64,-1.59 12.12,-7.58 14.95,-13.97 q 0.05,-0.12 -0.02,-0.43 -0.08,-0.3 -0.17,-0.39 c -5.43,-4.4 -13.03,-7.25 -19.67,-5.65 z"
           id="path9176" />
        <circle
           fill="#f0f0f0"
           cx="366.23001"
           cy="168.96001"
           r="1.0599999"
           id="circle9178" />
        <ellipse
           fill="#f0f0f0"
           cx="0"
           cy="0"
           transform="rotate(121.2,105.27727,171.57166)"
           rx="1.1"
           ry="0.88"
           id="ellipse9180" />
        <path
           fill="#fcfcfc"
           d="m 354.56,183.18 q -0.22,1.59 1.29,2.18 c 4.86,1.9 8.79,2.57 9.76,7.21 q 0.11,0.51 -0.3,0.83 -2.59,1.98 -3.53,2.99 c -2.7,2.9 -7.07,2.01 -9.99,0.42 a 1.05,1.05 0 0 1 -0.33,-1.55 l 0.81,-1.08 q 0.66,-0.87 1.54,-0.23 c 1.87,1.35 5.24,2.28 7.54,1.32 q 0.47,-0.2 0.64,-0.68 0.91,-2.55 -1.82,-3.75 -4.06,-1.78 -7.11,-3.19 a 2.86,2.86 0 0 1 -0.46,-4.92 q 0.94,-0.67 2.95,-2.02 c 2.86,-1.91 6.2,-1.53 9.26,-0.76 a 0.92,0.91 -64.3 0 1 0.5,1.44 l -0.96,1.27 q -0.77,1.03 -1.84,0.33 -2.57,-1.66 -6.79,-0.99 a 1.4,1.39 89.8 0 0 -1.16,1.18 z"
           id="path9194" />
        <path
           fill="#f0f0f0"
           d="m 314.65,181.97 q -1.03,-0.34 -2.52,-0.12 a 0.21,0.21 0 0 1 -0.24,-0.19 l -0.04,-0.35 q -0.05,-0.48 0.4,-0.65 2.33,-0.9 5.36,-0.86 0.53,0.01 0.91,0.38 0.8,0.77 1.68,2.67 1.97,4.21 6.02,12.24 0.23,0.44 0.69,0.65 1.31,0.57 1.43,0.55 3.97,-0.77 0.5,1.29 -1.75,1.03 -4.73,0.38 -0.56,-0.12 -0.8,-0.65 l -2.13,-4.64 a 1.76,1.76 0 0 0 -1.6,-1.03 h -7.01 q -1.09,0 -1.56,0.99 -2.32,4.92 -6.29,8.29 -0.08,0.07 -0.12,-0.03 l -0.15,-0.37 q -0.08,-0.2 0.06,-0.36 2.46,-2.83 3.64,-5.39 1.47,-3.18 3.18,-5.74 1.67,-2.49 3.62,-6.33 0.27,-0.54 -0.3,-0.73 z m 2.24,2.34 a 0.4,0.4 0 0 0 -0.7,-0.02 l -3.16,5.2 a 0.4,0.4 0 0 0 0.34,0.61 l 5.78,-0.05 a 0.4,0.4 0 0 0 0.36,-0.58 z"
           id="path9198" />
        <path
           fill="#fcfcfc"
           d="m 335.09,183.06 q -3.26,5.24 1.43,9.25 3.39,2.9 7.26,3.83 1.21,0.3 0.13,0.92 c -4.67,2.73 -8.74,-0.82 -11.9,-4.13 -2.61,-2.75 -1.86,-6.99 0.13,-9.83 a 1.49,1.49 0 0 1 0.75,-0.57 q 2.45,-0.8 3.84,-1.67 1.9,-1.2 4.19,-1.05 4.6,0.31 8.51,1.37 a 0.66,0.65 -64.1 0 1 0.35,1.03 l -1.76,2.34 q -0.28,0.37 -0.51,-0.04 l -0.55,-0.95 q -0.27,-0.46 -0.78,-0.59 -4.73,-1.22 -9.17,-1.16 -1.14,0.01 -1.92,1.25 z"
           id="path9200" />
        <path
           fill="#f0f0f0"
           d="m 376.07,180.95 q 0.57,0.57 0.75,1.15 0.15,0.49 -0.31,0.8 -0.26,0.17 -1.06,0.09 -0.59,-0.06 -0.6,-0.65 -0.01,-0.86 0.52,-1.39 a 0.5,0.5 0 0 1 0.7,0 z"
           id="path9208" />
        <circle
           fill="#f0f0f0"
           cx="298.32999"
           cy="183.21001"
           r="1.01"
           id="circle9224" />
        <path
           fill="#1873b8"
           d="m 316.89,184.31 2.62,5.16 a 0.4,0.4 0 0 1 -0.36,0.58 l -5.78,0.05 a 0.4,0.4 0 0 1 -0.34,-0.61 l 3.16,-5.2 a 0.4,0.4 0 0 1 0.7,0.02 z"
           id="path9228" />
        <path
           fill="#fcfcfc"
           d="m 345.5,190 q -1.34,-0.68 -1.74,-0.6 -3.46,0.68 -0.25,-0.87 1.77,-0.86 5.14,-0.66 a 0.74,0.74 0 0 1 0.7,0.81 q -0.25,2.56 -0.85,8.37 -0.19,1.79 -0.9,2.7 -0.87,1.11 -1.98,2.15 -1.71,1.59 -0.9,-0.6 0.75,-2 0.59,-3.35 -0.24,-2.07 0.17,-3.33 0.23,-0.74 0.44,-3.88 0.04,-0.51 -0.42,-0.74 z"
           id="path9238" />
        <circle
           fill="#f0f0f0"
           cx="379.84"
           cy="198.59"
           r="1.01"
           id="circle9244" />
        <circle
           fill="#fcfcfc"
           cx="295.85999"
           cy="199.75"
           r="0.97000003"
           id="circle9248" />
        <path
           fill="#fcfcfc"
           d="m 355.61,212.69 q 0.07,0.31 0.02,0.43 c -2.83,6.39 -8.31,12.38 -14.95,13.97 -6.65,1.6 -14.25,-1.25 -19.67,-5.65 q -0.1,-0.09 -0.18,-0.39 -0.07,-0.31 -0.02,-0.43 c 2.83,-6.39 8.31,-12.38 14.96,-13.97 6.64,-1.6 14.24,1.25 19.67,5.65 q 0.09,0.09 0.17,0.39 z m -18.37,-0.04 q -1.09,0.26 -0.36,3.1 0.13,0.52 -0.36,0.75 -0.44,0.21 -0.99,0.2 -0.52,-0.01 -0.65,-0.52 l -0.49,-2.09 q -0.14,-0.58 -0.71,-0.44 l -0.54,0.13 a 0.73,0.73 0 0 0 -0.54,0.87 l 0.49,2.04 q 0.12,0.49 -0.38,0.57 -2.87,0.43 -2.58,1.67 0.29,1.25 3.05,0.36 0.49,-0.15 0.6,0.35 l 0.46,2.04 a 0.73,0.73 0 0 0 0.87,0.55 l 0.54,-0.13 q 0.57,-0.12 0.44,-0.71 l -0.48,-2.09 q -0.11,-0.51 0.35,-0.75 0.49,-0.25 0.98,-0.26 0.54,-0.01 0.65,0.52 0.6,2.87 1.69,2.62 1.08,-0.26 0.35,-3.1 -0.13,-0.52 0.36,-0.75 0.44,-0.21 0.99,-0.2 0.52,0.01 0.65,0.52 l 0.49,2.09 q 0.14,0.58 0.71,0.44 l 0.54,-0.13 a 0.73,0.73 0 0 0 0.54,-0.87 l -0.49,-2.04 q -0.12,-0.49 0.38,-0.57 2.87,-0.43 2.59,-1.67 -0.29,-1.25 -3.06,-0.36 -0.48,0.15 -0.59,-0.35 l -0.46,-2.04 a 0.73,0.73 0 0 0 -0.87,-0.55 l -0.54,0.13 q -0.58,0.12 -0.45,0.7 l 0.49,2.1 q 0.11,0.51 -0.36,0.75 -0.49,0.25 -0.97,0.26 -0.54,0.01 -0.66,-0.52 -0.6,-2.87 -1.68,-2.62 z"
           id="path9254" />
        <path
           fill="#000000"
           d="m 388.93,209.12 -4.94,6.13 q -0.53,-0.23 -0.84,-0.57 a 1.23,1.22 47.7 0 1 0.08,-1.72 q 2.25,-2.09 4.39,-4.3 0.48,-0.5 1.31,0.46 z"
           id="path9258" />
        <path
           fill="#000000"
           d="m 346.39,215.15 q 0.28,1.24 -2.59,1.67 -0.5,0.08 -0.38,0.57 l 0.49,2.04 a 0.73,0.73 0 0 1 -0.54,0.87 l -0.54,0.13 q -0.57,0.14 -0.71,-0.44 l -0.49,-2.09 q -0.13,-0.51 -0.65,-0.52 -0.55,-0.01 -0.99,0.2 -0.49,0.23 -0.36,0.75 0.73,2.84 -0.35,3.1 -1.09,0.25 -1.69,-2.62 -0.11,-0.53 -0.65,-0.52 -0.49,0.01 -0.98,0.26 -0.46,0.24 -0.35,0.75 l 0.48,2.09 q 0.13,0.59 -0.44,0.71 l -0.54,0.13 a 0.73,0.73 0 0 1 -0.87,-0.55 l -0.46,-2.04 q -0.11,-0.5 -0.6,-0.35 -2.76,0.89 -3.05,-0.36 -0.29,-1.24 2.58,-1.67 0.5,-0.08 0.38,-0.57 l -0.49,-2.04 a 0.73,0.73 0 0 1 0.54,-0.87 l 0.54,-0.13 q 0.57,-0.14 0.71,0.44 l 0.49,2.09 q 0.13,0.51 0.65,0.52 0.55,0.01 0.99,-0.2 0.49,-0.23 0.36,-0.75 -0.73,-2.84 0.36,-3.1 1.08,-0.25 1.68,2.62 0.12,0.53 0.66,0.52 0.48,-0.01 0.97,-0.26 0.47,-0.24 0.36,-0.75 l -0.49,-2.1 q -0.13,-0.58 0.45,-0.7 l 0.54,-0.13 a 0.73,0.73 0 0 1 0.87,0.55 l 0.46,2.04 q 0.11,0.5 0.59,0.35 2.77,-0.89 3.06,0.36 z"
           id="path9260" />
        <ellipse
           fill="#f0f0f0"
           cx="0"
           cy="0"
           transform="rotate(119.5,125.76413,217.66577)"
           rx="1.0700001"
           ry="0.88999999"
           id="ellipse9268" />
        <circle
           fill="#f0f0f0"
           cx="299.35999"
           cy="216.25"
           r="1.14"
           id="circle9270" />
        <ellipse
           fill="#f0f0f0"
           cx="0"
           cy="0"
           transform="rotate(84.9,58.991429,315.4715)"
           rx="1.11"
           ry="0.93000001"
           id="ellipse9294" />
        <ellipse
           fill="#f0f0f0"
           cx="0"
           cy="0"
           transform="rotate(60.8,-42.154213,378.08515)"
           rx="1.17"
           ry="0.89999998"
           id="ellipse9296" />
        <ellipse
           fill="#f0f0f0"
           cx="0"
           cy="0"
           transform="rotate(130.4,123.17276,201.27224)"
           rx="1.1"
           ry="0.83999997"
           id="ellipse9306" />
        <path
           fill="#fcfcfc"
           d="m 320.23,237.77 a 0.73,0.72 -64.6 0 1 0.98,-0.35 q 0.77,0.37 1.03,1.15 a 0.66,0.66 0 0 1 -0.88,0.81 q -1.56,-0.65 -1.13,-1.61 z"
           id="path9308" />
        <ellipse
           fill="#f0f0f0"
           cx="0"
           cy="0"
           transform="rotate(-19.2,887.19753,-881.4541)"
           rx="1.15"
           ry="0.97000003"
           id="ellipse9314" />
      </g>
    </g>
  </g>
</svg>
